SplineFontDB: 3.0
FontName: Strobrod-Regular
FullName: Strobrod
FamilyName: Strobrod
Weight: Book
Copyright: CC, Aaron Christianson, Nicolas Mercier
UComments: "2017-3-27: Created with FontForge (http://fontforge.org)"
Version: 001.000
StrokeWidth: 600
ItalicAngle: 0
UnderlinePosition: -100
UnderlineWidth: 0
Ascent: 800
Descent: 736
InvalidEm: 0
LayerCount: 2
Layer: 0 0 "Back" 1
Layer: 1 0 "Fore" 0
StrokedFont: 1
XUID: [1021 68 1269985762 15680502]
StyleMap: 0x0040
FSType: 0
OS2Version: 3
OS2_WeightWidthSlopeOnly: 0
OS2_UseTypoMetrics: 1
CreationTime: 1490615230
ModificationTime: 1495917348
PfmFamily: 49
TTFWeight: 400
TTFWidth: 5
LineGap: -536
VLineGap: 0
Panose: 2 11 5 9 0 0 0 0 0 0
OS2TypoAscent: 800
OS2TypoAOffset: 0
OS2TypoDescent: -200
OS2TypoDOffset: 0
OS2TypoLinegap: -536
OS2WinAscent: 800
OS2WinAOffset: 0
OS2WinDescent: 200
OS2WinDOffset: 0
HheadAscent: 800
HheadAOffset: 0
HheadDescent: -200
HheadDOffset: 0
OS2Vendor: 'PfEd'
MarkAttachClasses: 1
DEI: 91125
LangName: 1033
GaspTable: 2 0 1 65535 1 1
DesignSize: 100
Encoding: iso8859-15
UnicodeInterp: none
NameList: AGL For New Fonts
DisplaySize: 10
AntiAlias: 1
FitToEm: 0
WinInfo: 0 61 19
BeginPrivate: 0
EndPrivate
TeXData: 1 10485760 0 524288 262144 174762 524288 1048576 174762 783286 444596 497025 792723 393216 433062 380633 303038 157286 324010 404750 52429 2506097 1059062 262144
BeginChars: 546 546

StartChar: exclam
Encoding: 33 33 1
Width: 576
VWidth: 0
Flags: W
HStem: 0 96<300 401> 576 0G<300 401>
VStem: 288 96<0 100 201 600>
LayerCount: 2
Back
SplineSet
312.5 625 m 29
 416.69921875 625 l 25
 416.69921875 208.30078125 l 25
 312.5 208.30078125 l 25
 312.5 625 l 29
312.5 104.19921875 m 25
 416.69921875 104.19921875 l 25
 416.69921875 0 l 25
 312.5 0 l 25
 312.5 104.19921875 l 25
EndSplineSet
Fore
SplineSet
288 576 m 25
 384 576 l 25
 384 192 l 25
 288 192 l 25
 288 576 l 25
288 96 m 25
 384 96 l 25
 384 0 l 25
 288 0 l 25
 288 96 l 25
EndSplineSet
EndChar

StartChar: quotedbl
Encoding: 34 34 2
Width: 576
VWidth: 0
Flags: W
HStem: 480 192<201 300 401 500>
VStem: 192 96<500 700> 384 96<500 700>
LayerCount: 2
Back
SplineSet
416.69921875 729.19921875 m 29
 520.80078125 729.19921875 l 25
 520.80078125 520.80078125 l 25
 416.69921875 520.80078125 l 25
 416.69921875 729.19921875 l 29
208.30078125 729.19921875 m 25
 312.5 729.19921875 l 25
 312.5 520.80078125 l 25
 208.30078125 520.80078125 l 25
 208.30078125 729.19921875 l 25
EndSplineSet
Fore
SplineSet
384 672 m 25
 480 672 l 25
 480 480 l 25
 384 480 l 25
 384 672 l 25
192 672 m 25
 288 672 l 25
 288 480 l 25
 192 480 l 25
 192 672 l 25
EndSplineSet
EndChar

StartChar: numbersign
Encoding: 35 35 3
Width: 576
VWidth: 0
Flags: W
HStem: 192 96<100 201 300 401 500 600> 384 96<100 201 300 401 500 600> 576 0G<201 300 401 500>
VStem: 192 96<100 201 300 401 500 600> 384 96<100 201 300 401 500 600>
LayerCount: 2
Back
SplineSet
312.5 416.69921875 m 29
 312.5 312.5 l 25
 416.69921875 312.5 l 25
 416.69921875 416.69921875 l 25
 312.5 416.69921875 l 29
104.19921875 520.80078125 m 25
 208.30078125 520.80078125 l 25
 208.30078125 625 l 25
 312.5 625 l 25
 312.5 520.80078125 l 25
 416.69921875 520.80078125 l 25
 416.69921875 625 l 25
 520.80078125 625 l 25
 520.80078125 520.80078125 l 25
 625 520.80078125 l 25
 625 416.69921875 l 25
 520.80078125 416.69921875 l 25
 520.80078125 312.5 l 25
 625 312.5 l 25
 625 208.30078125 l 25
 520.80078125 208.30078125 l 25
 520.80078125 104.19921875 l 25
 416.69921875 104.19921875 l 25
 416.69921875 208.30078125 l 25
 312.5 208.30078125 l 25
 312.5 104.19921875 l 25
 208.30078125 104.19921875 l 25
 208.30078125 208.30078125 l 25
 104.19921875 208.30078125 l 25
 104.19921875 312.5 l 25
 208.30078125 312.5 l 25
 208.30078125 416.69921875 l 25
 104.19921875 416.69921875 l 25
 104.19921875 520.80078125 l 25
EndSplineSet
Fore
SplineSet
288 384 m 25
 288 288 l 25
 384 288 l 25
 384 384 l 25
 288 384 l 25
96 480 m 25
 192 480 l 25
 192 576 l 25
 288 576 l 25
 288 480 l 25
 384 480 l 25
 384 576 l 25
 480 576 l 25
 480 480 l 25
 576 480 l 25
 576 384 l 25
 480 384 l 25
 480 288 l 25
 576 288 l 25
 576 192 l 25
 480 192 l 25
 480 96 l 25
 384 96 l 25
 384 192 l 25
 288 192 l 25
 288 96 l 25
 192 96 l 25
 192 192 l 25
 96 192 l 25
 96 288 l 25
 192 288 l 25
 192 384 l 25
 96 384 l 25
 96 480 l 25
EndSplineSet
EndChar

StartChar: dollar
Encoding: 36 36 4
Width: 576
VWidth: 0
Flags: W
HStem: -96 0G<300 401> 0 96<100 300 401 500> 96 96<500 600> 192 96<201 500> 288 96<100 201> 384 96<201 300 401 600> 576 0G<300 401>
VStem: 96 96<300 401> 288 96<-100 0 500 600> 480 96<100 201>
LayerCount: 2
Back
SplineSet
104.19921875 104.19921875 m 29
 520.80078125 104.19921875 l 25
 520.80078125 0 l 25
 416.69921875 0 l 25
 416.69921875 -104.19921875 l 25
 312.5 -104.19921875 l 25
 312.5 0 l 25
 104.19921875 0 l 25
 104.19921875 104.19921875 l 29
520.80078125 208.30078125 m 25
 625 208.30078125 l 25
 625 104.19921875 l 25
 520.80078125 104.19921875 l 25
 520.80078125 208.30078125 l 25
208.30078125 312.5 m 25
 520.80078125 312.5 l 25
 520.80078125 208.30078125 l 25
 208.30078125 208.30078125 l 25
 208.30078125 312.5 l 25
104.19921875 416.69921875 m 25
 208.30078125 416.69921875 l 25
 208.30078125 312.5 l 25
 104.19921875 312.5 l 25
 104.19921875 416.69921875 l 25
208.30078125 520.80078125 m 25
 312.5 520.80078125 l 25
 312.5 625 l 25
 416.69921875 625 l 25
 416.69921875 520.80078125 l 25
 625 520.80078125 l 25
 625 416.69921875 l 25
 208.30078125 416.69921875 l 25
 208.30078125 520.80078125 l 25
EndSplineSet
Fore
SplineSet
96 96 m 25xc3c0
 480 96 l 25
 480 0 l 25
 384 0 l 25
 384 -96 l 25
 288 -96 l 25
 288 0 l 25
 96 0 l 25
 96 96 l 25xc3c0
480 192 m 25xa3c0
 576 192 l 25
 576 96 l 25xa3c0
 480 96 l 25xc3c0
 480 192 l 25xa3c0
192 288 m 25x93c0
 480 288 l 25x93c0
 480 192 l 25xa3c0
 192 192 l 25
 192 288 l 25x93c0
96 384 m 25x8bc0
 192 384 l 25x8bc0
 192 288 l 25x93c0
 96 288 l 25
 96 384 l 25x8bc0
192 480 m 25x87c0
 288 480 l 25
 288 576 l 25
 384 576 l 25
 384 480 l 25
 576 480 l 25
 576 384 l 25x87c0
 192 384 l 25x8bc0
 192 480 l 25x87c0
EndSplineSet
EndChar

StartChar: percent
Encoding: 37 37 5
Width: 576
VWidth: 0
Flags: W
HStem: 96 96<100 201 401 500> 192 96<201 300> 288 96<300 401> 384 96<100 201 401 500>
VStem: 96 96<100 201 401 500> 192 96<201 300> 288 96<300 401> 384 96<100 201 401 500>
LayerCount: 2
Back
SplineSet
416.69921875 208.30078125 m 29
 520.80078125 208.30078125 l 25
 520.80078125 104.19921875 l 25
 416.69921875 104.19921875 l 25
 416.69921875 208.30078125 l 29
104.19921875 208.30078125 m 25
 208.30078125 208.30078125 l 25
 208.30078125 312.5 l 25
 312.5 312.5 l 25
 312.5 416.69921875 l 25
 416.69921875 416.69921875 l 25
 416.69921875 520.80078125 l 25
 520.80078125 520.80078125 l 25
 520.80078125 416.69921875 l 25
 416.69921875 416.69921875 l 25
 416.69921875 312.5 l 25
 312.5 312.5 l 25
 312.5 208.30078125 l 25
 208.30078125 208.30078125 l 25
 208.30078125 104.19921875 l 25
 104.19921875 104.19921875 l 25
 104.19921875 208.30078125 l 25
104.19921875 520.80078125 m 25
 208.30078125 520.80078125 l 25
 208.30078125 416.69921875 l 25
 104.19921875 416.69921875 l 25
 104.19921875 520.80078125 l 25
EndSplineSet
Fore
SplineSet
384 192 m 25x81
 480 192 l 25
 480 96 l 25
 384 96 l 25
 384 192 l 25x81
96 192 m 25x88
 192 192 l 25x88
 192 288 l 25
 288 288 l 25x44
 288 384 l 25
 384 384 l 25x22
 384 480 l 25
 480 480 l 25
 480 384 l 25x11
 384 384 l 25
 384 288 l 25x22
 288 288 l 25
 288 192 l 25x44
 192 192 l 25
 192 96 l 25
 96 96 l 25
 96 192 l 25x88
96 480 m 25x18
 192 480 l 25
 192 384 l 25
 96 384 l 25
 96 480 l 25x18
EndSplineSet
EndChar

StartChar: ampersand
Encoding: 38 38 6
Width: 576
VWidth: 0
Flags: W
HStem: 0 96<201 401 500 600> 96 192<100 201 401 500> 288 96<300 401 500 600> 576 96<300 500>
VStem: 96 96<100 300> 192 192<0 100 300 401> 192 96<401 600> 384 96<100 300> 480 96<0 100 300 401>
LayerCount: 2
Back
SplineSet
208.30078125 312.5 m 29
 208.30078125 104.19921875 l 25
 416.69921875 104.19921875 l 25
 416.69921875 312.5 l 25
 208.30078125 312.5 l 29
104.19921875 312.5 m 25
 208.30078125 312.5 l 25
 208.30078125 625 l 25
 312.5 625 l 25
 312.5 729.19921875 l 25
 520.80078125 729.19921875 l 25
 520.80078125 625 l 25
 312.5 625 l 25
 312.5 416.69921875 l 25
 416.69921875 416.69921875 l 25
 416.69921875 312.5 l 25
 520.80078125 312.5 l 25
 520.80078125 416.69921875 l 25
 625 416.69921875 l 25
 625 312.5 l 25
 520.80078125 312.5 l 25
 520.80078125 104.19921875 l 25
 625 104.19921875 l 25
 625 0 l 25
 520.80078125 0 l 25
 520.80078125 104.19921875 l 25
 416.69921875 104.19921875 l 25
 416.69921875 0 l 25
 208.30078125 0 l 25
 208.30078125 104.19921875 l 25
 104.19921875 104.19921875 l 25
 104.19921875 312.5 l 25
EndSplineSet
Fore
SplineSet
192 288 m 25x58
 192 96 l 25x98
 384 96 l 25x94
 384 288 l 25x54
 192 288 l 25x58
96 288 m 25x58
 192 288 l 25x58
 192 576 l 25
 288 576 l 25
 288 672 l 25
 480 672 l 25
 480 576 l 25
 288 576 l 25
 288 384 l 25x3280
 384 384 l 25x34
 384 288 l 25x54
 480 288 l 25x51
 480 384 l 25
 576 384 l 25
 576 288 l 25x3080
 480 288 l 25x51
 480 96 l 25x91
 576 96 l 25
 576 0 l 25
 480 0 l 25x9080
 480 96 l 25x91
 384 96 l 25
 384 0 l 25
 192 0 l 25x94
 192 96 l 25x98
 96 96 l 25
 96 288 l 25x58
EndSplineSet
EndChar

StartChar: quotesingle
Encoding: 39 39 7
Width: 576
VWidth: 0
Flags: W
HStem: 480 192<201 300>
VStem: 192 96<500 700>
LayerCount: 2
Back
SplineSet
208.30078125 729.19921875 m 29
 312.5 729.19921875 l 25
 312.5 520.80078125 l 25
 208.30078125 520.80078125 l 25
 208.30078125 729.19921875 l 29
EndSplineSet
Fore
SplineSet
192 672 m 25
 288 672 l 25
 288 480 l 25
 192 480 l 25
 192 672 l 25
EndSplineSet
EndChar

StartChar: parenleft
Encoding: 40 40 8
Width: 576
VWidth: 0
Flags: W
HStem: -96 96<300 401> 576 96<300 401>
VStem: 192 96<0 600> 288 96<-100 0 600 700>
LayerCount: 2
Back
SplineSet
208.30078125 625 m 29
 312.5 625 l 25
 312.5 729.19921875 l 25
 416.69921875 729.19921875 l 25
 416.69921875 625 l 25
 312.5 625 l 25
 312.5 0 l 25
 416.69921875 0 l 25
 416.69921875 -104.19921875 l 25
 312.5 -104.19921875 l 25
 312.5 0 l 25
 208.30078125 0 l 25
 208.30078125 625 l 29
EndSplineSet
Fore
SplineSet
192 576 m 25xe0
 288 576 l 25xe0
 288 672 l 25
 384 672 l 25
 384 576 l 25xd0
 288 576 l 25
 288 0 l 25xe0
 384 0 l 25
 384 -96 l 25
 288 -96 l 25xd0
 288 0 l 25
 192 0 l 25
 192 576 l 25xe0
EndSplineSet
EndChar

StartChar: parenright
Encoding: 41 41 9
Width: 576
VWidth: 0
Flags: W
HStem: -96 96<201 300> 576 96<201 300>
VStem: 192 96<-100 0 600 700> 288 96<0 600>
LayerCount: 2
Back
SplineSet
208.30078125 729.19921875 m 29
 312.5 729.19921875 l 25
 312.5 625 l 25
 416.69921875 625 l 25
 416.69921875 0 l 25
 312.5 0 l 25
 312.5 -104.19921875 l 25
 208.30078125 -104.19921875 l 25
 208.30078125 0 l 25
 312.5 0 l 25
 312.5 625 l 25
 208.30078125 625 l 25
 208.30078125 729.19921875 l 29
EndSplineSet
Fore
SplineSet
192 672 m 25xe0
 288 672 l 25
 288 576 l 25xe0
 384 576 l 25
 384 0 l 25xd0
 288 0 l 25
 288 -96 l 25
 192 -96 l 25
 192 0 l 25
 288 0 l 25
 288 576 l 25
 192 576 l 25
 192 672 l 25xe0
EndSplineSet
EndChar

StartChar: asterisk
Encoding: 42 42 10
Width: 576
VWidth: 0
Flags: W
HStem: 0 0G<300 401> 96 96<100 201 500 600> 192 96<201 300 401 500> 288 96<100 201 500 600> 480 0G<300 401>
VStem: 96 96<100 201 300 401> 288 96<0 201 300 500> 480 96<100 201 300 401>
CounterMasks: 1 07
LayerCount: 2
Back
SplineSet
104.19921875 416.69921875 m 29
 208.30078125 416.69921875 l 25
 208.30078125 312.5 l 25
 312.5 312.5 l 25
 312.5 520.80078125 l 25
 416.69921875 520.80078125 l 25
 416.69921875 312.5 l 25
 520.80078125 312.5 l 25
 520.80078125 416.69921875 l 25
 625 416.69921875 l 25
 625 312.5 l 25
 520.80078125 312.5 l 25
 520.80078125 208.30078125 l 25
 625 208.30078125 l 25
 625 104.19921875 l 25
 520.80078125 104.19921875 l 25
 520.80078125 208.30078125 l 25
 416.69921875 208.30078125 l 25
 416.69921875 0 l 25
 312.5 0 l 25
 312.5 208.30078125 l 25
 208.30078125 208.30078125 l 25
 208.30078125 104.19921875 l 25
 104.19921875 104.19921875 l 25
 104.19921875 208.30078125 l 25
 208.30078125 208.30078125 l 25
 208.30078125 312.5 l 25
 104.19921875 312.5 l 25
 104.19921875 416.69921875 l 29
EndSplineSet
Fore
SplineSet
96 384 m 25x9f
 192 384 l 25x9f
 192 288 l 25
 288 288 l 25
 288 480 l 25
 384 480 l 25
 384 288 l 25
 480 288 l 25xaf
 480 384 l 25
 576 384 l 25
 576 288 l 25x9f
 480 288 l 25xaf
 480 192 l 25
 576 192 l 25
 576 96 l 25
 480 96 l 25
 480 192 l 25xcf
 384 192 l 25
 384 0 l 25
 288 0 l 25
 288 192 l 25xaf
 192 192 l 25
 192 96 l 25
 96 96 l 25
 96 192 l 25
 192 192 l 25xcf
 192 288 l 25xaf
 96 288 l 25
 96 384 l 25x9f
EndSplineSet
EndChar

StartChar: plus
Encoding: 43 43 11
Width: 576
VWidth: 0
Flags: W
HStem: 0 0G<300 401> 192 96<100 300 401 600> 480 0G<300 401>
VStem: 288 96<0 201 300 500>
LayerCount: 2
Back
SplineSet
104.19921875 312.5 m 29
 312.5 312.5 l 25
 312.5 520.80078125 l 25
 416.69921875 520.80078125 l 25
 416.69921875 312.5 l 25
 625 312.5 l 25
 625 208.30078125 l 25
 416.69921875 208.30078125 l 25
 416.69921875 0 l 25
 312.5 0 l 25
 312.5 208.30078125 l 25
 104.19921875 208.30078125 l 25
 104.19921875 312.5 l 29
EndSplineSet
Fore
SplineSet
96 288 m 25
 288 288 l 25
 288 480 l 25
 384 480 l 25
 384 288 l 25
 576 288 l 25
 576 192 l 25
 384 192 l 25
 384 0 l 25
 288 0 l 25
 288 192 l 25
 96 192 l 25
 96 288 l 25
EndSplineSet
EndChar

StartChar: comma
Encoding: 44 44 12
Width: 576
VWidth: 0
Flags: W
HStem: -96 96<201 300>
VStem: 192 96<-100 0> 288 96<0 201>
LayerCount: 2
Back
SplineSet
208.30078125 0 m 29
 312.5 0 l 25
 312.5 208.30078125 l 25
 416.69921875 208.30078125 l 25
 416.69921875 0 l 25
 312.5 0 l 25
 312.5 -104.19921875 l 25
 208.30078125 -104.19921875 l 25
 208.30078125 0 l 29
EndSplineSet
Fore
SplineSet
192 0 m 25xc0
 288 0 l 25xc0
 288 192 l 25
 384 192 l 25
 384 0 l 25xa0
 288 0 l 25
 288 -96 l 25
 192 -96 l 25
 192 0 l 25xc0
EndSplineSet
EndChar

StartChar: hyphen
Encoding: 45 45 13
Width: 576
VWidth: 0
Flags: W
HStem: 192 96<100 600>
LayerCount: 2
Back
SplineSet
104.19921875 312.5 m 29
 625 312.5 l 25
 625 208.30078125 l 25
 104.19921875 208.30078125 l 25
 104.19921875 312.5 l 29
EndSplineSet
Fore
SplineSet
96 288 m 25
 576 288 l 25
 576 192 l 25
 96 192 l 25
 96 288 l 25
EndSplineSet
EndChar

StartChar: period
Encoding: 46 46 14
Width: 576
VWidth: 0
Flags: W
HStem: 0 192<201 401>
VStem: 192 192<0 201>
LayerCount: 2
Back
SplineSet
208.30078125 208.30078125 m 29
 416.69921875 208.30078125 l 25
 416.69921875 0 l 25
 208.30078125 0 l 25
 208.30078125 208.30078125 l 29
EndSplineSet
Fore
SplineSet
192 192 m 25
 384 192 l 25
 384 0 l 25
 192 0 l 25
 192 192 l 25
EndSplineSet
EndChar

StartChar: slash
Encoding: 47 47 15
Width: 576
VWidth: 0
Flags: W
HStem: -96 0G<100 201> 672 0G<401 500>
VStem: 96 96<-100 100> 192 96<100 300> 288 96<300 500> 384 96<500 700>
LayerCount: 2
Back
SplineSet
104.19921875 104.19921875 m 29
 208.30078125 104.19921875 l 25
 208.30078125 312.5 l 25
 312.5 312.5 l 25
 312.5 520.80078125 l 25
 416.69921875 520.80078125 l 25
 416.69921875 729.19921875 l 25
 520.80078125 729.19921875 l 25
 520.80078125 520.80078125 l 25
 416.69921875 520.80078125 l 25
 416.69921875 312.5 l 25
 312.5 312.5 l 25
 312.5 104.19921875 l 25
 208.30078125 104.19921875 l 25
 208.30078125 -104.19921875 l 25
 104.19921875 -104.19921875 l 25
 104.19921875 104.19921875 l 29
EndSplineSet
Fore
SplineSet
96 96 m 25xe0
 192 96 l 25xe0
 192 288 l 25
 288 288 l 25xd0
 288 480 l 25
 384 480 l 25xc8
 384 672 l 25
 480 672 l 25
 480 480 l 25xc4
 384 480 l 25
 384 288 l 25xc8
 288 288 l 25
 288 96 l 25xd0
 192 96 l 25
 192 -96 l 25
 96 -96 l 25
 96 96 l 25xe0
EndSplineSet
EndChar

StartChar: zero
Encoding: 48 48 16
Width: 576
VWidth: 0
Flags: W
HStem: 0 96<201 401> 192 96<201 300> 288 96<300 401> 480 96<201 401>
VStem: 96 96<100 201 300 500> 192 192<0 100 500 600> 384 96<100 300 401 500>
LayerCount: 2
Back
SplineSet
312.5 312.5 m 29
 312.5 208.30078125 l 25
 208.30078125 208.30078125 l 25
 208.30078125 104.19921875 l 25
 416.69921875 104.19921875 l 25
 416.69921875 312.5 l 25
 312.5 312.5 l 29
208.30078125 520.80078125 m 25
 208.30078125 312.5 l 25
 312.5 312.5 l 25
 312.5 416.69921875 l 25
 416.69921875 416.69921875 l 25
 416.69921875 520.80078125 l 25
 208.30078125 520.80078125 l 25
104.19921875 520.80078125 m 25
 208.30078125 520.80078125 l 25
 208.30078125 625 l 25
 416.69921875 625 l 25
 416.69921875 520.80078125 l 25
 520.80078125 520.80078125 l 25
 520.80078125 104.19921875 l 25
 416.69921875 104.19921875 l 25
 416.69921875 0 l 25
 208.30078125 0 l 25
 208.30078125 104.19921875 l 25
 104.19921875 104.19921875 l 25
 104.19921875 520.80078125 l 25
EndSplineSet
Fore
SplineSet
288 288 m 25xd2
 288 192 l 25
 192 192 l 25
 192 96 l 25xda
 384 96 l 25xd4
 384 288 l 25xb2
 288 288 l 25xd2
192 480 m 25
 192 288 l 25
 288 288 l 25xd8
 288 384 l 25
 384 384 l 25xba
 384 480 l 25xb4
 192 480 l 25
96 480 m 25
 192 480 l 25x98
 192 576 l 25
 384 576 l 25
 384 480 l 25x94
 480 480 l 25
 480 96 l 25x92
 384 96 l 25
 384 0 l 25
 192 0 l 25x94
 192 96 l 25
 96 96 l 25
 96 480 l 25
EndSplineSet
EndChar

StartChar: one
Encoding: 49 49 17
Width: 576
VWidth: 0
Flags: W
HStem: 0 0G<300 401> 384 96<201 300> 576 0G<300 401>
VStem: 288 96<0 401 500 600>
LayerCount: 2
Back
SplineSet
208.30078125 520.80078125 m 29
 312.5 520.80078125 l 25
 312.5 625 l 25
 416.69921875 625 l 25
 416.69921875 0 l 25
 312.5 0 l 25
 312.5 416.69921875 l 25
 208.30078125 416.69921875 l 25
 208.30078125 520.80078125 l 29
EndSplineSet
Fore
SplineSet
192 480 m 25
 288 480 l 25
 288 576 l 25
 384 576 l 25
 384 0 l 25
 288 0 l 25
 288 384 l 25
 192 384 l 25
 192 480 l 25
EndSplineSet
EndChar

StartChar: two
Encoding: 50 50 18
Width: 576
VWidth: 0
Flags: W
HStem: 0 96<100 201 300 500> 192 96<300 401> 384 96<100 201> 480 96<201 401>
VStem: 96 96<401 500> 192 96<100 201> 288 96<201 300> 384 96<300 500>
LayerCount: 2
Back
SplineSet
104.19921875 416.69921875 m 29
 104.19921875 520.80078125 l 25
 208.30078125 520.80078125 l 25
 208.30078125 625 l 25
 416.69921875 625 l 25
 416.69921875 520.80078125 l 25
 520.80078125 520.80078125 l 25
 520.80078125 312.5 l 25
 416.69921875 312.5 l 25
 416.69921875 208.30078125 l 25
 312.5 208.30078125 l 25
 312.5 104.19921875 l 25
 520.80078125 104.19921875 l 25
 520.80078125 0 l 25
 104.19921875 0 l 25
 104.19921875 104.19921875 l 25
 208.30078125 104.19921875 l 25
 208.30078125 208.30078125 l 25
 312.5 208.30078125 l 25
 312.5 312.5 l 25
 416.69921875 312.5 l 25
 416.69921875 416.69921875 l 25
 416.69921875 520.80078125 l 25
 208.30078125 520.80078125 l 25
 208.30078125 416.69921875 l 25
 104.19921875 416.69921875 l 29
EndSplineSet
Fore
SplineSet
96 384 m 25xe9
 96 480 l 25
 192 480 l 25xe9
 192 576 l 25
 384 576 l 25
 384 480 l 25
 480 480 l 25
 480 288 l 25xd5
 384 288 l 25
 384 192 l 25xd2
 288 192 l 25
 288 96 l 25xd4
 480 96 l 25
 480 0 l 25
 96 0 l 25
 96 96 l 25xd9
 192 96 l 25
 192 192 l 25
 288 192 l 25xd4
 288 288 l 25
 384 288 l 25xd2
 384 384 l 25xe1
 384 480 l 25xd1
 192 480 l 25
 192 384 l 25
 96 384 l 25xe9
EndSplineSet
EndChar

StartChar: three
Encoding: 51 51 19
Width: 576
VWidth: 0
Flags: W
HStem: 0 96<100 401> 288 96<201 401> 480 96<100 401>
VStem: 384 96<100 300 401 500>
LayerCount: 2
Back
SplineSet
104.19921875 625 m 29
 520.80078125 625 l 25
 520.80078125 416.69921875 l 25
 416.69921875 416.69921875 l 25
 416.69921875 312.5 l 25
 520.80078125 312.5 l 25
 520.80078125 104.19921875 l 25
 416.69921875 104.19921875 l 25
 416.69921875 0 l 25
 104.19921875 0 l 25
 104.19921875 104.19921875 l 25
 416.69921875 104.19921875 l 25
 416.69921875 312.5 l 25
 208.30078125 312.5 l 25
 208.30078125 416.69921875 l 25
 416.69921875 416.69921875 l 25
 416.69921875 520.80078125 l 25
 104.19921875 520.80078125 l 25
 104.19921875 625 l 29
EndSplineSet
Fore
SplineSet
96 576 m 25
 480 576 l 25
 480 384 l 25
 384 384 l 25
 384 288 l 25
 480 288 l 25
 480 96 l 25
 384 96 l 25
 384 0 l 25
 96 0 l 25
 96 96 l 25
 384 96 l 25
 384 288 l 25
 192 288 l 25
 192 384 l 25
 384 384 l 25
 384 480 l 25
 96 480 l 25
 96 576 l 25
EndSplineSet
EndChar

StartChar: four
Encoding: 52 52 20
Width: 576
VWidth: 0
Flags: W
HStem: 0 0G<401 500> 96 96<201 401> 288 96<201 300> 384 96<300 401> 576 0G<401 500>
VStem: 96 96<201 300> 192 96<300 401> 384 96<0 100 201 401 500 600>
LayerCount: 2
Back
SplineSet
208.30078125 312.5 m 29
 208.30078125 208.30078125 l 25
 416.69921875 208.30078125 l 25
 416.69921875 416.69921875 l 25
 312.5 416.69921875 l 25
 312.5 312.5 l 25
 208.30078125 312.5 l 29
104.19921875 312.5 m 25
 208.30078125 312.5 l 25
 208.30078125 416.69921875 l 25
 312.5 416.69921875 l 25
 312.5 520.80078125 l 25
 416.69921875 520.80078125 l 25
 416.69921875 625 l 25
 520.80078125 625 l 25
 520.80078125 0 l 25
 416.69921875 0 l 25
 416.69921875 104.19921875 l 25
 104.19921875 104.19921875 l 25
 104.19921875 312.5 l 25
EndSplineSet
Fore
SplineSet
192 288 m 25xed
 192 192 l 25
 384 192 l 25
 384 384 l 25xdd
 288 384 l 25
 288 288 l 25xeb
 192 288 l 25xed
96 288 m 25xed
 192 288 l 25xed
 192 384 l 25
 288 384 l 25xeb
 288 480 l 25
 384 480 l 25xdb
 384 576 l 25
 480 576 l 25
 480 0 l 25
 384 0 l 25
 384 96 l 25
 96 96 l 25
 96 288 l 25xed
EndSplineSet
EndChar

StartChar: five
Encoding: 53 53 21
Width: 576
VWidth: 0
Flags: W
HStem: 0 96<100 401> 288 96<201 401> 480 96<201 500>
VStem: 96 288<0 100 300 401> 96 96<401 500> 384 96<100 300>
LayerCount: 2
Back
SplineSet
104.19921875 625 m 29
 520.80078125 625 l 25
 520.80078125 520.80078125 l 25
 208.30078125 520.80078125 l 25
 208.30078125 416.69921875 l 25
 416.69921875 416.69921875 l 25
 416.69921875 312.5 l 25
 520.80078125 312.5 l 25
 520.80078125 104.19921875 l 25
 416.69921875 104.19921875 l 25
 416.69921875 0 l 25
 104.19921875 0 l 25
 104.19921875 104.19921875 l 25
 416.69921875 104.19921875 l 25
 416.69921875 312.5 l 25
 104.19921875 312.5 l 25
 104.19921875 625 l 29
EndSplineSet
Fore
SplineSet
96 576 m 25xe8
 480 576 l 25
 480 480 l 25
 192 480 l 25
 192 384 l 25xec
 384 384 l 25
 384 288 l 25xf0
 480 288 l 25
 480 96 l 25xe4
 384 96 l 25
 384 0 l 25
 96 0 l 25
 96 96 l 25
 384 96 l 25
 384 288 l 25
 96 288 l 25xf0
 96 576 l 25xe8
EndSplineSet
EndChar

StartChar: six
Encoding: 54 54 22
Width: 576
VWidth: 0
Flags: W
HStem: 0 96<201 401> 288 96<201 401> 480 96<201 401>
VStem: 96 96<100 300 401 500> 192 192<0 100 500 600> 384 96<100 300>
LayerCount: 2
Back
SplineSet
208.30078125 312.5 m 29
 208.30078125 104.19921875 l 25
 416.69921875 104.19921875 l 25
 416.69921875 312.5 l 25
 208.30078125 312.5 l 29
208.30078125 625 m 25
 416.69921875 625 l 25
 416.69921875 520.80078125 l 25
 208.30078125 520.80078125 l 25
 208.30078125 416.69921875 l 25
 416.69921875 416.69921875 l 25
 416.69921875 312.5 l 25
 520.80078125 312.5 l 25
 520.80078125 104.19921875 l 25
 416.69921875 104.19921875 l 25
 416.69921875 0 l 25
 208.30078125 0 l 25
 208.30078125 104.19921875 l 25
 104.19921875 104.19921875 l 25
 104.19921875 520.80078125 l 25
 208.30078125 520.80078125 l 25
 208.30078125 625 l 25
EndSplineSet
Fore
SplineSet
192 288 m 25xf4
 192 96 l 25xf4
 384 96 l 25xe8
 384 288 l 25
 192 288 l 25xf4
192 576 m 25xe8
 384 576 l 25
 384 480 l 25xe8
 192 480 l 25
 192 384 l 25
 384 384 l 25
 384 288 l 25
 480 288 l 25
 480 96 l 25xf4
 384 96 l 25
 384 0 l 25
 192 0 l 25xe8
 192 96 l 25
 96 96 l 25
 96 480 l 25
 192 480 l 25xf0
 192 576 l 25xe8
EndSplineSet
EndChar

StartChar: seven
Encoding: 55 55 23
Width: 576
VWidth: 0
Flags: W
HStem: 0 0G<201 300> 192 96<300 401> 480 96<100 401>
VStem: 192 96<0 201> 288 96<201 300> 384 96<300 500>
LayerCount: 2
Back
SplineSet
104.19921875 625 m 29
 520.80078125 625 l 25
 520.80078125 312.5 l 25
 416.69921875 312.5 l 25
 416.69921875 208.30078125 l 25
 312.5 208.30078125 l 25
 312.5 0 l 25
 208.30078125 0 l 25
 208.30078125 208.30078125 l 25
 312.5 208.30078125 l 25
 312.5 312.5 l 25
 416.69921875 312.5 l 25
 416.69921875 520.80078125 l 25
 104.19921875 520.80078125 l 25
 104.19921875 625 l 29
EndSplineSet
Fore
SplineSet
96 576 m 25xe4
 480 576 l 25
 480 288 l 25xe4
 384 288 l 25
 384 192 l 25xe8
 288 192 l 25
 288 0 l 25
 192 0 l 25
 192 192 l 25
 288 192 l 25xf0
 288 288 l 25
 384 288 l 25xe8
 384 480 l 25
 96 480 l 25
 96 576 l 25xe4
EndSplineSet
EndChar

StartChar: eight
Encoding: 56 56 24
Width: 576
VWidth: 0
Flags: W
HStem: 0 96<201 401> 96 192<100 201 401 500> 384 96<100 201 401 500> 480 96<201 401>
VStem: 96 96<100 300 401 500> 192 192<0 100 300 401 500 600> 384 96<100 300 401 500>
LayerCount: 2
Back
SplineSet
208.30078125 312.5 m 29
 208.30078125 104.19921875 l 25
 416.69921875 104.19921875 l 25
 416.69921875 312.5 l 25
 208.30078125 312.5 l 29
208.30078125 520.80078125 m 25
 208.30078125 416.69921875 l 25
 416.69921875 416.69921875 l 25
 416.69921875 520.80078125 l 25
 208.30078125 520.80078125 l 25
208.30078125 625 m 25
 416.69921875 625 l 25
 416.69921875 520.80078125 l 25
 520.80078125 520.80078125 l 25
 520.80078125 416.69921875 l 25
 416.69921875 416.69921875 l 25
 416.69921875 312.5 l 25
 520.80078125 312.5 l 25
 520.80078125 104.19921875 l 25
 416.69921875 104.19921875 l 25
 416.69921875 0 l 25
 208.30078125 0 l 25
 208.30078125 104.19921875 l 25
 104.19921875 104.19921875 l 25
 104.19921875 312.5 l 25
 208.30078125 312.5 l 25
 208.30078125 416.69921875 l 25
 104.19921875 416.69921875 l 25
 104.19921875 520.80078125 l 25
 208.30078125 520.80078125 l 25
 208.30078125 625 l 25
EndSplineSet
Fore
SplineSet
192 288 m 25x48
 192 96 l 25x88
 384 96 l 25x84
 384 288 l 25x44
 192 288 l 25x48
192 480 m 25x28
 192 384 l 25x28
 384 384 l 25
 384 480 l 25x24
 192 480 l 25x28
192 576 m 25x14
 384 576 l 25x14
 384 480 l 25x24
 480 480 l 25
 480 384 l 25x22
 384 384 l 25
 384 288 l 25x64
 480 288 l 25
 480 96 l 25x62
 384 96 l 25
 384 0 l 25
 192 0 l 25x84
 192 96 l 25x88
 96 96 l 25
 96 288 l 25
 192 288 l 25
 192 384 l 25
 96 384 l 25
 96 480 l 25
 192 480 l 25x68
 192 576 l 25x14
EndSplineSet
EndChar

StartChar: nine
Encoding: 57 57 25
Width: 576
VWidth: 0
Flags: W
HStem: 0 96<201 401> 192 96<201 401> 480 96<201 401>
VStem: 96 96<300 500> 192 192<0 100 500 600> 384 96<100 201 300 500>
LayerCount: 2
Back
SplineSet
208.30078125 520.80078125 m 29
 208.30078125 312.5 l 25
 416.69921875 312.5 l 25
 416.69921875 520.80078125 l 25
 208.30078125 520.80078125 l 29
208.30078125 625 m 25
 416.69921875 625 l 25
 416.69921875 520.80078125 l 25
 520.80078125 520.80078125 l 25
 520.80078125 104.19921875 l 25
 416.69921875 104.19921875 l 25
 416.69921875 0 l 25
 208.30078125 0 l 25
 208.30078125 104.19921875 l 25
 416.69921875 104.19921875 l 25
 416.69921875 208.30078125 l 25
 208.30078125 208.30078125 l 25
 208.30078125 312.5 l 25
 104.19921875 312.5 l 25
 104.19921875 520.80078125 l 25
 208.30078125 520.80078125 l 25
 208.30078125 625 l 25
EndSplineSet
Fore
SplineSet
192 480 m 25xf0
 192 288 l 25
 384 288 l 25xf4
 384 480 l 25xe8
 192 480 l 25xf0
192 576 m 25xe8
 384 576 l 25
 384 480 l 25xe8
 480 480 l 25
 480 96 l 25xe4
 384 96 l 25
 384 0 l 25
 192 0 l 25
 192 96 l 25
 384 96 l 25xe8
 384 192 l 25xe4
 192 192 l 25xe8
 192 288 l 25
 96 288 l 25
 96 480 l 25
 192 480 l 25xf0
 192 576 l 25xe8
EndSplineSet
EndChar

StartChar: colon
Encoding: 58 58 26
Width: 576
VWidth: 0
Flags: W
HStem: 96 96<201 300> 288 96<201 300>
VStem: 192 96<100 201 300 401>
LayerCount: 2
Back
SplineSet
208.30078125 208.30078125 m 29
 312.5 208.30078125 l 25
 312.5 104.19921875 l 25
 208.30078125 104.19921875 l 25
 208.30078125 208.30078125 l 29
208.30078125 416.69921875 m 25
 312.5 416.69921875 l 25
 312.5 312.5 l 25
 208.30078125 312.5 l 25
 208.30078125 416.69921875 l 25
EndSplineSet
Fore
SplineSet
192 192 m 25
 288 192 l 25
 288 96 l 25
 192 96 l 25
 192 192 l 25
192 384 m 25
 288 384 l 25
 288 288 l 25
 192 288 l 25
 192 384 l 25
EndSplineSet
EndChar

StartChar: semicolon
Encoding: 59 59 27
Width: 576
VWidth: 0
Flags: W
HStem: -96 96<201 300> 288 96<300 401>
VStem: 192 96<-100 0> 288 96<0 201 300 401>
LayerCount: 2
Back
SplineSet
312.5 208.30078125 m 29
 416.69921875 208.30078125 l 25
 416.69921875 0 l 25
 312.5 0 l 25
 312.5 -104.19921875 l 25
 208.30078125 -104.19921875 l 25
 208.30078125 0 l 25
 312.5 0 l 25
 312.5 208.30078125 l 29
312.5 416.69921875 m 25
 416.69921875 416.69921875 l 25
 416.69921875 312.5 l 25
 312.5 312.5 l 25
 312.5 416.69921875 l 25
EndSplineSet
Fore
SplineSet
288 192 m 25xd0
 384 192 l 25
 384 0 l 25xd0
 288 0 l 25
 288 -96 l 25
 192 -96 l 25
 192 0 l 25
 288 0 l 25xe0
 288 192 l 25xd0
288 384 m 25
 384 384 l 25
 384 288 l 25
 288 288 l 25
 288 384 l 25
EndSplineSet
EndChar

StartChar: less
Encoding: 60 60 28
Width: 576
VWidth: 0
Flags: W
HStem: 0 96<300 401> 96 96<201 300> 288 96<201 300> 384 96<300 401>
VStem: 96 96<201 300> 192 96<100 201 300 401> 288 96<0 100 401 500>
LayerCount: 2
Back
SplineSet
312.5 520.80078125 m 29
 416.69921875 520.80078125 l 25
 416.69921875 416.69921875 l 25
 312.5 416.69921875 l 25
 312.5 312.5 l 25
 208.30078125 312.5 l 25
 208.30078125 208.30078125 l 25
 312.5 208.30078125 l 25
 312.5 104.19921875 l 25
 416.69921875 104.19921875 l 25
 416.69921875 0 l 25
 312.5 0 l 25
 312.5 104.19921875 l 25
 208.30078125 104.19921875 l 25
 208.30078125 208.30078125 l 25
 104.19921875 208.30078125 l 25
 104.19921875 312.5 l 25
 208.30078125 312.5 l 25
 208.30078125 416.69921875 l 25
 312.5 416.69921875 l 25
 312.5 520.80078125 l 29
EndSplineSet
Fore
SplineSet
288 480 m 25x12
 384 480 l 25
 384 384 l 25x12
 288 384 l 25
 288 288 l 25x24
 192 288 l 25
 192 192 l 25x68
 288 192 l 25x64
 288 96 l 25x84
 384 96 l 25
 384 0 l 25
 288 0 l 25x82
 288 96 l 25x84
 192 96 l 25x44
 192 192 l 25
 96 192 l 25
 96 288 l 25
 192 288 l 25x68
 192 384 l 25
 288 384 l 25x64
 288 480 l 25x12
EndSplineSet
EndChar

StartChar: equal
Encoding: 61 61 29
Width: 576
VWidth: 0
Flags: W
HStem: 96 96<100 500> 288 96<100 500>
LayerCount: 2
Back
SplineSet
104.19921875 208.30078125 m 29
 520.80078125 208.30078125 l 25
 520.80078125 104.19921875 l 25
 104.19921875 104.19921875 l 25
 104.19921875 208.30078125 l 29
104.19921875 416.69921875 m 25
 520.80078125 416.69921875 l 25
 520.80078125 312.5 l 25
 104.19921875 312.5 l 25
 104.19921875 416.69921875 l 25
EndSplineSet
Fore
SplineSet
96 192 m 25
 480 192 l 25
 480 96 l 25
 96 96 l 25
 96 192 l 25
96 384 m 25
 480 384 l 25
 480 288 l 25
 96 288 l 25
 96 384 l 25
EndSplineSet
EndChar

StartChar: greater
Encoding: 62 62 30
Width: 576
VWidth: 0
Flags: W
HStem: 0 96<201 300> 96 96<300 401> 288 96<300 401> 384 96<201 300>
VStem: 192 96<0 100 401 500> 288 96<100 201 300 401> 384 96<201 300>
LayerCount: 2
Back
SplineSet
208.30078125 520.80078125 m 29
 312.5 520.80078125 l 25
 312.5 416.69921875 l 25
 416.69921875 416.69921875 l 25
 416.69921875 312.5 l 25
 520.80078125 312.5 l 25
 520.80078125 208.30078125 l 25
 416.69921875 208.30078125 l 25
 416.69921875 104.19921875 l 25
 312.5 104.19921875 l 25
 312.5 0 l 25
 208.30078125 0 l 25
 208.30078125 104.19921875 l 25
 312.5 104.19921875 l 25
 312.5 208.30078125 l 25
 416.69921875 208.30078125 l 25
 416.69921875 312.5 l 25
 312.5 312.5 l 25
 312.5 416.69921875 l 25
 208.30078125 416.69921875 l 25
 208.30078125 520.80078125 l 29
EndSplineSet
Fore
SplineSet
192 480 m 25x18
 288 480 l 25x18
 288 384 l 25x28
 384 384 l 25
 384 288 l 25x24
 480 288 l 25
 480 192 l 25x62
 384 192 l 25
 384 96 l 25x64
 288 96 l 25
 288 0 l 25
 192 0 l 25
 192 96 l 25
 288 96 l 25x88
 288 192 l 25
 384 192 l 25
 384 288 l 25
 288 288 l 25x64
 288 384 l 25x68
 192 384 l 25
 192 480 l 25x18
EndSplineSet
EndChar

StartChar: question
Encoding: 63 63 31
Width: 576
VWidth: 0
Flags: W
HStem: -96 96<201 300> 96 96<201 300> 192 96<300 401> 384 96<100 201> 480 96<201 401>
VStem: 96 96<401 500> 192 96<-100 0 100 201> 288 96<201 300> 384 96<300 500>
LayerCount: 2
Back
SplineSet
208.30078125 0 m 29
 312.5 0 l 25
 312.5 -104.19921875 l 25
 208.30078125 -104.19921875 l 25
 208.30078125 0 l 29
104.19921875 520.80078125 m 25
 208.30078125 520.80078125 l 25
 208.30078125 625 l 25
 416.69921875 625 l 25
 416.69921875 520.80078125 l 25
 520.80078125 520.80078125 l 25
 520.80078125 312.5 l 25
 416.69921875 312.5 l 25
 416.69921875 208.30078125 l 25
 312.5 208.30078125 l 25
 312.5 104.19921875 l 25
 208.30078125 104.19921875 l 25
 208.30078125 208.30078125 l 25
 312.5 208.30078125 l 25
 312.5 312.5 l 25
 416.69921875 312.5 l 25
 416.69921875 520.80078125 l 25
 208.30078125 520.80078125 l 25
 208.30078125 416.69921875 l 25
 104.19921875 416.69921875 l 25
 104.19921875 520.80078125 l 25
EndSplineSet
Fore
SplineSet
192 0 m 25x82
 288 0 l 25
 288 -96 l 25
 192 -96 l 25
 192 0 l 25x82
96 480 m 25x9480
 192 480 l 25x9480
 192 576 l 25
 384 576 l 25
 384 480 l 25
 480 480 l 25
 480 288 l 25xaa80
 384 288 l 25
 384 192 l 25xa9
 288 192 l 25
 288 96 l 25
 192 96 l 25
 192 192 l 25
 288 192 l 25xc2
 288 288 l 25
 384 288 l 25xa1
 384 480 l 25xa880
 192 480 l 25
 192 384 l 25
 96 384 l 25
 96 480 l 25x9480
EndSplineSet
EndChar

StartChar: at
Encoding: 64 64 32
Width: 576
VWidth: 0
Flags: W
HStem: -96 96<202 402> 96 96<300 402> 384 96<300 402> 576 96<202 402>
VStem: 97 192<201 401> 97 96<0 201 401 600> 193 192<-100 0 600 700> 289 192<100 201 401 500> 385 96<201 401 500 600>
LayerCount: 2
Back
SplineSet
208.30078125 625 m 29
 208.30078125 416.69921875 l 25
 312.5 416.69921875 l 25
 312.5 208.30078125 l 25
 416.69921875 208.30078125 l 25
 416.69921875 416.69921875 l 25
 312.5 416.69921875 l 25
 312.5 520.80078125 l 25
 416.69921875 520.80078125 l 25
 416.69921875 625 l 25
 208.30078125 625 l 29
104.19921875 625 m 25
 208.30078125 625 l 25
 208.30078125 729.19921875 l 25
 416.69921875 729.19921875 l 25
 416.69921875 625 l 25
 520.80078125 625 l 25
 520.80078125 104.19921875 l 25
 312.5 104.19921875 l 25
 312.5 208.30078125 l 25
 208.30078125 208.30078125 l 25
 208.30078125 0 l 25
 416.69921875 0 l 25
 416.69921875 -104.19921875 l 25
 208.30078125 -104.19921875 l 25
 208.30078125 0 l 25
 104.19921875 0 l 25
 104.19921875 625 l 25
EndSplineSet
Fore
SplineSet
193 576 m 25xf4
 193 384 l 25xf4
 289 384 l 25
 289 192 l 25
 385 192 l 25
 385 384 l 25
 289 384 l 25xf880
 289 480 l 25xf1
 385 480 l 25xf080
 385 576 l 25xf2
 193 576 l 25xf4
97 576 m 25
 193 576 l 25xf4
 193 672 l 25
 385 672 l 29
 385 576 l 25xf2
 481 576 l 25xf080
 481 96 l 25
 289 96 l 25xf1
 289 192 l 25xf8
 193 192 l 25
 193 0 l 25xf4
 385 0 l 25
 385 -96 l 25
 193 -96 l 25xf2
 193 0 l 25
 97 0 l 25
 97 576 l 25
EndSplineSet
EndChar

StartChar: A
Encoding: 65 65 33
Width: 576
VWidth: 0
Flags: W
HStem: 0 0G<100 201 401 500> 192 96<201 401> 480 96<201 401>
VStem: 96 96<0 201 300 500> 384 96<0 201 300 500>
LayerCount: 2
Back
SplineSet
208.30078125 520.80078125 m 29
 208.30078125 312.5 l 25
 416.69921875 312.5 l 25
 416.69921875 520.80078125 l 25
 208.30078125 520.80078125 l 29
104.19921875 520.80078125 m 25
 208.30078125 520.80078125 l 25
 208.30078125 625 l 25
 416.69921875 625 l 25
 416.69921875 520.80078125 l 25
 520.80078125 520.80078125 l 25
 520.80078125 0 l 25
 416.69921875 0 l 25
 416.69921875 208.30078125 l 25
 208.30078125 208.30078125 l 25
 208.30078125 0 l 25
 104.19921875 0 l 25
 104.19921875 520.80078125 l 25
EndSplineSet
Fore
SplineSet
192 480 m 25
 192 288 l 25
 384 288 l 25
 384 480 l 25
 192 480 l 25
96 480 m 25
 192 480 l 25
 192 576 l 25
 384 576 l 25
 384 480 l 25
 480 480 l 25
 480 0 l 25
 384 0 l 25
 384 192 l 25
 192 192 l 25
 192 0 l 25
 96 0 l 25
 96 480 l 25
EndSplineSet
EndChar

StartChar: B
Encoding: 66 66 34
Width: 576
VWidth: 0
Flags: W
HStem: 0 96<201 401> 480 96<201 401>
VStem: 96 288<0 100 300 401 500 600> 96 96<100 300 401 500> 384 96<100 300 401 500>
LayerCount: 2
Back
SplineSet
208.30078125 312.5 m 29
 208.30078125 104.19921875 l 25
 416.69921875 104.19921875 l 25
 416.69921875 312.5 l 25
 208.30078125 312.5 l 29
208.30078125 520.80078125 m 25
 208.30078125 416.69921875 l 25
 416.69921875 416.69921875 l 25
 416.69921875 520.80078125 l 25
 208.30078125 520.80078125 l 25
104.19921875 625 m 25
 416.69921875 625 l 25
 416.69921875 520.80078125 l 25
 520.80078125 520.80078125 l 25
 520.80078125 416.69921875 l 25
 416.69921875 416.69921875 l 25
 416.69921875 312.5 l 25
 520.80078125 312.5 l 25
 520.80078125 104.19921875 l 25
 416.69921875 104.19921875 l 25
 416.69921875 0 l 25
 104.19921875 0 l 25
 104.19921875 625 l 25
EndSplineSet
Fore
SplineSet
192 288 m 25xd0
 192 96 l 25xd0
 384 96 l 25
 384 288 l 25xe0
 192 288 l 25xd0
192 480 m 25
 192 384 l 25xd0
 384 384 l 25
 384 480 l 25xe0
 192 480 l 25
96 576 m 25xe0
 384 576 l 25
 384 480 l 25xe0
 480 480 l 25
 480 384 l 25xc8
 384 384 l 25
 384 288 l 25xe0
 480 288 l 25
 480 96 l 25xc8
 384 96 l 25
 384 0 l 25
 96 0 l 25
 96 576 l 25xe0
EndSplineSet
EndChar

StartChar: C
Encoding: 67 67 35
Width: 576
VWidth: 0
Flags: W
HStem: 0 96<201 500> 480 96<201 500>
VStem: 96 96<100 500> 192 288<0 100 500 600>
LayerCount: 2
Back
SplineSet
104.19921875 520.80078125 m 29
 208.30078125 520.80078125 l 25
 208.30078125 625 l 25
 520.80078125 625 l 25
 520.80078125 520.80078125 l 25
 208.30078125 520.80078125 l 25
 208.30078125 104.19921875 l 25
 520.80078125 104.19921875 l 25
 520.80078125 0 l 25
 208.30078125 0 l 25
 208.30078125 104.19921875 l 25
 104.19921875 104.19921875 l 25
 104.19921875 520.80078125 l 29
EndSplineSet
Fore
SplineSet
96 480 m 25xe0
 192 480 l 25xe0
 192 576 l 25
 480 576 l 25
 480 480 l 25xd0
 192 480 l 25
 192 96 l 25xe0
 480 96 l 25
 480 0 l 25
 192 0 l 25xd0
 192 96 l 25
 96 96 l 25
 96 480 l 25xe0
EndSplineSet
EndChar

StartChar: D
Encoding: 68 68 36
Width: 576
VWidth: 0
Flags: W
HStem: 0 96<201 401> 480 0G<401 500> 480 96<201 401>
VStem: 96 288<0 100 500 600> 96 96<100 500> 384 96<100 500>
LayerCount: 2
Back
SplineSet
104.19921875 625 m 29
 416.69921875 625 l 25
 416.69921875 520.80078125 l 25
 208.30078125 520.80078125 l 25
 208.30078125 104.19921875 l 25
 416.69921875 104.19921875 l 25
 416.69921875 520.80078125 l 25
 520.80078125 520.80078125 l 25
 520.80078125 104.19921875 l 25
 416.69921875 104.19921875 l 25
 416.69921875 0 l 25
 104.19921875 0 l 25
 104.19921875 625 l 29
EndSplineSet
Fore
SplineSet
96 576 m 25xb0
 384 576 l 25xb0
 384 480 l 25xd0
 192 480 l 25
 192 96 l 25xa8
 384 96 l 25
 384 480 l 25xd0
 480 480 l 25
 480 96 l 25xc4
 384 96 l 25
 384 0 l 25
 96 0 l 25
 96 576 l 25xb0
EndSplineSet
EndChar

StartChar: E
Encoding: 69 69 37
Width: 576
VWidth: 0
Flags: W
HStem: 0 96<201 500> 288 96<201 401> 480 96<201 500>
VStem: 96 96<100 300 401 500>
LayerCount: 2
Back
SplineSet
104.19921875 625 m 29
 520.80078125 625 l 25
 520.80078125 520.80078125 l 25
 208.30078125 520.80078125 l 25
 208.30078125 416.69921875 l 25
 416.69921875 416.69921875 l 25
 416.69921875 312.5 l 25
 208.30078125 312.5 l 25
 208.30078125 104.19921875 l 25
 520.80078125 104.19921875 l 25
 520.80078125 0 l 25
 104.19921875 0 l 25
 104.19921875 625 l 29
EndSplineSet
Fore
SplineSet
96 576 m 25
 480 576 l 25
 480 480 l 25
 192 480 l 25
 192 384 l 25
 384 384 l 25
 384 288 l 25
 192 288 l 25
 192 96 l 25
 480 96 l 25
 480 0 l 25
 96 0 l 25
 96 576 l 25
EndSplineSet
EndChar

StartChar: F
Encoding: 70 70 38
Width: 576
VWidth: 0
Flags: W
HStem: 0 0G<100 201> 288 96<201 401> 480 96<201 500>
VStem: 96 96<0 300 401 500>
LayerCount: 2
Back
SplineSet
104.19921875 625 m 29
 520.80078125 625 l 25
 520.80078125 520.80078125 l 25
 208.30078125 520.80078125 l 25
 208.30078125 416.69921875 l 25
 416.69921875 416.69921875 l 25
 416.69921875 312.5 l 25
 208.30078125 312.5 l 25
 208.30078125 0 l 25
 104.19921875 0 l 25
 104.19921875 625 l 29
EndSplineSet
Fore
SplineSet
96 576 m 25
 480 576 l 25
 480 480 l 25
 192 480 l 25
 192 384 l 25
 384 384 l 25
 384 288 l 25
 192 288 l 25
 192 0 l 25
 96 0 l 25
 96 576 l 25
EndSplineSet
EndChar

StartChar: G
Encoding: 71 71 39
Width: 576
VWidth: 0
Flags: W
HStem: 0 96<201 401> 480 96<201 500>
VStem: 96 96<100 500> 192 288<0 100 500 600> 384 96<100 300>
LayerCount: 2
Back
SplineSet
208.30078125 625 m 29
 520.80078125 625 l 25
 520.80078125 520.80078125 l 25
 208.30078125 520.80078125 l 25
 208.30078125 104.19921875 l 25
 416.69921875 104.19921875 l 25
 416.69921875 312.5 l 25
 520.80078125 312.5 l 25
 520.80078125 0 l 25
 208.30078125 0 l 25
 208.30078125 104.19921875 l 25
 104.19921875 104.19921875 l 25
 104.19921875 520.80078125 l 25
 208.30078125 520.80078125 l 25
 208.30078125 625 l 29
EndSplineSet
Fore
SplineSet
192 576 m 25xd0
 480 576 l 25
 480 480 l 25xd0
 192 480 l 25
 192 96 l 25
 384 96 l 25
 384 288 l 25
 480 288 l 25xe8
 480 0 l 25
 192 0 l 25xd0
 192 96 l 25
 96 96 l 25
 96 480 l 25
 192 480 l 25xe0
 192 576 l 25xd0
EndSplineSet
EndChar

StartChar: H
Encoding: 72 72 40
Width: 576
VWidth: 0
Flags: W
HStem: 0 0G<100 201 401 500> 192 96<201 401> 576 0G<100 201 401 500>
VStem: 96 96<0 201 300 600> 384 96<0 201 300 600>
LayerCount: 2
Back
SplineSet
104.19921875 625 m 29
 208.30078125 625 l 25
 208.30078125 312.5 l 25
 416.69921875 312.5 l 25
 416.69921875 625 l 25
 520.80078125 625 l 25
 520.80078125 0 l 25
 416.69921875 0 l 25
 416.69921875 208.30078125 l 25
 208.30078125 208.30078125 l 25
 208.30078125 0 l 25
 104.19921875 0 l 25
 104.19921875 625 l 29
EndSplineSet
Fore
SplineSet
96 576 m 25
 192 576 l 25
 192 288 l 25
 384 288 l 25
 384 576 l 25
 480 576 l 25
 480 0 l 25
 384 0 l 25
 384 192 l 25
 192 192 l 25
 192 0 l 25
 96 0 l 25
 96 576 l 25
EndSplineSet
EndChar

StartChar: I
Encoding: 73 73 41
Width: 576
VWidth: 0
Flags: W
HStem: -1440 2016G<300 401> -1440 2016G<300 401> 0 2112G<300 401>
VStem: 288 96<0 600>
LayerCount: 2
Back
SplineSet
312.5 625 m 29x88
 416.69921875 625 l 25x88
 416.69921875 0 l 25
 312.5 0 l 25x28
 312.5 625 l 29x88
EndSplineSet
Fore
SplineSet
288 576 m 25x90
 384 576 l 25x90
 384 0 l 25
 288 0 l 25x30
 288 576 l 25x90
EndSplineSet
EndChar

StartChar: J
Encoding: 74 74 42
Width: 576
VWidth: 0
Flags: W
HStem: 0 96<201 401> 576 0G<401 500>
VStem: 384 96<100 600>
LayerCount: 2
Back
SplineSet
416.69921875 625 m 29
 520.80078125 625 l 25
 520.80078125 104.19921875 l 25
 416.69921875 104.19921875 l 25
 416.69921875 0 l 25
 208.30078125 0 l 25
 208.30078125 104.19921875 l 25
 416.69921875 104.19921875 l 25
 416.69921875 625 l 29
EndSplineSet
Fore
SplineSet
384 576 m 25
 480 576 l 25
 480 96 l 25
 384 96 l 25
 384 0 l 25
 192 0 l 25
 192 96 l 25
 384 96 l 25
 384 576 l 25
EndSplineSet
EndChar

StartChar: K
Encoding: 75 75 43
Width: 576
VWidth: 0
Flags: W
HStem: 0 96<402 501> 96 96<300 402> 384 96<300 402> 480 96<402 501>
VStem: 97 192<201 401> 97 96<0 201 401 600> 289 96<100 201 401 500> 385 96<0 100 500 600>
LayerCount: 2
Back
SplineSet
104.19921875 625 m 29
 208.30078125 625 l 25
 208.30078125 416.69921875 l 25
 312.5 416.69921875 l 25
 312.5 520.80078125 l 25
 416.69921875 520.80078125 l 25
 416.69921875 625 l 25
 520.80078125 625 l 25
 520.80078125 520.80078125 l 25
 416.69921875 520.80078125 l 25
 416.69921875 416.69921875 l 25
 312.5 416.69921875 l 25
 312.5 208.30078125 l 25
 416.69921875 208.30078125 l 25
 416.69921875 104.19921875 l 25
 520.80078125 104.19921875 l 25
 520.80078125 0 l 25
 416.69921875 0 l 25
 416.69921875 104.19921875 l 25
 312.5 104.19921875 l 25
 312.5 208.30078125 l 25
 208.30078125 208.30078125 l 25
 208.30078125 0 l 25
 104.19921875 0 l 25
 104.19921875 625 l 29
EndSplineSet
Fore
SplineSet
97 576 m 25x94
 193 576 l 25x94
 193 384 l 25x24
 289 384 l 25x28
 289 480 l 25
 385 480 l 25x22
 385 576 l 25
 481 576 l 25
 481 480 l 25x11
 385 480 l 25
 385 384 l 25x22
 289 384 l 25
 289 192 l 25x68
 385 192 l 25x62
 385 96 l 25x82
 481 96 l 25
 481 0 l 25
 385 0 l 25x81
 385 96 l 25x82
 289 96 l 25x42
 289 192 l 25x48
 193 192 l 25x44
 193 0 l 25
 97 0 l 25
 97 576 l 25x94
EndSplineSet
EndChar

StartChar: L
Encoding: 76 76 44
Width: 576
VWidth: 0
Flags: W
HStem: 0 96<201 500> 576 0G<100 201>
VStem: 96 96<100 600>
LayerCount: 2
Back
SplineSet
104.19921875 625 m 29
 208.30078125 625 l 25
 208.30078125 104.19921875 l 25
 520.80078125 104.19921875 l 25
 520.80078125 0 l 25
 104.19921875 0 l 25
 104.19921875 625 l 29
EndSplineSet
Fore
SplineSet
96 576 m 25
 192 576 l 25
 192 96 l 25
 480 96 l 25
 480 0 l 25
 96 0 l 25
 96 576 l 25
EndSplineSet
EndChar

StartChar: M
Encoding: 77 77 45
Width: 576
VWidth: 0
Flags: W
HStem: 0 0G<100 201 500 600> 480 96<201 300 401 500>
VStem: 96 96<0 500> 288 96<300 500> 480 96<0 500>
LayerCount: 2
Back
SplineSet
104.19921875 625 m 29
 312.5 625 l 25
 312.5 520.80078125 l 25
 416.69921875 520.80078125 l 25
 416.69921875 625 l 25
 625 625 l 25
 625 0 l 25
 520.80078125 0 l 25
 520.80078125 520.80078125 l 25
 416.69921875 520.80078125 l 25
 416.69921875 312.5 l 25
 312.5 312.5 l 25
 312.5 520.80078125 l 25
 208.30078125 520.80078125 l 25
 208.30078125 0 l 25
 104.19921875 0 l 25
 104.19921875 625 l 29
EndSplineSet
Fore
SplineSet
96 576 m 25
 288 576 l 25
 288 480 l 25
 384 480 l 25
 384 576 l 25
 576 576 l 25
 576 0 l 25
 480 0 l 25
 480 480 l 25
 384 480 l 25
 384 288 l 25
 288 288 l 25
 288 480 l 25
 192 480 l 25
 192 0 l 25
 96 0 l 25
 96 576 l 25
EndSplineSet
EndChar

StartChar: N
Encoding: 78 78 46
Width: 576
VWidth: 0
Flags: W
HStem: 0 0G<100 201 401 500> 192 96<300 401> 288 96<201 300> 576 0G<100 201 401 500>
VStem: 96 96<0 300 401 600> 384 96<0 201 300 600>
LayerCount: 2
Back
SplineSet
104.19921875 625 m 29
 208.30078125 625 l 25
 208.30078125 416.69921875 l 25
 312.5 416.69921875 l 25
 312.5 312.5 l 25
 416.69921875 312.5 l 25
 416.69921875 625 l 25
 520.80078125 625 l 25
 520.80078125 0 l 25
 416.69921875 0 l 25
 416.69921875 208.30078125 l 25
 312.5 208.30078125 l 25
 312.5 312.5 l 25
 208.30078125 312.5 l 25
 208.30078125 0 l 25
 104.19921875 0 l 25
 104.19921875 625 l 29
EndSplineSet
Fore
SplineSet
96 576 m 25xbc
 192 576 l 25
 192 384 l 25
 288 384 l 25xbc
 288 288 l 25
 384 288 l 25
 384 576 l 25
 480 576 l 25
 480 0 l 25
 384 0 l 25
 384 192 l 25
 288 192 l 25
 288 288 l 25xdc
 192 288 l 25
 192 0 l 25
 96 0 l 25
 96 576 l 25xbc
EndSplineSet
EndChar

StartChar: O
Encoding: 79 79 47
Width: 576
VWidth: 0
Flags: W
HStem: -1536 2016G<401 500> -1536 2016G<401 500> 0 96<201 401> 480 96<201 401>
VStem: 96 96<100 500> 192 192<0 100 500 600>
LayerCount: 2
Back
SplineSet
208.30078125 625 m 29x0a
 416.69921875 625 l 25x0a
 416.69921875 520.80078125 l 25x82
 208.30078125 520.80078125 l 25
 208.30078125 104.19921875 l 25x0c
 416.69921875 104.19921875 l 25
 416.69921875 520.80078125 l 25
 520.80078125 520.80078125 l 25x82
 520.80078125 104.19921875 l 25
 416.69921875 104.19921875 l 25
 416.69921875 0 l 25
 208.30078125 0 l 25x22
 208.30078125 104.19921875 l 25
 104.19921875 104.19921875 l 25
 104.19921875 520.80078125 l 25
 208.30078125 520.80078125 l 25x0c
 208.30078125 625 l 29x0a
EndSplineSet
Fore
SplineSet
192 576 m 25x34
 384 576 l 25x34
 384 480 l 25x84
 192 480 l 25
 192 96 l 25x38
 384 96 l 25x34
 384 480 l 25
 480 480 l 25x84
 480 96 l 25
 384 96 l 25
 384 0 l 25
 192 0 l 25x24
 192 96 l 25
 96 96 l 25
 96 480 l 25
 192 480 l 25x38
 192 576 l 25x34
EndSplineSet
EndChar

StartChar: P
Encoding: 80 80 48
Width: 576
VWidth: 0
Flags: W
HStem: 0 0G<100 201> 192 96<201 401> 480 0G<401 500> 480 96<201 401>
VStem: 96 288<201 300 500 600> 96 96<0 201 300 500> 384 96<300 500>
LayerCount: 2
Back
SplineSet
104.19921875 625 m 29x06
 416.69921875 625 l 29x06
 416.69921875 520.80078125 l 29x82
 208.30078125 520.80078125 l 29
 208.30078125 312.5 l 29x0d
 416.69921875 312.5 l 29x0e
 416.69921875 520.80078125 l 29
 520.80078125 520.80078125 l 29x82
 520.80078125 312.5 l 29
 416.69921875 312.5 l 29
 416.69921875 208.30078125 l 29x0a
 208.30078125 208.30078125 l 29x09
 208.30078125 0 l 29
 104.19921875 0 l 29x21
 104.19921875 625 l 29x06
EndSplineSet
Fore
SplineSet
96 576 m 25xd8
 384 576 l 25xd8
 384 480 l 25xe8
 192 480 l 25
 192 288 l 25xd4
 384 288 l 25
 384 480 l 25xe8
 480 480 l 25
 480 288 l 25xe2
 384 288 l 25
 384 192 l 25xe8
 192 192 l 25
 192 0 l 25
 96 0 l 25xe4
 96 576 l 25xd8
EndSplineSet
EndChar

StartChar: Q
Encoding: 81 81 49
Width: 576
VWidth: 0
Flags: W
HStem: -96 96<401 500> 0 96<201 300> 480 0G<401 500> 480 96<201 401>
VStem: 96 96<100 500> 192 192<0 100 500 600> 384 96<100 500>
LayerCount: 2
Back
SplineSet
104.19921875 520.80078125 m 29
 208.30078125 520.80078125 l 25
 208.30078125 625 l 25
 416.69921875 625 l 25
 416.69921875 520.80078125 l 25
 208.30078125 520.80078125 l 25
 208.30078125 104.19921875 l 25
 416.69921875 104.19921875 l 25
 416.69921875 520.80078125 l 25
 520.80078125 520.80078125 l 25
 520.80078125 104.19921875 l 25
 416.69921875 104.19921875 l 25
 416.69921875 0 l 25
 520.80078125 0 l 25
 520.80078125 -104.19921875 l 25
 312.5 -104.19921875 l 25
 312.5 0 l 25
 208.30078125 0 l 25
 208.30078125 104.19921875 l 25
 104.19921875 104.19921875 l 25
 104.19921875 520.80078125 l 29
EndSplineSet
Fore
SplineSet
96 480 m 25x58
 192 480 l 25x58
 192 576 l 25
 384 576 l 25x54
 384 480 l 25x24
 192 480 l 25
 192 96 l 25x58
 384 96 l 25
 384 480 l 25x64
 480 480 l 25
 480 96 l 25x62
 384 96 l 25x64
 384 0 l 25x84
 480 0 l 25
 480 -96 l 25
 288 -96 l 25x82
 288 0 l 25
 192 0 l 25x44
 192 96 l 25
 96 96 l 25
 96 480 l 25x58
EndSplineSet
EndChar

StartChar: R
Encoding: 82 82 50
Width: 576
VWidth: 0
Flags: W
HStem: 0 96<401 500> 192 96<201 300> 480 0G<401 500> 480 96<201 401>
VStem: 96 96<0 201 300 500> 288 96<100 201> 384 96<0 100 300 500>
LayerCount: 2
Back
SplineSet
104.19921875 625 m 29
 416.69921875 625 l 25
 416.69921875 520.80078125 l 25
 208.30078125 520.80078125 l 25
 208.30078125 312.5 l 25
 416.69921875 312.5 l 25
 416.69921875 520.80078125 l 25
 520.80078125 520.80078125 l 25
 520.80078125 312.5 l 25
 416.69921875 312.5 l 25
 416.69921875 104.19921875 l 25
 520.80078125 104.19921875 l 25
 520.80078125 0 l 25
 416.69921875 0 l 25
 416.69921875 104.19921875 l 25
 312.5 104.19921875 l 25
 312.5 208.30078125 l 25
 208.30078125 208.30078125 l 25
 208.30078125 0 l 25
 104.19921875 0 l 25
 104.19921875 625 l 29
EndSplineSet
Fore
SplineSet
96 576 m 25xdc
 384 576 l 25xda
 384 480 l 25xea
 192 480 l 25xda
 192 288 l 25
 384 288 l 25
 384 480 l 25
 480 480 l 25
 480 288 l 25
 384 288 l 25xea
 384 96 l 25xec
 480 96 l 25
 480 0 l 25
 384 0 l 25xea
 384 96 l 25
 288 96 l 25
 288 192 l 25
 192 192 l 25
 192 0 l 25
 96 0 l 25
 96 576 l 25xdc
EndSplineSet
EndChar

StartChar: S
Encoding: 83 83 51
Width: 576
VWidth: 0
Flags: W
HStem: 0 96<100 401> 288 96<201 401> 480 96<201 500>
VStem: 96 96<401 500> 384 96<100 300>
LayerCount: 2
Back
SplineSet
208.30078125 625 m 29
 520.80078125 625 l 25
 520.80078125 520.80078125 l 25
 208.30078125 520.80078125 l 25
 208.30078125 416.69921875 l 25
 416.69921875 416.69921875 l 25
 416.69921875 312.5 l 25
 520.80078125 312.5 l 25
 520.80078125 104.19921875 l 25
 416.69921875 104.19921875 l 25
 416.69921875 0 l 25
 104.19921875 0 l 25
 104.19921875 104.19921875 l 25
 416.69921875 104.19921875 l 25
 416.69921875 312.5 l 25
 208.30078125 312.5 l 25
 208.30078125 416.69921875 l 25
 104.19921875 416.69921875 l 25
 104.19921875 520.80078125 l 25
 208.30078125 520.80078125 l 25
 208.30078125 625 l 29
EndSplineSet
Fore
SplineSet
192 576 m 25
 480 576 l 25
 480 480 l 25
 192 480 l 25
 192 384 l 25
 384 384 l 25
 384 288 l 25
 480 288 l 25
 480 96 l 25
 384 96 l 25
 384 0 l 25
 96 0 l 25
 96 96 l 25
 384 96 l 25
 384 288 l 25
 192 288 l 25
 192 384 l 25
 96 384 l 25
 96 480 l 25
 192 480 l 25
 192 576 l 25
EndSplineSet
EndChar

StartChar: T
Encoding: 84 84 52
Width: 576
VWidth: 0
Flags: W
HStem: 0 0G<300 401> 480 96<100 300 401 600>
VStem: 288 96<0 500>
LayerCount: 2
Back
SplineSet
104.19921875 625 m 29
 625 625 l 25
 625 520.80078125 l 25
 416.69921875 520.80078125 l 25
 416.69921875 0 l 25
 312.5 0 l 25
 312.5 520.80078125 l 25
 104.19921875 520.80078125 l 25
 104.19921875 625 l 29
EndSplineSet
Fore
SplineSet
96 576 m 25
 576 576 l 25
 576 480 l 25
 384 480 l 25
 384 0 l 25
 288 0 l 25
 288 480 l 25
 96 480 l 25
 96 576 l 25
EndSplineSet
EndChar

StartChar: U
Encoding: 85 85 53
Width: 576
VWidth: 0
Flags: W
HStem: 0 96<201 401> 576 0G<100 201 401 500>
VStem: 96 96<100 600> 384 96<100 600>
LayerCount: 2
Back
SplineSet
104.19921875 625 m 29
 208.30078125 625 l 25
 208.30078125 104.19921875 l 25
 416.69921875 104.19921875 l 25
 416.69921875 625 l 25
 520.80078125 625 l 25
 520.80078125 0 l 25
 208.30078125 0 l 25
 208.30078125 104.19921875 l 25
 104.19921875 104.19921875 l 25
 104.19921875 625 l 29
EndSplineSet
Fore
SplineSet
96 576 m 25
 192 576 l 25
 192 96 l 25
 384 96 l 25
 384 576 l 25
 480 576 l 25
 480 0 l 25
 192 0 l 25
 192 96 l 25
 96 96 l 25
 96 576 l 25
EndSplineSet
EndChar

StartChar: V
Encoding: 86 86 54
Width: 576
VWidth: 0
Flags: W
HStem: 0 192<201 401> 576 0G<100 201 401 500>
VStem: 96 96<201 600> 384 96<201 600>
LayerCount: 2
Back
SplineSet
104.19921875 625 m 29
 208.30078125 625 l 25
 208.30078125 208.30078125 l 25
 416.69921875 208.30078125 l 25
 416.69921875 625 l 25
 520.80078125 625 l 25
 520.80078125 208.30078125 l 25
 416.69921875 208.30078125 l 25
 416.69921875 0 l 25
 208.30078125 0 l 25
 208.30078125 208.30078125 l 25
 104.19921875 208.30078125 l 25
 104.19921875 625 l 29
EndSplineSet
Fore
SplineSet
96 576 m 25
 192 576 l 25
 192 192 l 25
 384 192 l 25
 384 576 l 25
 480 576 l 25
 480 192 l 25
 384 192 l 25
 384 0 l 25
 192 0 l 25
 192 192 l 25
 96 192 l 25
 96 576 l 25
EndSplineSet
EndChar

StartChar: W
Encoding: 87 87 55
Width: 576
VWidth: 0
Flags: W
HStem: 0 96<201 300 401 500> 576 0G<100 201 500 600>
VStem: 96 96<100 600> 288 96<100 300> 480 96<100 600>
LayerCount: 2
Back
SplineSet
104.19921875 625 m 29
 208.30078125 625 l 25
 208.30078125 104.19921875 l 25
 312.5 104.19921875 l 25
 312.5 312.5 l 25
 416.69921875 312.5 l 25
 416.69921875 104.19921875 l 25
 520.80078125 104.19921875 l 25
 520.80078125 625 l 25
 625 625 l 25
 625 104.19921875 l 25
 520.80078125 104.19921875 l 25
 520.80078125 0 l 25
 208.30078125 0 l 25
 208.30078125 104.19921875 l 25
 104.19921875 104.19921875 l 25
 104.19921875 625 l 29
EndSplineSet
Fore
SplineSet
96 576 m 25
 192 576 l 25
 192 96 l 25
 288 96 l 25
 288 288 l 25
 384 288 l 25
 384 96 l 25
 480 96 l 25
 480 576 l 25
 576 576 l 25
 576 96 l 25
 480 96 l 25
 480 0 l 25
 192 0 l 25
 192 96 l 25
 96 96 l 25
 96 576 l 25
EndSplineSet
EndChar

StartChar: X
Encoding: 88 88 56
Width: 576
VWidth: 0
Flags: W
HStem: 0 192<100 201 401 500> 384 192<100 201 401 500>
VStem: 96 96<0 201 401 600> 384 96<0 201 401 600>
LayerCount: 2
Back
SplineSet
104.19921875 625 m 29
 208.30078125 625 l 25
 208.30078125 416.69921875 l 25
 416.69921875 416.69921875 l 25
 416.69921875 625 l 25
 520.80078125 625 l 25
 520.80078125 416.69921875 l 25
 416.69921875 416.69921875 l 25
 416.69921875 208.30078125 l 25
 520.80078125 208.30078125 l 25
 520.80078125 0 l 25
 416.69921875 0 l 25
 416.69921875 208.30078125 l 25
 208.30078125 208.30078125 l 25
 208.30078125 0 l 25
 104.19921875 0 l 25
 104.19921875 208.30078125 l 25
 208.30078125 208.30078125 l 25
 208.30078125 416.69921875 l 25
 104.19921875 416.69921875 l 25
 104.19921875 625 l 29
EndSplineSet
Fore
SplineSet
96 576 m 25
 192 576 l 25
 192 384 l 25
 384 384 l 25
 384 576 l 25
 480 576 l 25
 480 384 l 25
 384 384 l 25
 384 192 l 25
 480 192 l 25
 480 0 l 25
 384 0 l 25
 384 192 l 25
 192 192 l 25
 192 0 l 25
 96 0 l 25
 96 192 l 25
 192 192 l 25
 192 384 l 25
 96 384 l 25
 96 576 l 25
EndSplineSet
EndChar

StartChar: Y
Encoding: 89 89 57
Width: 576
VWidth: 0
Flags: W
HStem: 0 0G<300 401> 288 96<201 300 401 500> 384 192<100 201 500 600>
VStem: 96 96<401 600> 192 96<300 401> 384 96<300 401> 480 96<401 600>
LayerCount: 2
Back
SplineSet
104.19921875 625 m 29
 208.30078125 625 l 25
 208.30078125 416.69921875 l 25
 312.5 416.69921875 l 25
 312.5 312.5 l 25
 416.69921875 312.5 l 25
 416.69921875 416.69921875 l 25
 520.80078125 416.69921875 l 25
 520.80078125 625 l 25
 625 625 l 25
 625 520.80078125 l 25
 625 416.69921875 l 25
 520.80078125 416.69921875 l 25
 520.80078125 312.5 l 25
 416.69921875 312.5 l 25
 416.69921875 0 l 25
 312.5 0 l 25
 312.5 312.5 l 25
 208.30078125 312.5 l 25
 208.30078125 416.69921875 l 25
 104.19921875 416.69921875 l 25
 104.19921875 625 l 29
EndSplineSet
Fore
SplineSet
96 576 m 25xb0
 192 576 l 25xb0
 192 384 l 25xd0
 288 384 l 25
 288 288 l 25
 384 288 l 25
 384 384 l 25
 480 384 l 25xcc
 480 576 l 25
 576 576 l 25
 576 480 l 25
 576 384 l 25xa2
 480 384 l 25
 480 288 l 25
 384 288 l 25
 384 0 l 25
 288 0 l 25
 288 288 l 25
 192 288 l 25xcc
 192 384 l 25xd0
 96 384 l 25
 96 576 l 25xb0
EndSplineSet
EndChar

StartChar: Z
Encoding: 90 90 58
Width: 576
VWidth: 0
Flags: W
HStem: 0 96<201 500> 192 96<201 300> 288 96<300 401> 480 96<100 401>
VStem: 96 96<100 201> 192 96<201 300> 288 96<300 401> 384 96<401 500>
LayerCount: 2
Back
SplineSet
104.19921875 625 m 29
 520.80078125 625 l 25
 520.80078125 416.69921875 l 25
 416.69921875 416.69921875 l 25
 416.69921875 312.5 l 25
 312.5 312.5 l 25
 312.5 208.30078125 l 25
 208.30078125 208.30078125 l 25
 208.30078125 104.19921875 l 25
 520.80078125 104.19921875 l 25
 520.80078125 0 l 25
 104.19921875 0 l 25
 104.19921875 208.30078125 l 25
 208.30078125 208.30078125 l 25
 208.30078125 312.5 l 25
 312.5 312.5 l 25
 312.5 416.69921875 l 25
 416.69921875 416.69921875 l 25
 416.69921875 520.80078125 l 25
 104.19921875 520.80078125 l 25
 104.19921875 625 l 29
EndSplineSet
Fore
SplineSet
96 576 m 25xb9
 480 576 l 25
 480 384 l 25xb9
 384 384 l 25
 384 288 l 25xb2
 288 288 l 25
 288 192 l 25xd4
 192 192 l 25
 192 96 l 25
 480 96 l 25
 480 0 l 25
 96 0 l 25
 96 192 l 25
 192 192 l 25xd9
 192 288 l 25
 288 288 l 25xd4
 288 384 l 25
 384 384 l 25xb2
 384 480 l 25
 96 480 l 25
 96 576 l 25xb9
EndSplineSet
EndChar

StartChar: bracketleft
Encoding: 91 91 59
Width: 576
VWidth: 0
Flags: W
HStem: -96 96<300 401> 576 96<300 401>
VStem: 192 192<-100 0 600 700> 192 96<0 600>
LayerCount: 2
Back
SplineSet
208.30078125 729.19921875 m 29
 416.69921875 729.19921875 l 25
 416.69921875 625 l 25
 312.5 625 l 25
 312.5 0 l 25
 416.69921875 0 l 25
 416.69921875 -104.19921875 l 25
 208.30078125 -104.19921875 l 25
 208.30078125 729.19921875 l 29
EndSplineSet
Fore
SplineSet
192 672 m 25xe0
 384 672 l 25
 384 576 l 25xe0
 288 576 l 25
 288 0 l 25xd0
 384 0 l 25
 384 -96 l 25
 192 -96 l 25
 192 672 l 25xe0
EndSplineSet
EndChar

StartChar: backslash
Encoding: 92 92 60
Width: 576
VWidth: 0
Flags: W
HStem: -96 0G<401 500> 672 0G<100 201>
VStem: 96 96<500 700> 192 96<300 500> 288 96<100 300> 384 96<-100 100>
LayerCount: 2
Back
SplineSet
104.19921875 729.19921875 m 29
 208.30078125 729.19921875 l 25
 208.30078125 520.80078125 l 25
 312.5 520.80078125 l 25
 312.5 312.5 l 25
 416.69921875 312.5 l 25
 416.69921875 104.19921875 l 25
 520.80078125 104.19921875 l 25
 520.80078125 -104.19921875 l 25
 416.69921875 -104.19921875 l 25
 416.69921875 104.19921875 l 25
 312.5 104.19921875 l 25
 312.5 312.5 l 25
 208.30078125 312.5 l 25
 208.30078125 520.80078125 l 25
 104.19921875 520.80078125 l 25
 104.19921875 729.19921875 l 29
EndSplineSet
Fore
SplineSet
96 672 m 25xe0
 192 672 l 25
 192 480 l 25xe0
 288 480 l 25
 288 288 l 25xd0
 384 288 l 25
 384 96 l 25xc8
 480 96 l 25
 480 -96 l 25
 384 -96 l 25xc4
 384 96 l 25
 288 96 l 25xc8
 288 288 l 25
 192 288 l 25xd0
 192 480 l 25
 96 480 l 25
 96 672 l 25xe0
EndSplineSet
EndChar

StartChar: bracketright
Encoding: 93 93 61
Width: 576
VWidth: 0
Flags: W
HStem: -96 96<201 300> 576 96<201 300>
VStem: 192 192<-100 0 600 700> 288 96<0 600>
LayerCount: 2
Back
SplineSet
208.30078125 729.19921875 m 29
 416.69921875 729.19921875 l 25
 416.69921875 -104.19921875 l 25
 208.30078125 -104.19921875 l 25
 208.30078125 0 l 25
 312.5 0 l 25
 312.5 625 l 25
 208.30078125 625 l 25
 208.30078125 729.19921875 l 29
EndSplineSet
Fore
SplineSet
192 672 m 25xe0
 384 672 l 25
 384 -96 l 25
 192 -96 l 25
 192 0 l 25xe0
 288 0 l 25
 288 576 l 25xd0
 192 576 l 25
 192 672 l 25xe0
EndSplineSet
EndChar

StartChar: asciicircum
Encoding: 94 94 62
Width: 576
VWidth: 0
Flags: W
HStem: 384 96<100 201 500 600> 480 96<201 300 401 500> 576 96<300 401>
VStem: 96 96<401 500> 192 96<500 600> 384 96<500 600> 480 96<401 500>
LayerCount: 2
Back
SplineSet
104.19921875 520.80078125 m 29
 208.30078125 520.80078125 l 25
 208.30078125 625 l 25
 312.5 625 l 25
 312.5 729.19921875 l 25
 416.69921875 729.19921875 l 25
 416.69921875 625 l 25
 520.80078125 625 l 25
 520.80078125 520.80078125 l 25
 625 520.80078125 l 25
 625 416.69921875 l 25
 520.80078125 416.69921875 l 25
 520.80078125 520.80078125 l 25
 416.69921875 520.80078125 l 25
 416.69921875 625 l 25
 312.5 625 l 25
 312.5 520.80078125 l 25
 208.30078125 520.80078125 l 25
 208.30078125 416.69921875 l 25
 104.19921875 416.69921875 l 25
 104.19921875 520.80078125 l 29
EndSplineSet
Fore
SplineSet
96 480 m 25x90
 192 480 l 25x90
 192 576 l 25
 288 576 l 25x48
 288 672 l 25
 384 672 l 25x2c
 384 576 l 25
 480 576 l 25x4c
 480 480 l 25x8c
 576 480 l 25
 576 384 l 25
 480 384 l 25x82
 480 480 l 25x84
 384 480 l 25
 384 576 l 25
 288 576 l 25
 288 480 l 25x4c
 192 480 l 25
 192 384 l 25
 96 384 l 25
 96 480 l 25x90
EndSplineSet
EndChar

StartChar: underscore
Encoding: 95 95 63
Width: 576
VWidth: 0
Flags: W
HStem: -96 96<100 600>
LayerCount: 2
Back
SplineSet
104.19921875 0 m 29
 625 0 l 25
 625 -104.19921875 l 25
 104.19921875 -104.19921875 l 25
 104.19921875 0 l 29
EndSplineSet
Fore
SplineSet
96 0 m 25
 576 0 l 25
 576 -96 l 25
 96 -96 l 25
 96 0 l 25
EndSplineSet
EndChar

StartChar: grave
Encoding: 96 96 64
Width: 576
VWidth: 0
Flags: W
LayerCount: 2
Back
SplineSet
208.30078125 729.19921875 m 29
 208.30078125 520.80078125 l 25
 312.5 520.80078125 l 25
 312.5 416.69921875 l 25
 416.69921875 416.69921875 l 25
 416.69921875 520.80078125 l 25
 312.5 520.80078125 l 25
 312.5 729.19921875 l 25
 208.30078125 729.19921875 l 29
EndSplineSet
Fore
SplineSet
192 672 m 25
 192 480 l 25
 288 480 l 25
 288 384 l 25
 384 384 l 25
 384 480 l 25
 288 480 l 25
 288 672 l 25
 192 672 l 25
EndSplineSet
EndChar

StartChar: a
Encoding: 97 97 65
Width: 576
VWidth: 0
Flags: W
LayerCount: 2
Back
SplineSet
520.80078125 104.19921875 m 29
 520.80078125 0 l 25
 625 0 l 25
 625 104.19921875 l 25
 520.80078125 104.19921875 l 29
208.30078125 104.19921875 m 25
 208.30078125 0 l 25
 416.69921875 0 l 25
 416.69921875 104.19921875 l 25
 208.30078125 104.19921875 l 25
208.30078125 520.80078125 m 25
 208.30078125 416.69921875 l 25
 416.69921875 416.69921875 l 25
 416.69921875 104.19921875 l 25
 520.80078125 104.19921875 l 25
 520.80078125 520.80078125 l 25
 208.30078125 520.80078125 l 25
104.19921875 416.69921875 m 25
 104.19921875 104.19921875 l 25
 208.30078125 104.19921875 l 25
 208.30078125 416.69921875 l 25
 104.19921875 416.69921875 l 25
EndSplineSet
Fore
SplineSet
480 96 m 25
 480 0 l 25
 576 0 l 25
 576 96 l 25
 480 96 l 25
192 96 m 25
 192 0 l 25
 384 0 l 25
 384 96 l 25
 192 96 l 25
192 480 m 25
 192 384 l 25
 384 384 l 25
 384 96 l 25
 480 96 l 25
 480 480 l 25
 192 480 l 25
96 384 m 25
 96 96 l 25
 192 96 l 25
 192 384 l 25
 96 384 l 25
EndSplineSet
EndChar

StartChar: b
Encoding: 98 98 66
Width: 576
VWidth: 0
Flags: W
HStem: 0 96<201 401> 384 96<201 401> 672 0G<100 201>
VStem: 96 288<0 100 401 500> 96 96<100 401 500 700> 384 96<100 401>
LayerCount: 2
Back
SplineSet
416.69921875 104.19921875 m 29
 416.69921875 416.69921875 l 25
 520.80078125 416.69921875 l 25
 520.80078125 104.19921875 l 25
 416.69921875 104.19921875 l 29
104.19921875 0 m 25
 104.19921875 729.19921875 l 25
 208.30078125 729.19921875 l 25
 208.30078125 520.80078125 l 25
 416.69921875 520.80078125 l 25
 416.69921875 416.69921875 l 25
 208.30078125 416.69921875 l 25
 208.30078125 104.19921875 l 25
 416.69921875 104.19921875 l 25
 416.69921875 0 l 25
 104.19921875 0 l 25
EndSplineSet
Fore
SplineSet
384 96 m 25xf0
 384 384 l 25xf0
 480 384 l 25
 480 96 l 25xe4
 384 96 l 25xf0
96 0 m 25
 96 672 l 25
 192 672 l 25
 192 480 l 25xe8
 384 480 l 25
 384 384 l 25xf0
 192 384 l 25
 192 96 l 25xe8
 384 96 l 25
 384 0 l 25
 96 0 l 25
EndSplineSet
EndChar

StartChar: c
Encoding: 99 99 67
Width: 576
VWidth: 0
Flags: W
HStem: 0 96<201 500> 384 96<201 500>
VStem: 96 96<100 401> 192 288<0 100 401 500>
LayerCount: 2
Back
SplineSet
208.30078125 520.80078125 m 29
 520.80078125 520.80078125 l 25
 520.80078125 416.69921875 l 25
 208.30078125 416.69921875 l 25
 208.30078125 104.19921875 l 25
 520.80078125 104.19921875 l 25
 520.80078125 0 l 25
 208.30078125 0 l 25
 208.30078125 104.19921875 l 25
 104.19921875 104.19921875 l 25
 104.19921875 416.69921875 l 25
 208.30078125 416.69921875 l 25
 208.30078125 520.80078125 l 29
EndSplineSet
Fore
SplineSet
192 480 m 25xd0
 480 480 l 25
 480 384 l 25xd0
 192 384 l 25
 192 96 l 25xe0
 480 96 l 25
 480 0 l 25
 192 0 l 25xd0
 192 96 l 25
 96 96 l 25
 96 384 l 25
 192 384 l 25xe0
 192 480 l 25xd0
EndSplineSet
EndChar

StartChar: d
Encoding: 100 100 68
Width: 576
VWidth: 0
Flags: W
HStem: 0 96<201 401> 384 96<201 401> 672 0G<401 500>
VStem: 96 96<100 401> 192 288<0 100 401 500> 384 96<100 401 500 700>
LayerCount: 2
Back
SplineSet
208.30078125 520.80078125 m 29
 416.69921875 520.80078125 l 25
 416.69921875 729.19921875 l 25
 520.80078125 729.19921875 l 25
 520.80078125 0 l 25
 208.30078125 0 l 25
 208.30078125 104.19921875 l 25
 416.69921875 104.19921875 l 25
 416.69921875 416.69921875 l 25
 208.30078125 416.69921875 l 25
 208.30078125 104.19921875 l 25
 104.19921875 104.19921875 l 25
 104.19921875 416.69921875 l 25
 208.30078125 416.69921875 l 25
 208.30078125 520.80078125 l 29
EndSplineSet
Fore
SplineSet
192 480 m 25xe8
 384 480 l 25
 384 672 l 25
 480 672 l 25xe4
 480 0 l 25
 192 0 l 25xe8
 192 96 l 25
 384 96 l 25
 384 384 l 25
 192 384 l 25
 192 96 l 25
 96 96 l 25
 96 384 l 25
 192 384 l 25xf4
 192 480 l 25xe8
EndSplineSet
EndChar

StartChar: e
Encoding: 101 101 69
Width: 576
VWidth: 0
Flags: W
HStem: 0 96<201 500> 192 96<201 401> 384 96<201 401>
VStem: 96 96<100 201 300 401> 384 96<300 401>
LayerCount: 2
Back
SplineSet
208.30078125 520.80078125 m 29
 416.69921875 520.80078125 l 25
 416.69921875 416.69921875 l 25
 208.30078125 416.69921875 l 25
 208.30078125 312.5 l 25
 416.69921875 312.5 l 25
 416.69921875 416.69921875 l 25
 520.80078125 416.69921875 l 25
 520.80078125 208.30078125 l 25
 208.30078125 208.30078125 l 25
 208.30078125 104.19921875 l 25
 520.80078125 104.19921875 l 25
 520.80078125 0 l 25
 208.30078125 0 l 25
 208.30078125 104.19921875 l 25
 104.19921875 104.19921875 l 25
 104.19921875 416.69921875 l 25
 208.30078125 416.69921875 l 25
 208.30078125 520.80078125 l 29
EndSplineSet
Fore
SplineSet
192 480 m 25
 384 480 l 25
 384 384 l 25
 192 384 l 25
 192 288 l 25
 384 288 l 25
 384 384 l 25
 480 384 l 25
 480 192 l 25
 192 192 l 25
 192 96 l 25
 480 96 l 25
 480 0 l 25
 192 0 l 25
 192 96 l 25
 96 96 l 25
 96 384 l 25
 192 384 l 25
 192 480 l 25
EndSplineSet
EndChar

StartChar: f
Encoding: 102 102 70
Width: 576
VWidth: 0
Flags: W
HStem: 0 0G<201 300> 384 96<300 500> 576 96<300 500>
VStem: 192 96<0 401 500 600>
LayerCount: 2
Back
SplineSet
208.30078125 625 m 29
 312.5 625 l 25
 312.5 729.19921875 l 25
 520.80078125 729.19921875 l 25
 520.80078125 625 l 25
 312.5 625 l 25
 312.5 520.80078125 l 25
 520.80078125 520.80078125 l 25
 520.80078125 416.69921875 l 25
 312.5 416.69921875 l 25
 312.5 0 l 25
 208.30078125 0 l 25
 208.30078125 625 l 29
EndSplineSet
Fore
SplineSet
192 576 m 25
 288 576 l 25
 288 672 l 25
 480 672 l 25
 480 576 l 25
 288 576 l 25
 288 480 l 25
 480 480 l 25
 480 384 l 25
 288 384 l 25
 288 0 l 25
 192 0 l 25
 192 576 l 25
EndSplineSet
EndChar

StartChar: g
Encoding: 103 103 71
Width: 576
VWidth: 0
Flags: W
HStem: -96 96<201 401> 96 96<201 401> 384 96<201 401>
VStem: 96 96<201 401> 192 288<100 201 401 500> 384 96<0 100 201 401>
LayerCount: 2
Back
SplineSet
104.19921875 416.69921875 m 29
 208.30078125 416.69921875 l 25
 208.30078125 520.80078125 l 25
 520.80078125 520.80078125 l 25
 520.80078125 0 l 25
 416.69921875 0 l 25
 416.69921875 -104.19921875 l 25
 208.30078125 -104.19921875 l 25
 208.30078125 0 l 25
 416.69921875 0 l 25
 416.69921875 104.19921875 l 25
 208.30078125 104.19921875 l 25
 208.30078125 208.30078125 l 25
 416.69921875 208.30078125 l 25
 416.69921875 416.69921875 l 25
 208.30078125 416.69921875 l 25
 208.30078125 208.30078125 l 25
 104.19921875 208.30078125 l 25
 104.19921875 416.69921875 l 29
EndSplineSet
Fore
SplineSet
96 384 m 25
 192 384 l 25
 192 96 l 25
 384 96 l 25
 384 384 l 25
 192 384 l 25
 192 480 l 25
 480 480 l 25
 480 -96 l 25
 384 -96 l 25
 384 -192 l 25
 192 -192 l 25
 192 -96 l 25
 384 -96 l 25
 384 0 l 25
 192 0 l 25
 192 96 l 25
 96 96 l 25
 96 384 l 25
EndSplineSet
EndChar

StartChar: h
Encoding: 104 104 72
Width: 576
VWidth: 0
Flags: W
HStem: 0 0G<100 201 401 500> 384 96<201 401> 672 0G<100 201>
VStem: 96 96<0 401 500 700> 384 96<0 401>
LayerCount: 2
Back
SplineSet
104.19921875 729.19921875 m 29
 208.30078125 729.19921875 l 25
 208.30078125 520.80078125 l 25
 416.69921875 520.80078125 l 25
 416.69921875 416.69921875 l 25
 520.80078125 416.69921875 l 25
 520.80078125 0 l 25
 416.69921875 0 l 25
 416.69921875 416.69921875 l 25
 208.30078125 416.69921875 l 25
 208.30078125 0 l 25
 104.19921875 0 l 25
 104.19921875 729.19921875 l 29
EndSplineSet
Fore
SplineSet
96 672 m 25
 192 672 l 25
 192 480 l 25
 384 480 l 25
 384 384 l 25
 480 384 l 25
 480 0 l 25
 384 0 l 25
 384 384 l 25
 192 384 l 25
 192 0 l 25
 96 0 l 25
 96 672 l 25
EndSplineSet
EndChar

StartChar: i
Encoding: 105 105 73
Width: 576
VWidth: 0
Flags: W
HStem: 0 0G<300 401> 480 0G<300 401> 576 96<300 401>
VStem: 288 96<0 500 600 700>
LayerCount: 2
Back
SplineSet
312.5 520.80078125 m 29
 416.69921875 520.80078125 l 25
 416.69921875 0 l 25
 312.5 0 l 25
 312.5 520.80078125 l 29
312.5 729.19921875 m 25
 416.69921875 729.19921875 l 25
 416.69921875 625 l 25
 312.5 625 l 25
 312.5 729.19921875 l 25
EndSplineSet
Fore
SplineSet
288 480 m 25
 384 480 l 25
 384 0 l 25
 288 0 l 25
 288 480 l 25
288 672 m 25
 384 672 l 25
 384 576 l 25
 288 576 l 25
 288 672 l 25
EndSplineSet
EndChar

StartChar: j
Encoding: 106 106 74
Width: 576
VWidth: 0
Flags: W
HStem: -96 96<201 300> 480 0G<300 401> 576 96<300 401>
VStem: 192 96<-100 0> 288 96<0 500 600 700>
LayerCount: 2
Back
SplineSet
312.5 520.80078125 m 29
 416.69921875 520.80078125 l 25
 416.69921875 0 l 25
 312.5 0 l 25
 312.5 -104.19921875 l 25
 208.30078125 -104.19921875 l 25
 208.30078125 0 l 25
 312.5 0 l 25
 312.5 520.80078125 l 29
312.5 729.19921875 m 25
 416.69921875 729.19921875 l 25
 416.69921875 625 l 25
 312.5 625 l 25
 312.5 729.19921875 l 25
EndSplineSet
Fore
SplineSet
288 480 m 25xe8
 384 480 l 25
 384 0 l 25xe8
 288 0 l 25
 288 -96 l 25
 192 -96 l 25
 192 0 l 25
 288 0 l 25xf0
 288 480 l 25xe8
288 672 m 25
 384 672 l 25
 384 576 l 25
 288 576 l 25
 288 672 l 25
EndSplineSet
EndChar

StartChar: k
Encoding: 107 107 75
Width: 576
VWidth: 0
Flags: W
LayerCount: 2
Back
SplineSet
104.19921875 729.19921875 m 29
 208.30078125 729.19921875 l 25
 208.30078125 312.5 l 25
 312.5 312.5 l 25
 312.5 416.69921875 l 25
 416.69921875 416.69921875 l 25
 416.69921875 520.80078125 l 25
 520.80078125 520.80078125 l 25
 520.80078125 416.69921875 l 25
 416.69921875 416.69921875 l 25
 416.69921875 312.5 l 25
 312.5 312.5 l 25
 312.5 208.30078125 l 25
 416.69921875 208.30078125 l 25
 416.69921875 104.19921875 l 25
 520.80078125 104.19921875 l 25
 520.80078125 0 l 25
 416.69921875 0 l 25
 416.69921875 104.19921875 l 25
 312.5 104.19921875 l 25
 312.5 208.30078125 l 25
 208.30078125 208.30078125 l 25
 208.30078125 0 l 25
 104.19921875 0 l 25
 104.19921875 729.19921875 l 29
EndSplineSet
Fore
SplineSet
97 672 m 25x8e
 193 672 l 29
 193 288 l 25
 289 288 l 25
 289 384 l 25
 385 384 l 25xae
 385 480 l 25
 481 480 l 25
 481 384 l 25x1d
 385 384 l 25
 385 288 l 25
 289 288 l 25
 289 192 l 25
 385 192 l 25x6e
 385 96 l 25x8e
 481 96 l 25
 481 0 l 25
 385 0 l 25x8d
 385 96 l 25x8e
 289 96 l 25
 289 192 l 25
 193 192 l 25x4e
 193 0 l 25
 97 0 l 25
 97 672 l 25x8e
EndSplineSet
EndChar

StartChar: l
Encoding: 108 108 76
Width: 576
VWidth: 0
Flags: W
HStem: 0 96<300 500> 672 0G<201 300>
VStem: 192 96<100 700>
LayerCount: 2
Back
SplineSet
208.30078125 729.19921875 m 29
 312.5 729.19921875 l 25
 312.5 104.19921875 l 25
 520.80078125 104.19921875 l 25
 520.80078125 0 l 25
 312.5 0 l 25
 312.5 104.19921875 l 25
 208.30078125 104.19921875 l 25
 208.30078125 729.19921875 l 29
EndSplineSet
Fore
SplineSet
192 672 m 25
 288 672 l 25
 288 96 l 25
 480 96 l 25
 480 0 l 25
 288 0 l 25
 288 96 l 25
 192 96 l 25
 192 672 l 25
EndSplineSet
EndChar

StartChar: m
Encoding: 109 109 77
Width: 576
VWidth: 0
Flags: W
HStem: 0 0G<100 201 500 600> 384 96<201 300 401 500>
VStem: 96 96<0 401> 288 96<100 401> 480 96<0 401>
LayerCount: 2
Back
SplineSet
104.19921875 0 m 29
 104.19921875 520.80078125 l 25
 520.80078125 520.80078125 l 25
 520.80078125 416.69921875 l 25
 625 416.69921875 l 25
 625 0 l 25
 520.80078125 0 l 25
 520.80078125 416.69921875 l 25
 416.69921875 416.69921875 l 25
 416.69921875 104.19921875 l 25
 312.5 104.19921875 l 25
 312.5 416.69921875 l 25
 208.30078125 416.69921875 l 25
 208.30078125 0 l 25
 104.19921875 0 l 29
EndSplineSet
Fore
SplineSet
96 0 m 25
 96 480 l 25
 480 480 l 25
 480 384 l 25
 576 384 l 25
 576 0 l 25
 480 0 l 25
 480 384 l 25
 384 384 l 25
 384 96 l 25
 288 96 l 25
 288 384 l 25
 192 384 l 25
 192 0 l 25
 96 0 l 25
EndSplineSet
EndChar

StartChar: n
Encoding: 110 110 78
Width: 576
VWidth: 0
Flags: W
HStem: 0 0G<100 201 401 500> 384 96<201 401>
VStem: 96 96<0 401> 384 96<0 401>
LayerCount: 2
Back
SplineSet
104.19921875 520.80078125 m 29
 416.69921875 520.80078125 l 25
 416.69921875 416.69921875 l 25
 520.80078125 416.69921875 l 25
 520.80078125 0 l 25
 416.69921875 0 l 25
 416.69921875 416.69921875 l 25
 208.30078125 416.69921875 l 25
 208.30078125 0 l 25
 104.19921875 0 l 25
 104.19921875 520.80078125 l 29
EndSplineSet
Fore
SplineSet
96 480 m 25
 384 480 l 25
 384 384 l 25
 480 384 l 25
 480 0 l 25
 384 0 l 25
 384 384 l 25
 192 384 l 25
 192 0 l 25
 96 0 l 25
 96 480 l 25
EndSplineSet
EndChar

StartChar: o
Encoding: 111 111 79
Width: 576
VWidth: 0
Flags: W
HStem: 0 96<201 401> 96 288<100 201 401 500>
VStem: 96 96<100 401> 192 192<0 100 401 500>
LayerCount: 2
Back
SplineSet
208.30078125 520.80078125 m 29x28
 416.69921875 520.80078125 l 25
 416.69921875 416.69921875 l 25
 520.80078125 416.69921875 l 25
 520.80078125 104.19921875 l 25
 416.69921875 104.19921875 l 25x28
 416.69921875 0 l 25
 208.30078125 0 l 25x88
 208.30078125 104.19921875 l 25
 104.19921875 104.19921875 l 25
 104.19921875 416.69921875 l 25
 208.30078125 416.69921875 l 25
 208.30078125 104.19921875 l 25x30
 416.69921875 104.19921875 l 25
 416.69921875 416.69921875 l 25x28
 208.30078125 416.69921875 l 25x30
 208.30078125 520.80078125 l 29x28
EndSplineSet
Fore
SplineSet
192 480 m 25x50
 384 480 l 25
 384 384 l 25
 480 384 l 25
 480 96 l 25x50
 384 96 l 25
 384 0 l 25
 192 0 l 25x90
 192 96 l 25xa0
 96 96 l 25
 96 384 l 25
 192 384 l 25x60
 192 96 l 25xa0
 384 96 l 25x90
 384 384 l 25x50
 192 384 l 25x60
 192 480 l 25x50
EndSplineSet
EndChar

StartChar: p
Encoding: 112 112 80
Width: 576
VWidth: 0
Flags: W
HStem: -96 0G<100 201> 96 96<201 401> 384 96<201 401>
VStem: 96 288<100 201 401 500> 96 96<-100 100 201 401> 384 96<201 401>
LayerCount: 2
Back
SplineSet
104.19921875 520.80078125 m 29
 416.69921875 520.80078125 l 25
 416.69921875 416.69921875 l 25
 520.80078125 416.69921875 l 25
 520.80078125 208.30078125 l 25
 416.69921875 208.30078125 l 25
 416.69921875 416.69921875 l 25
 208.30078125 416.69921875 l 25
 208.30078125 208.30078125 l 25
 416.69921875 208.30078125 l 25
 416.69921875 104.19921875 l 25
 208.30078125 104.19921875 l 25
 208.30078125 -104.19921875 l 25
 104.19921875 -104.19921875 l 25
 104.19921875 520.80078125 l 29
EndSplineSet
Fore
SplineSet
96 480 m 25
 384 480 l 25
 384 384 l 25
 192 384 l 25
 192 96 l 25
 384 96 l 25
 384 384 l 25
 480 384 l 25
 480 96 l 25
 384 96 l 25
 384 0 l 25
 192 0 l 25
 192 -192 l 25
 96 -192 l 25
 96 480 l 25
EndSplineSet
EndChar

StartChar: q
Encoding: 113 113 81
Width: 576
VWidth: 0
Flags: W
HStem: -96 0G<401 500> 96 96<201 401> 384 96<201 401>
VStem: 96 96<201 401> 192 288<100 201 401 500> 384 96<-100 100 201 401>
LayerCount: 2
Back
SplineSet
208.30078125 520.80078125 m 29
 520.80078125 520.80078125 l 25
 520.80078125 -104.19921875 l 25
 416.69921875 -104.19921875 l 25
 416.69921875 104.19921875 l 25
 208.30078125 104.19921875 l 25
 208.30078125 208.30078125 l 25
 104.19921875 208.30078125 l 25
 104.19921875 416.69921875 l 25
 208.30078125 416.69921875 l 25
 208.30078125 208.30078125 l 25
 416.69921875 208.30078125 l 25
 416.69921875 416.69921875 l 25
 208.30078125 416.69921875 l 25
 208.30078125 520.80078125 l 29
EndSplineSet
Fore
SplineSet
96 384 m 25
 192 384 l 25
 192 96 l 25
 384 96 l 25
 384 384 l 25
 192 384 l 25
 192 480 l 25
 480 480 l 25
 480 -192 l 25
 384 -192 l 25
 384 0 l 25
 192 0 l 25
 192 96 l 25
 96 96 l 25
 96 384 l 25
EndSplineSet
EndChar

StartChar: r
Encoding: 114 114 82
Width: 576
VWidth: 0
Flags: W
HStem: 0 0G<201 300> 384 96<300 500>
VStem: 192 96<0 401>
LayerCount: 2
Back
SplineSet
312.5 520.80078125 m 29
 520.80078125 520.80078125 l 25
 520.80078125 416.69921875 l 25
 312.5 416.69921875 l 25
 312.5 0 l 25
 208.30078125 0 l 25
 208.30078125 416.69921875 l 25
 312.5 416.69921875 l 25
 312.5 520.80078125 l 29
EndSplineSet
Fore
SplineSet
288 480 m 25
 480 480 l 25
 480 384 l 25
 288 384 l 25
 288 0 l 25
 192 0 l 25
 192 384 l 25
 288 384 l 25
 288 480 l 25
EndSplineSet
EndChar

StartChar: s
Encoding: 115 115 83
Width: 576
VWidth: 0
Flags: W
HStem: 0 96<100 401> 192 96<201 401> 384 96<201 500>
VStem: 96 96<300 401> 384 96<100 201>
LayerCount: 2
Back
SplineSet
208.30078125 520.80078125 m 29
 520.80078125 520.80078125 l 25
 520.80078125 416.69921875 l 25
 208.30078125 416.69921875 l 25
 208.30078125 312.5 l 25
 416.69921875 312.5 l 25
 416.69921875 208.30078125 l 25
 520.80078125 208.30078125 l 25
 520.80078125 104.19921875 l 25
 416.69921875 104.19921875 l 25
 416.69921875 0 l 25
 104.19921875 0 l 25
 104.19921875 104.19921875 l 25
 416.69921875 104.19921875 l 25
 416.69921875 208.30078125 l 25
 208.30078125 208.30078125 l 25
 208.30078125 312.5 l 25
 104.19921875 312.5 l 25
 104.19921875 416.69921875 l 25
 208.30078125 416.69921875 l 25
 208.30078125 520.80078125 l 29
EndSplineSet
Fore
SplineSet
192 480 m 25
 480 480 l 25
 480 384 l 25
 192 384 l 25
 192 288 l 25
 384 288 l 25
 384 192 l 25
 480 192 l 25
 480 96 l 25
 384 96 l 25
 384 0 l 25
 96 0 l 25
 96 96 l 25
 384 96 l 25
 384 192 l 25
 192 192 l 25
 192 288 l 25
 96 288 l 25
 96 384 l 25
 192 384 l 25
 192 480 l 25
EndSplineSet
EndChar

StartChar: t
Encoding: 116 116 84
Width: 576
VWidth: 0
Flags: W
HStem: 0 96<300 500> 384 96<300 500> 672 0G<201 300>
VStem: 192 96<100 401 500 700>
LayerCount: 2
Back
SplineSet
208.30078125 729.19921875 m 29
 312.5 729.19921875 l 25
 312.5 520.80078125 l 25
 520.80078125 520.80078125 l 25
 520.80078125 416.69921875 l 25
 312.5 416.69921875 l 25
 312.5 104.19921875 l 25
 520.80078125 104.19921875 l 25
 520.80078125 0 l 25
 312.5 0 l 25
 312.5 104.19921875 l 25
 208.30078125 104.19921875 l 25
 208.30078125 729.19921875 l 29
EndSplineSet
Fore
SplineSet
192 672 m 25
 288 672 l 25
 288 480 l 25
 480 480 l 25
 480 384 l 25
 288 384 l 25
 288 96 l 25
 480 96 l 25
 480 0 l 25
 288 0 l 25
 288 96 l 25
 192 96 l 25
 192 672 l 25
EndSplineSet
EndChar

StartChar: u
Encoding: 117 117 85
Width: 576
VWidth: 0
Flags: W
HStem: 0 96<201 401> 480 0G<100 201 401 500>
VStem: 96 96<100 500> 384 96<100 500>
LayerCount: 2
Back
SplineSet
104.19921875 520.80078125 m 29
 208.30078125 520.80078125 l 25
 208.30078125 104.19921875 l 25
 416.69921875 104.19921875 l 25
 416.69921875 520.80078125 l 25
 520.80078125 520.80078125 l 25
 520.80078125 0 l 25
 208.30078125 0 l 25
 208.30078125 104.19921875 l 25
 104.19921875 104.19921875 l 25
 104.19921875 520.80078125 l 29
EndSplineSet
Fore
SplineSet
96 480 m 25
 192 480 l 25
 192 96 l 25
 384 96 l 25
 384 480 l 25
 480 480 l 25
 480 0 l 25
 192 0 l 25
 192 96 l 25
 96 96 l 25
 96 480 l 25
EndSplineSet
EndChar

StartChar: v
Encoding: 118 118 86
Width: 576
VWidth: 0
Flags: W
HStem: 0 192<201 401> 192 288<100 201 401 500>
VStem: 96 96<201 500> 384 96<201 500>
LayerCount: 2
Back
SplineSet
104.19921875 520.80078125 m 29
 208.30078125 520.80078125 l 25
 208.30078125 208.30078125 l 25
 416.69921875 208.30078125 l 25
 416.69921875 520.80078125 l 25
 520.80078125 520.80078125 l 25
 520.80078125 208.30078125 l 25
 416.69921875 208.30078125 l 25
 416.69921875 0 l 25
 208.30078125 0 l 25
 208.30078125 208.30078125 l 25
 104.19921875 208.30078125 l 25
 104.19921875 520.80078125 l 29
EndSplineSet
Fore
SplineSet
96 480 m 25x70
 192 480 l 25x70
 192 192 l 25
 384 192 l 25xb0
 384 480 l 25
 480 480 l 25
 480 192 l 25x70
 384 192 l 25
 384 0 l 25
 192 0 l 25
 192 192 l 25xb0
 96 192 l 25
 96 480 l 25x70
EndSplineSet
EndChar

StartChar: w
Encoding: 119 119 87
Width: 576
VWidth: 0
Flags: W
HStem: 0 96<201 300 401 500> 480 0G<100 201 500 600>
VStem: 96 96<100 500> 288 96<100 401> 480 96<100 500>
LayerCount: 2
Back
SplineSet
104.19921875 520.80078125 m 29
 208.30078125 520.80078125 l 25
 208.30078125 104.19921875 l 25
 312.5 104.19921875 l 25
 312.5 416.69921875 l 25
 416.69921875 416.69921875 l 25
 416.69921875 104.19921875 l 25
 520.80078125 104.19921875 l 25
 520.80078125 520.80078125 l 25
 625 520.80078125 l 25
 625 0 l 25
 208.30078125 0 l 25
 208.30078125 104.19921875 l 25
 104.19921875 104.19921875 l 25
 104.19921875 520.80078125 l 29
EndSplineSet
Fore
SplineSet
96 480 m 25
 192 480 l 25
 192 96 l 25
 288 96 l 25
 288 384 l 25
 384 384 l 25
 384 96 l 25
 480 96 l 25
 480 480 l 25
 576 480 l 25
 576 0 l 25
 192 0 l 25
 192 96 l 25
 96 96 l 25
 96 480 l 25
EndSplineSet
EndChar

StartChar: x
Encoding: 120 120 88
Width: 576
VWidth: 0
Flags: W
HStem: 0 192<100 201 401 500> 288 192<100 201 401 500>
VStem: 96 96<0 201 300 500> 384 96<0 201 300 500>
LayerCount: 2
Back
SplineSet
104.19921875 520.80078125 m 29
 208.30078125 520.80078125 l 25
 208.30078125 312.5 l 25
 416.69921875 312.5 l 25
 416.69921875 520.80078125 l 25
 520.80078125 520.80078125 l 25
 520.80078125 312.5 l 25
 416.69921875 312.5 l 25
 416.69921875 208.30078125 l 25
 520.80078125 208.30078125 l 25
 520.80078125 0 l 25
 416.69921875 0 l 25
 416.69921875 208.30078125 l 25
 208.30078125 208.30078125 l 25
 208.30078125 0 l 25
 104.19921875 0 l 25
 104.19921875 208.30078125 l 25
 208.30078125 208.30078125 l 25
 208.30078125 312.5 l 25
 104.19921875 312.5 l 25
 104.19921875 520.80078125 l 29
EndSplineSet
Fore
SplineSet
96 480 m 25
 192 480 l 25
 192 288 l 25
 384 288 l 25
 384 480 l 25
 480 480 l 25
 480 288 l 25
 384 288 l 25
 384 192 l 25
 480 192 l 25
 480 0 l 25
 384 0 l 25
 384 192 l 25
 192 192 l 25
 192 0 l 25
 96 0 l 25
 96 192 l 25
 192 192 l 25
 192 288 l 25
 96 288 l 25
 96 480 l 25
EndSplineSet
EndChar

StartChar: y
Encoding: 121 121 89
Width: 576
VWidth: 0
Flags: W
HStem: -96 96<201 401> 96 96<201 401> 480 0G<100 201 401 500>
VStem: 96 96<201 500> 384 96<0 100 201 500>
LayerCount: 2
Back
SplineSet
104.19921875 520.80078125 m 29
 208.30078125 520.80078125 l 25
 208.30078125 208.30078125 l 25
 416.69921875 208.30078125 l 25
 416.69921875 520.80078125 l 25
 520.80078125 520.80078125 l 25
 520.80078125 0 l 25
 416.69921875 0 l 25
 416.69921875 -104.19921875 l 25
 208.30078125 -104.19921875 l 25
 208.30078125 0 l 25
 416.69921875 0 l 25
 416.69921875 104.19921875 l 25
 208.30078125 104.19921875 l 25
 208.30078125 208.30078125 l 25
 104.19921875 208.30078125 l 25
 104.19921875 520.80078125 l 29
EndSplineSet
Fore
SplineSet
96 480 m 25
 192 480 l 25
 192 192 l 25
 384 192 l 25
 384 480 l 25
 480 480 l 25
 480 0 l 25
 384 0 l 25
 384 -96 l 25
 192 -96 l 25
 192 0 l 25
 384 0 l 25
 384 96 l 25
 192 96 l 25
 192 192 l 25
 96 192 l 25
 96 480 l 25
EndSplineSet
EndChar

StartChar: z
Encoding: 122 122 90
Width: 576
VWidth: 0
Flags: W
HStem: 0 96<201 500> 192 96<201 401> 384 96<100 401>
VStem: 96 96<100 201> 384 96<300 401>
LayerCount: 2
Back
SplineSet
104.19921875 520.80078125 m 29
 520.80078125 520.80078125 l 25
 520.80078125 312.5 l 25
 416.69921875 312.5 l 25
 416.69921875 208.30078125 l 25
 208.30078125 208.30078125 l 25
 208.30078125 104.19921875 l 25
 520.80078125 104.19921875 l 25
 520.80078125 0 l 25
 104.19921875 0 l 25
 104.19921875 208.30078125 l 25
 208.30078125 208.30078125 l 25
 208.30078125 312.5 l 25
 416.69921875 312.5 l 25
 416.69921875 416.69921875 l 25
 104.19921875 416.69921875 l 25
 104.19921875 520.80078125 l 29
EndSplineSet
Fore
SplineSet
96 480 m 25
 480 480 l 25
 480 288 l 25
 384 288 l 25
 384 192 l 25
 192 192 l 25
 192 96 l 25
 480 96 l 25
 480 0 l 25
 96 0 l 25
 96 192 l 25
 192 192 l 25
 192 288 l 25
 384 288 l 25
 384 384 l 25
 96 384 l 25
 96 480 l 25
EndSplineSet
EndChar

StartChar: braceleft
Encoding: 123 123 91
Width: 576
VWidth: 0
Flags: W
HStem: 0 96<401 500> 288 96<201 300> 576 96<401 500>
VStem: 192 96<300 401> 288 96<100 300 401 600> 384 96<0 100 600 700>
CounterMasks: 1 e0
LayerCount: 2
Back
SplineSet
416.69921875 729.19921875 m 29
 520.80078125 729.19921875 l 25
 520.80078125 625 l 25
 416.69921875 625 l 25
 416.69921875 416.69921875 l 25
 312.5 416.69921875 l 25
 312.5 312.5 l 25
 416.69921875 312.5 l 25
 416.69921875 104.19921875 l 25
 520.80078125 104.19921875 l 25
 520.80078125 0 l 25
 416.69921875 0 l 25
 416.69921875 104.19921875 l 25
 312.5 104.19921875 l 25
 312.5 312.5 l 25
 208.30078125 312.5 l 25
 208.30078125 416.69921875 l 25
 312.5 416.69921875 l 25
 312.5 625 l 25
 416.69921875 625 l 25
 416.69921875 729.19921875 l 29
EndSplineSet
Fore
SplineSet
384 672 m 25xe4
 480 672 l 25
 480 576 l 25xe4
 384 576 l 25
 384 384 l 25xe8
 288 384 l 25
 288 288 l 25xf0
 384 288 l 25
 384 96 l 25xe8
 480 96 l 25
 480 0 l 25
 384 0 l 25xe4
 384 96 l 25
 288 96 l 25xe8
 288 288 l 25
 192 288 l 25
 192 384 l 25
 288 384 l 25xf0
 288 576 l 25
 384 576 l 25xe8
 384 672 l 25xe4
EndSplineSet
EndChar

StartChar: bar
Encoding: 124 124 92
Width: 576
VWidth: 0
Flags: W
HStem: -96 0G<300 401> 576 0G<300 401>
VStem: 288 96<-100 600>
LayerCount: 2
Back
SplineSet
312.5 625 m 29
 416.69921875 625 l 25
 416.69921875 -104.19921875 l 25
 312.5 -104.19921875 l 25
 312.5 625 l 29
EndSplineSet
Fore
SplineSet
288 576 m 25
 384 576 l 25
 384 -96 l 25
 288 -96 l 25
 288 576 l 25
EndSplineSet
EndChar

StartChar: braceright
Encoding: 125 125 93
Width: 576
VWidth: 0
Flags: W
HStem: 0 96<100 201> 288 96<300 401> 576 96<100 201>
VStem: 96 96<0 100 600 700> 192 96<100 300 401 600> 288 96<300 401>
CounterMasks: 1 e0
LayerCount: 2
Back
SplineSet
104.19921875 729.19921875 m 29
 208.30078125 729.19921875 l 25
 208.30078125 625 l 25
 312.5 625 l 25
 312.5 416.69921875 l 25
 416.69921875 416.69921875 l 25
 416.69921875 312.5 l 25
 312.5 312.5 l 25
 312.5 104.19921875 l 25
 208.30078125 104.19921875 l 25
 208.30078125 0 l 25
 104.19921875 0 l 25
 104.19921875 104.19921875 l 25
 208.30078125 104.19921875 l 25
 208.30078125 312.5 l 25
 312.5 312.5 l 25
 312.5 416.69921875 l 25
 208.30078125 416.69921875 l 25
 208.30078125 625 l 25
 104.19921875 625 l 25
 104.19921875 729.19921875 l 29
EndSplineSet
Fore
SplineSet
96 672 m 25xf0
 192 672 l 25
 192 576 l 25xf0
 288 576 l 25
 288 384 l 25xe8
 384 384 l 25
 384 288 l 25xe4
 288 288 l 25
 288 96 l 25xe8
 192 96 l 25
 192 0 l 25
 96 0 l 25
 96 96 l 25
 192 96 l 25xf0
 192 288 l 25
 288 288 l 25
 288 384 l 25
 192 384 l 25xe8
 192 576 l 25
 96 576 l 25
 96 672 l 25xf0
EndSplineSet
EndChar

StartChar: asciitilde
Encoding: 126 126 94
Width: 576
VWidth: 0
Flags: W
HStem: 192 96<100 201 300 500> 288 96<201 300 500 600>
VStem: 96 96<201 300> 480 96<300 401>
LayerCount: 2
Back
SplineSet
104.19921875 312.5 m 29
 208.30078125 312.5 l 25
 208.30078125 416.69921875 l 25
 312.5 416.69921875 l 25
 312.5 312.5 l 25
 520.80078125 312.5 l 25
 520.80078125 416.69921875 l 25
 625 416.69921875 l 25
 625 312.5 l 25
 520.80078125 312.5 l 25
 520.80078125 208.30078125 l 25
 312.5 208.30078125 l 25
 312.5 312.5 l 25
 208.30078125 312.5 l 25
 208.30078125 208.30078125 l 25
 104.19921875 208.30078125 l 25
 104.19921875 312.5 l 29
EndSplineSet
Fore
SplineSet
96 288 m 25xb0
 192 288 l 25xb0
 192 384 l 25
 288 384 l 25x70
 288 288 l 25
 480 288 l 25xb0
 480 384 l 25
 576 384 l 25
 576 288 l 25x70
 480 288 l 25
 480 192 l 25
 288 192 l 25
 288 288 l 25
 192 288 l 25
 192 192 l 25
 96 192 l 25
 96 288 l 25xb0
EndSplineSet
EndChar

StartChar: exclamdown
Encoding: 161 161 96
Width: 576
VWidth: 0
Flags: W
HStem: -96 0G<300 401> 480 96<300 401>
VStem: 288 96<-100 401 500 600>
LayerCount: 2
Back
SplineSet
312.5 416.69921875 m 29
 416.69921875 416.69921875 l 25
 416.69921875 -104.19921875 l 25
 312.5 -104.19921875 l 25
 312.5 416.69921875 l 29
416.69921875 625 m 25
 416.69921875 520.80078125 l 25
 312.5 520.80078125 l 25
 312.5 625 l 25
 416.69921875 625 l 25
EndSplineSet
Fore
SplineSet
288 384 m 25
 384 384 l 25
 384 -96 l 25
 288 -96 l 25
 288 384 l 25
384 576 m 25
 384 480 l 25
 288 480 l 25
 288 576 l 25
 384 576 l 25
EndSplineSet
EndChar

StartChar: sterling
Encoding: 163 163 98
Width: 576
VWidth: 0
Flags: W
HStem: 0 96<100 201 300 600> 192 96<100 201 300 500> 480 96<300 600>
VStem: 192 96<100 201 300 500>
LayerCount: 2
Back
Fore
SplineSet
288 576 m 25
 576 576 l 25
 576 480 l 25
 288 480 l 25
 288 288 l 25
 480 288 l 25
 480 192 l 25
 288 192 l 25
 288 96 l 25
 576 96 l 25
 576 0 l 25
 96 0 l 25
 96 96 l 25
 192 96 l 25
 192 192 l 25
 96 192 l 25
 96 288 l 25
 192 288 l 25
 192 480 l 25
 288 480 l 25
 288 576 l 25
EndSplineSet
EndChar

StartChar: currency
Encoding: 256 164 99
Width: 576
VWidth: 0
Flags: W
HStem: 0 96<0 100 500 600> 480 96<0 100 500 600>
VStem: 0 96<0 100 500 600> 480 96<0 100 500 600>
LayerCount: 2
Back
Fore
SplineSet
192 384 m 25
 192 192 l 25
 384 192 l 25
 384 384 l 25
 192 384 l 25
0 576 m 25
 96 576 l 25
 96 480 l 25
 480 480 l 25
 480 576 l 25
 576 576 l 25
 576 480 l 25
 480 480 l 25
 480 96 l 25
 576 96 l 25
 576 0 l 25
 480 0 l 25
 480 96 l 25
 96 96 l 25
 96 0 l 25
 0 0 l 25
 0 96 l 25
 96 96 l 25
 96 480 l 25
 0 480 l 25
 0 576 l 25
EndSplineSet
EndChar

StartChar: yen
Encoding: 165 165 100
Width: 576
VWidth: 0
Flags: W
HStem: -96 0G<300 401> 0 96<201 300 401 500> 192 96<201 300 401 500> 384 96<201 300 401 500> 480 96<100 201 500 600>
VStem: 96 96<500 600> 192 96<401 500> 288 96<-100 0 100 201 300 401> 384 96<401 500> 480 96<500 600>
LayerCount: 2
Back
Fore
SplineSet
96 576 m 25xec
 192 576 l 25xec
 192 480 l 25xf4
 288 480 l 25
 288 384 l 25xf2
 384 384 l 25xf1
 384 480 l 25
 480 480 l 25xf080
 480 576 l 25
 576 576 l 25
 576 480 l 25xe840
 480 480 l 25
 480 384 l 25xf080
 384 384 l 25
 384 288 l 25
 480 288 l 25
 480 192 l 25
 384 192 l 25
 384 96 l 25
 480 96 l 25
 480 0 l 25
 384 0 l 25
 384 -96 l 25
 288 -96 l 25
 288 0 l 25xf140
 192 0 l 25
 192 96 l 25xf2
 288 96 l 25
 288 192 l 25xf1
 192 192 l 25
 192 288 l 25xf2
 288 288 l 25xf1
 288 384 l 25
 192 384 l 25xf2
 192 480 l 25xf4
 96 480 l 25
 96 576 l 25xec
EndSplineSet
EndChar

StartChar: brokenbar
Encoding: 257 166 101
Width: 576
VWidth: 0
Flags: W
HStem: -96 0G<300 401> 576 0G<300 401>
VStem: 288 96<-100 600>
LayerCount: 2
Back
Fore
SplineSet
288 576 m 25
 384 576 l 25
 384 -96 l 25
 288 -96 l 25
 288 576 l 25
EndSplineSet
EndChar

StartChar: section
Encoding: 167 167 102
Width: 576
VWidth: 0
Flags: W
HStem: -96 96<100 300> 96 96<201 300 401 500> 192 96<100 201 300 401> 384 96<300 500>
VStem: 96 96<201 300> 192 96<100 201 300 401> 288 96<0 100 201 300> 384 96<100 201>
LayerCount: 2
Back
Fore
SplineSet
192 480 m 25xb4
 480 480 l 25
 480 384 l 25
 288 384 l 25
 288 288 l 25xb5
 384 288 l 25xb2
 384 192 l 25xd2
 480 192 l 25
 480 96 l 25xd1
 384 96 l 25
 384 192 l 25xd2
 288 192 l 25xd4
 288 288 l 25xb4
 192 288 l 25xb8
 192 192 l 25xd8
 288 192 l 25
 288 96 l 25xd4
 384 96 l 25xd2
 384 -96 l 25xd1
 96 -96 l 25
 96 0 l 25
 288 0 l 25xda
 288 96 l 25
 192 96 l 25xd4
 192 192 l 25xd8
 96 192 l 25
 96 288 l 25
 192 288 l 25xb8
 192 480 l 25xb4
EndSplineSet
EndChar

StartChar: dieresis
Encoding: 258 168 103
Width: 576
VWidth: 0
Flags: W
HStem: 480 96<201 300 500 600>
VStem: 192 96<500 600> 480 96<500 600>
LayerCount: 2
Back
Fore
SplineSet
480 576 m 25
 576 576 l 25
 576 480 l 25
 480 480 l 25
 480 576 l 25
192 576 m 25
 288 576 l 25
 288 480 l 25
 192 480 l 25
 192 576 l 25
EndSplineSet
EndChar

StartChar: copyright
Encoding: 169 169 104
Width: 576
VWidth: 0
Flags: W
HStem: 0 96<201 401> 96 96<100 201 401 500> 192 96<201 401> 384 96<201 401> 480 96<100 201 401 500> 576 96<201 401>
VStem: 0 96<201 300 401 500> 96 96<100 201 500 600> 192 192<0 100 201 300 401 500 600 700> 384 96<100 201 500 600> 480 96<201 500>
LayerCount: 2
Back
Fore
SplineSet
192 672 m 25x0480
 384 672 l 25x0480
 384 576 l 25x0880
 192 576 l 25x09
 192 480 l 25x11
 96 480 l 25x0a
 96 384 l 25
 192 384 l 25
 192 288 l 25
 96 288 l 25x3280
 96 192 l 25x4280
 192 192 l 25x41
 192 96 l 25x81
 384 96 l 25x8080
 384 192 l 25x4080
 192 192 l 25x41
 192 288 l 25
 384 288 l 25x2080
 384 192 l 25x4080
 480 192 l 25
 480 480 l 25x4840
 384 480 l 25
 384 384 l 25
 192 384 l 25x1080
 192 480 l 25x11
 384 480 l 25x1080
 384 576 l 25x0880
 480 576 l 25
 480 480 l 25x0840
 576 480 l 25
 576 192 l 25x2820
 480 192 l 25
 480 96 l 25x4040
 384 96 l 25
 384 0 l 25
 192 0 l 25x8080
 192 96 l 25x81
 96 96 l 25x41
 96 192 l 25x42
 0 192 l 25
 0 480 l 25
 96 480 l 25x2a
 96 576 l 25
 192 576 l 25x29
 192 672 l 25x0480
EndSplineSet
EndChar

StartChar: ordfeminine
Encoding: 170 170 105
Width: 576
VWidth: 0
Flags: W
HStem: 96 96<201 300> 192 96<100 201> 288 96<201 300> 480 96<201 300>
VStem: 96 96<201 300> 192 96<500 600> 288 96<201 300 401 500>
LayerCount: 2
Back
Fore
SplineSet
192 576 m 25x34
 288 576 l 25
 288 480 l 25x34
 384 480 l 25
 384 96 l 25xb2
 192 96 l 25xb4
 192 192 l 25
 288 192 l 25
 288 288 l 25xba
 192 288 l 25x5a
 192 192 l 25x9a
 96 192 l 25
 96 288 l 25
 192 288 l 25x5a
 192 384 l 25x34
 288 384 l 25x32
 288 480 l 25
 192 480 l 25
 192 576 l 25x34
EndSplineSet
EndChar

StartChar: guillemotleft
Encoding: 171 171 106
Width: 576
VWidth: 0
Flags: W
HStem: 0 96<201 300 500 600> 96 96<100 201 401 500> 192 96<0 100 300 401> 288 96<100 201 401 500> 384 96<201 300 500 600>
VStem: 0 96<201 300> 96 96<100 201 300 401> 192 96<0 100 401 500> 288 96<201 300> 384 96<100 201 300 401> 480 96<0 100 401 500>
LayerCount: 2
Back
Fore
SplineSet
480 480 m 25x0820
 576 480 l 25
 576 384 l 25x0820
 480 384 l 25
 480 288 l 25x1040
 384 288 l 25x2080
 384 192 l 25x4080
 480 192 l 25x4040
 480 96 l 25x8040
 576 96 l 25
 576 0 l 25
 480 0 l 25x8020
 480 96 l 25x8040
 384 96 l 25x4040
 384 192 l 25x4080
 288 192 l 25
 288 288 l 25
 384 288 l 25x2080
 384 384 l 25
 480 384 l 25x1040
 480 480 l 25x0820
192 480 m 25x09
 288 480 l 25
 288 384 l 25x09
 192 384 l 25
 192 288 l 25x12
 96 288 l 25x24
 96 192 l 25x44
 192 192 l 25x42
 192 96 l 25x82
 288 96 l 25
 288 0 l 25
 192 0 l 25x81
 192 96 l 25x82
 96 96 l 25x42
 96 192 l 25x44
 0 192 l 25
 0 288 l 25
 96 288 l 25x24
 96 384 l 25
 192 384 l 25x12
 192 480 l 25x09
EndSplineSet
EndChar

StartChar: logicalnot
Encoding: 172 172 107
Width: 576
VWidth: 0
Flags: W
HStem: 0 0G<500 600> 192 96<100 500>
VStem: 480 96<0 201>
LayerCount: 2
Back
Fore
SplineSet
96 288 m 25
 576 288 l 25
 576 0 l 25
 480 0 l 25
 480 192 l 25
 96 192 l 25
 96 288 l 25
EndSplineSet
EndChar

StartChar: registered
Encoding: 174 174 108
Width: 576
VWidth: 0
Flags: W
HStem: 0 96<201 401> 96 96<100 201> 192 288<0 100 201 300 500 600> 480 96<100 201> 576 96<201 401>
VStem: 0 96<201 500> 96 96<100 201 500 600> 192 192<0 100 300 401 600 700> 192 96<201 300> 384 96<100 201 500 600> 480 96<300 401>
LayerCount: 2
Back
Fore
SplineSet
192 672 m 25x09
 384 672 l 25
 384 576 l 25x09
 192 576 l 25x12
 192 480 l 25x22
 96 480 l 25x24
 96 192 l 25x44
 192 192 l 25x42
 192 96 l 25x82
 384 96 l 25
 384 288 l 25
 480 288 l 25
 480 384 l 25
 384 384 l 25
 384 288 l 25x8120
 288 288 l 25
 288 192 l 25xa080
 192 192 l 25x42
 192 480 l 25x22
 384 480 l 25x1240
 384 576 l 25x09
 480 576 l 25
 480 480 l 25x2840
 576 480 l 25
 576 192 l 25x2820
 480 192 l 25x2840
 480 96 l 25x4040
 384 96 l 25
 384 0 l 25
 192 0 l 25x81
 192 96 l 25x82
 96 96 l 25x42
 96 192 l 25x44
 0 192 l 25
 0 480 l 25
 96 480 l 25x24
 96 576 l 25
 192 576 l 25x12
 192 672 l 25x09
EndSplineSet
EndChar

StartChar: macron
Encoding: 175 175 109
Width: 576
VWidth: 0
Flags: W
HStem: 480 96<201 500>
VStem: 192 288<500 600>
LayerCount: 2
Back
Fore
SplineSet
192 576 m 25
 480 576 l 25
 480 480 l 25
 192 480 l 25
 192 576 l 25
EndSplineSet
EndChar

StartChar: degree
Encoding: 176 176 110
Width: 576
VWidth: 0
Flags: W
HStem: 288 96<201 300> 384 96<100 201 300 401> 480 96<201 300>
VStem: 96 96<401 500> 192 96<300 401 500 600> 288 96<401 500>
LayerCount: 2
Back
Fore
SplineSet
192 576 m 25x28
 288 576 l 25x28
 288 480 l 25x48
 192 480 l 25x50
 192 384 l 25x90
 288 384 l 25x88
 288 480 l 25x48
 384 480 l 25
 384 384 l 25x44
 288 384 l 25
 288 288 l 25
 192 288 l 25x88
 192 384 l 25x90
 96 384 l 25
 96 480 l 25
 192 480 l 25x50
 192 576 l 25x28
EndSplineSet
EndChar

StartChar: plusminus
Encoding: 177 177 111
Width: 576
VWidth: 0
Flags: W
HStem: 96 96<201 500> 384 96<201 300 401 500> 576 0G<300 401>
VStem: 192 288<100 201 401 500> 288 96<300 401 500 600>
LayerCount: 2
Back
Fore
SplineSet
192 192 m 25xf0
 480 192 l 25
 480 96 l 25
 192 96 l 25
 192 192 l 25xf0
288 576 m 25xe8
 384 576 l 25
 384 480 l 25xe8
 480 480 l 25
 480 384 l 25xf0
 384 384 l 25
 384 288 l 25
 288 288 l 25
 288 384 l 25xe8
 192 384 l 25
 192 480 l 25xf0
 288 480 l 25
 288 576 l 25xe8
EndSplineSet
EndChar

StartChar: uni00B2
Encoding: 178 178 112
Width: 576
VWidth: 0
Flags: W
HStem: 288 96<100 201 300 401> 576 96<100 201> 672 96<201 300>
VStem: 96 96<600 700> 192 96<401 500 700 801> 288 96<500 700>
LayerCount: 2
Back
Fore
SplineSet
96 576 m 25xd0
 96 672 l 25
 192 672 l 25xd0
 192 768 l 25
 288 768 l 25
 288 672 l 25xa8
 384 672 l 25
 384 480 l 25xa4
 288 480 l 25
 288 384 l 25xa8
 384 384 l 25
 384 288 l 25
 96 288 l 25
 96 384 l 25xb4
 192 384 l 25
 192 480 l 25
 288 480 l 25
 288 672 l 25xa8
 192 672 l 25
 192 576 l 25
 96 576 l 25xd0
EndSplineSet
EndChar

StartChar: uni00B3
Encoding: 179 179 113
Width: 576
VWidth: 0
Flags: W
HStem: 288 96<100 300> 480 96<100 300> 672 96<100 300>
VStem: 96 192<300 401 500 600 700 801> 288 96<401 500 600 700>
CounterMasks: 1 e0
LayerCount: 2
Back
Fore
SplineSet
96 768 m 25xf0
 288 768 l 25
 288 672 l 25xf0
 384 672 l 25
 384 576 l 25xe8
 288 576 l 25
 288 480 l 25xf0
 384 480 l 25
 384 384 l 25xe8
 288 384 l 25
 288 288 l 25
 96 288 l 25
 96 384 l 25
 288 384 l 25
 288 480 l 25
 96 480 l 25
 96 576 l 25
 288 576 l 25
 288 672 l 25
 96 672 l 25
 96 768 l 25xf0
EndSplineSet
EndChar

StartChar: acute
Encoding: 259 180 114
Width: 576
VWidth: 0
Flags: W
HStem: 384 96<201 300> 672 0G<300 401>
VStem: 192 96<401 500> 288 96<500 700>
LayerCount: 2
Back
Fore
SplineSet
288 672 m 25xd0
 384 672 l 25
 384 480 l 25xd0
 288 480 l 25
 288 384 l 25
 192 384 l 25
 192 480 l 25
 288 480 l 25xe0
 288 672 l 25xd0
EndSplineSet
EndChar

StartChar: mu
Encoding: 181 181 115
Width: 576
VWidth: 0
Flags: W
HStem: 0 96<201 300> 96 96<300 401> 480 0G<100 201 401 500>
VStem: 96 96<-201 0 100 500> 384 96<0 100 201 500>
LayerCount: 2
Back
Fore
SplineSet
96 480 m 25xb8
 192 480 l 25
 192 96 l 25
 288 96 l 25xb8
 288 192 l 25
 384 192 l 25x78
 384 480 l 25
 480 480 l 25
 480 0 l 25
 384 0 l 25xb8
 384 96 l 25x78
 288 96 l 25
 288 0 l 25
 192 0 l 25
 192 -192 l 25
 96 -192 l 25
 96 480 l 25xb8
EndSplineSet
EndChar

StartChar: paragraph
Encoding: 182 182 116
Width: 576
VWidth: 0
Flags: W
HStem: -96 0G<201 300 401 500> 480 96<300 401>
VStem: 0 288<300 500> 192 96<-100 201> 384 96<-100 500>
LayerCount: 2
Back
Fore
SplineSet
0 480 m 25xe8
 96 480 l 25
 96 576 l 25
 480 576 l 25
 480 -96 l 25
 384 -96 l 25
 384 480 l 25
 288 480 l 25xe8
 288 -96 l 25
 192 -96 l 25
 192 192 l 25xd8
 96 192 l 25
 96 288 l 25
 0 288 l 25
 0 480 l 25xe8
EndSplineSet
EndChar

StartChar: periodcentered
Encoding: 183 183 117
Width: 576
VWidth: 0
Flags: W
HStem: 96 192<201 401>
VStem: 192 192<100 300>
LayerCount: 2
Back
Fore
SplineSet
192 288 m 25
 384 288 l 25
 384 96 l 25
 192 96 l 25
 192 288 l 25
EndSplineSet
EndChar

StartChar: cedilla
Encoding: 260 184 118
Width: 576
VWidth: 0
Flags: W
HStem: -192 96<201 401> 0 96<300 401>
VStem: 288 96<0 100> 384 96<-100 0>
LayerCount: 2
Back
Fore
SplineSet
288 96 m 25xe0
 384 96 l 25
 384 0 l 25xe0
 480 0 l 25
 480 -192 l 25
 192 -192 l 25
 192 -96 l 25
 384 -96 l 25xd0
 384 0 l 25
 288 0 l 25
 288 96 l 25xe0
EndSplineSet
EndChar

StartChar: uni00B9
Encoding: 185 185 119
Width: 576
VWidth: 0
Flags: W
HStem: 384 96<100 201> 576 0G<201 300>
VStem: 192 96<100 401 500 600>
LayerCount: 2
Back
Fore
SplineSet
96 480 m 25
 192 480 l 25
 192 576 l 25
 288 576 l 25
 288 96 l 25
 192 96 l 25
 192 384 l 25
 96 384 l 25
 96 480 l 25
EndSplineSet
EndChar

StartChar: ordmasculine
Encoding: 186 186 120
Width: 576
VWidth: 0
Flags: W
HStem: 192 96<201 401> 288 192<100 201 401 500> 480 96<201 401>
VStem: 96 96<300 500> 192 192<201 300 500 600> 384 96<300 500>
LayerCount: 2
Back
Fore
SplineSet
192 576 m 25x28
 384 576 l 25x28
 384 480 l 25x48
 480 480 l 25
 480 288 l 25x44
 384 288 l 25
 384 192 l 25
 192 192 l 25x88
 192 288 l 25x90
 384 288 l 25x88
 384 480 l 25x48
 192 480 l 25x50
 192 288 l 25x90
 96 288 l 25
 96 480 l 25
 192 480 l 25x50
 192 576 l 25x28
EndSplineSet
EndChar

StartChar: guillemotright
Encoding: 187 187 121
Width: 576
VWidth: 0
Flags: W
HStem: 0 96<0 100 300 401> 96 96<100 201 401 500> 192 96<201 300 500 600> 288 96<100 201 401 500> 384 96<0 100 300 401>
VStem: 0 96<0 100 401 500> 96 96<100 201 300 401> 192 96<201 300> 288 96<0 100 401 500> 384 96<100 201 300 401> 480 96<201 300>
LayerCount: 2
Back
Fore
SplineSet
288 480 m 25x0880
 384 480 l 25x0880
 384 384 l 25x1080
 480 384 l 25x1040
 480 288 l 25x2040
 576 288 l 25
 576 192 l 25x2020
 480 192 l 25
 480 96 l 25x4040
 384 96 l 25
 384 0 l 25
 288 0 l 25
 288 96 l 25
 384 96 l 25x8080
 384 192 l 25
 480 192 l 25x4040
 480 288 l 25x2040
 384 288 l 25x1040
 384 384 l 25x1080
 288 384 l 25
 288 480 l 25x0880
0 480 m 25x0c
 96 480 l 25x0c
 96 384 l 25x14
 192 384 l 25x12
 192 288 l 25x22
 288 288 l 25
 288 192 l 25x21
 192 192 l 25
 192 96 l 25x42
 96 96 l 25
 96 0 l 25
 0 0 l 25
 0 96 l 25
 96 96 l 25x84
 96 192 l 25
 192 192 l 25x42
 192 288 l 25x22
 96 288 l 25x12
 96 384 l 25x14
 0 384 l 25
 0 480 l 25x0c
EndSplineSet
EndChar

StartChar: onequarter
Encoding: 261 188 122
Width: 576
VWidth: 0
Flags: W
HStem: -96 0G<497 596> 0 96<396 497 596 696> 96 96<96 195> 192 96<195 297 396 497> 288 96<297 396> 384 96<396 497> 480 96<497 596> 576 96<96 195>
VStem: 96 96<100 201> 192 96<201 300 401 600 700 801> 288 96<100 201 300 401> 384 96<401 500> 480 96<-100 0 100 201 300 401 500 600>
LayerCount: 2
Back
Fore
SplineSet
96 672 m 25x8580
 192 672 l 1
 192 768 l 5
 288 768 l 1
 288 384 l 1x8940
 384 384 l 25x8920
 384 480 l 25
 480 480 l 25x8410
 480 576 l 25
 576 576 l 25
 576 480 l 25x8208
 480 480 l 25
 480 384 l 25x8410
 576 384 l 25
 576 96 l 25
 672 96 l 25
 672 0 l 25
 576 0 l 25
 576 -96 l 25
 480 -96 l 25
 480 0 l 25
 288 0 l 25xc428
 288 192 l 25xd440
 384 192 l 25
 384 96 l 25
 480 96 l 25
 480 192 l 25
 384 192 l 25
 384 288 l 25
 480 288 l 25xd428
 480 384 l 25xd410
 384 384 l 25x8820
 384 288 l 25x9020
 288 288 l 25
 288 192 l 25x9040
 192 192 l 25
 192 96 l 25
 96 96 l 25
 96 192 l 25
 192 192 l 25xa080
 192 288 l 25
 288 288 l 25x9040
 288 384 l 25x8840
 192 384 l 25
 192 576 l 25x8540
 96 576 l 25
 96 672 l 25x8580
EndSplineSet
EndChar

StartChar: onehalf
Encoding: 262 189 123
Width: 576
VWidth: 0
Flags: W
HStem: 0 96<300 401 500 600> 96 96<0 100> 192 96<100 201 500 600> 288 96<201 300 401 500> 480 96<401 500> 576 96<0 100>
VStem: 0 96<100 201> 96 96<201 300 401 600 700 801> 288 96<401 500> 384 96<100 201 500 600> 480 96<201 300>
LayerCount: 2
Back
Fore
SplineSet
0 672 m 25x16
 96 672 l 1x15
 96 768 l 1
 192 768 l 5
 192 384 l 1
 288 384 l 25
 288 480 l 25
 384 480 l 25x1980
 384 576 l 25
 480 576 l 25
 480 480 l 25x1840
 384 480 l 25
 384 384 l 25
 480 384 l 25x18a0
 480 288 l 25
 576 288 l 25
 576 192 l 25x20a0
 480 192 l 25
 480 96 l 25xa040
 576 96 l 25
 576 0 l 25
 288 0 l 25
 288 96 l 25xa0a0
 384 96 l 25
 384 192 l 25
 480 192 l 25xa040
 480 288 l 25
 192 288 l 25
 192 192 l 25xa120
 96 192 l 25
 96 96 l 25
 0 96 l 25
 0 192 l 25
 96 192 l 25x42
 96 288 l 25
 192 288 l 25x21
 192 384 l 25
 96 384 l 25
 96 576 l 25x15
 0 576 l 25
 0 672 l 25x16
EndSplineSet
EndChar

StartChar: threequarters
Encoding: 263 190 124
Width: 576
VWidth: 0
Flags: W
HStem: -96 0G<401 500> 0 96<300 401 500 600> 96 96<0 100> 192 96<100 201 300 401> 384 96<0 201 300 401> 480 96<401 500> 672 96<0 100>
VStem: 0 96<100 201> 96 96<201 300> 192 96<100 201 300 401 500 600> 384 96<-100 0 100 201 300 401 500 600>
LayerCount: 2
Back
Fore
SplineSet
0 768 m 25x8720
 288 768 l 25
 288 480 l 25
 384 480 l 25x8b60
 384 576 l 25
 480 576 l 25
 480 480 l 25x8760
 384 480 l 25
 384 384 l 25
 480 384 l 25
 480 96 l 25
 576 96 l 25
 576 0 l 25
 480 0 l 25
 480 -96 l 25
 384 -96 l 25
 384 0 l 25
 192 0 l 25xcb60
 192 192 l 25xdaa0
 288 192 l 25
 288 96 l 25
 384 96 l 25
 384 192 l 25
 288 192 l 25
 288 288 l 25
 384 288 l 25
 384 384 l 25
 288 384 l 25
 288 288 l 25xda60
 192 288 l 25
 192 192 l 25xdaa0
 96 192 l 25
 96 96 l 25
 0 96 l 25
 0 192 l 25
 96 192 l 25xa320
 96 288 l 25
 192 288 l 25x92a0
 192 384 l 25
 0 384 l 25
 0 480 l 25
 192 480 l 25x9b60
 192 576 l 25x8760
 96 576 l 25
 96 672 l 25x86a0
 0 672 l 25
 0 768 l 25x8720
EndSplineSet
EndChar

StartChar: questiondown
Encoding: 191 191 125
Width: 576
VWidth: 0
Flags: W
HStem: -96 96<201 401> 0 96<401 500> 192 96<201 300> 288 96<300 401> 480 96<300 401>
VStem: 96 96<0 201> 192 96<201 300> 288 96<300 401 500 600> 384 96<0 100>
LayerCount: 2
Back
Fore
SplineSet
288 384 m 25x19
 384 384 l 25
 384 288 l 25x19
 288 288 l 25
 288 192 l 25x2a
 192 192 l 25
 192 0 l 25
 384 0 l 25xac80
 384 96 l 25
 480 96 l 25
 480 0 l 25x4c80
 384 0 l 25
 384 -96 l 25
 192 -96 l 25x8a80
 192 0 l 25x8c
 96 0 l 25
 96 192 l 25
 192 192 l 25x6c
 192 288 l 25
 288 288 l 25x6a
 288 384 l 25x19
288 576 m 25
 384 576 l 25
 384 480 l 25
 288 480 l 25
 288 576 l 25
EndSplineSet
EndChar

StartChar: Agrave
Encoding: 192 192 126
Width: 576
VWidth: 0
Flags: W
HStem: 0 0G<100 201 401 500> 192 96<201 401> 480 0G<100 201> 480 96<201 300> 672 96<201 300>
VStem: 96 96<0 201 300 500> 192 96<700 801> 288 96<600 700> 384 96<0 201 300 500>
LayerCount: 2
Back
Fore
SplineSet
192 768 m 25xda
 288 768 l 25
 288 672 l 25xda
 384 672 l 25xd9
 384 480 l 25
 480 480 l 25xd880
 480 0 l 25
 384 0 l 25
 384 192 l 25
 192 192 l 25
 192 0 l 25
 96 0 l 25
 96 480 l 25
 192 480 l 25xec80
 192 288 l 25
 384 288 l 25
 384 480 l 25xdc80
 192 480 l 25xec80
 192 576 l 25xda
 288 576 l 25xd9
 288 672 l 25
 192 672 l 25
 192 768 l 25xda
EndSplineSet
EndChar

StartChar: Aacute
Encoding: 193 193 127
Width: 576
VWidth: 0
Flags: W
HStem: 0 0G<100 201 401 500> 192 96<201 401> 480 0G<100 201> 480 96<201 300> 672 96<401 500>
VStem: 96 96<0 201 300 500> 288 96<600 700> 384 96<0 201 300 500 700 801>
LayerCount: 2
Back
Fore
SplineSet
384 768 m 25xdd
 480 768 l 25
 480 672 l 25xdd
 384 672 l 25xde
 384 480 l 25
 480 480 l 25xdd
 480 0 l 25
 384 0 l 25
 384 192 l 25
 192 192 l 25
 192 0 l 25
 96 0 l 25
 96 480 l 25
 192 480 l 25xed
 192 288 l 25
 384 288 l 25
 384 480 l 25xdd
 192 480 l 25xed
 192 576 l 25
 288 576 l 25
 288 672 l 25
 384 672 l 25xde
 384 768 l 25xdd
EndSplineSet
EndChar

StartChar: Acircumflex
Encoding: 194 194 128
Width: 576
VWidth: 0
Flags: W
HStem: 0 0G<100 201 401 500> 192 96<201 401> 480 0G<401 500> 480 96<201 401> 576 96<100 201 401 500> 672 96<201 401>
VStem: 96 96<0 201 300 500 600 700> 192 192<500 600 700 801> 384 96<0 201 300 500 600 700>
LayerCount: 2
Back
Fore
SplineSet
96 576 m 25xca80
 96 672 l 25
 192 672 l 25xca80
 192 768 l 25
 384 768 l 25xc5
 384 672 l 25xc9
 192 672 l 25xca
 192 576 l 25xd2
 384 576 l 25xd1
 384 672 l 25xc9
 480 672 l 25
 480 576 l 25xc880
 384 576 l 25xd1
 384 480 l 25xe1
 192 480 l 25
 192 288 l 25
 384 288 l 25xd280
 384 480 l 25xe1
 480 480 l 25xe080
 480 0 l 25
 384 0 l 25
 384 192 l 25
 192 192 l 25
 192 0 l 25
 96 0 l 25
 96 480 l 25
 192 480 l 25
 192 576 l 25xd280
 96 576 l 25xca80
EndSplineSet
EndChar

StartChar: Atilde
Encoding: 195 195 129
Width: 576
VWidth: 0
Flags: W
HStem: 0 0G<100 201 401 500> 192 96<201 401> 480 0G<401 500> 480 96<201 300> 576 96<100 201> 672 96<201 300 401 500>
VStem: 96 96<0 201 300 500 600 700> 192 96<700 801> 288 96<600 700> 384 96<0 201 300 500 700 801>
LayerCount: 2
Back
Fore
SplineSet
96 576 m 25xca40
 96 672 l 25
 192 672 l 25xca40
 192 576 l 25
 288 576 l 25xd280
 288 672 l 25xd5
 192 672 l 25xca
 192 768 l 25
 288 768 l 25
 288 672 l 25xc5
 384 672 l 25xc480
 384 768 l 25
 480 768 l 25
 480 672 l 25xc440
 384 672 l 25xc480
 384 480 l 25xe440
 192 480 l 25xd240
 192 288 l 25
 384 288 l 25
 384 480 l 25
 480 480 l 25xe240
 480 0 l 25
 384 0 l 25
 384 192 l 25
 192 192 l 25
 192 0 l 25
 96 0 l 25
 96 480 l 25
 192 480 l 25
 192 576 l 25xd240
 96 576 l 25xca40
EndSplineSet
EndChar

StartChar: Adieresis
Encoding: 196 196 130
Width: 576
VWidth: 0
Flags: W
HStem: 0 0G<100 201 401 500> 192 96<201 401> 480 0G<100 201> 480 96<201 401> 672 96<100 201 401 500>
VStem: 96 96<0 201 300 500 700 801> 384 96<0 201 300 500 700 801>
LayerCount: 2
Back
Fore
SplineSet
192 576 m 25xde
 384 576 l 25
 384 480 l 25
 480 480 l 25xde
 480 0 l 25
 384 0 l 25
 384 192 l 25
 192 192 l 25
 192 0 l 25
 96 0 l 25
 96 480 l 25
 192 480 l 25xee
 192 288 l 25
 384 288 l 25
 384 480 l 25xde
 192 480 l 25xee
 192 576 l 25xde
384 768 m 25
 480 768 l 25
 480 672 l 25
 384 672 l 25
 384 768 l 25
96 768 m 25
 192 768 l 25
 192 672 l 25
 96 672 l 25
 96 768 l 25
EndSplineSet
EndChar

StartChar: Aring
Encoding: 197 197 131
Width: 576
VWidth: 0
Flags: W
HStem: 0 0G<100 201 401 500> 192 96<201 401> 480 0G<401 500> 480 96<201 300> 672 96<201 300 401 500> 864 96<300 401>
VStem: 96 96<0 201 300 500> 192 96<700 801> 288 96<600 700 801 900> 384 96<0 201 300 500 700 801>
LayerCount: 2
Back
Fore
SplineSet
192 672 m 29xd9
 288 672 l 5xd9
 288 768 l 5
 384 768 l 5xc480
 384 672 l 5xc880
 288 672 l 29
 288 576 l 29xc9
 384 576 l 29
 384 672 l 29xc880
 480 672 l 29
 480 576 l 29xc840
 384 576 l 5xc880
 384 384 l 5xe840
 192 384 l 5xd240
 192 288 l 1
 384 288 l 1
 384 384 l 5
 480 384 l 5xe240
 480 0 l 1
 384 0 l 25
 384 192 l 25
 192 192 l 25
 192 0 l 25
 96 0 l 1
 96 384 l 5
 192 384 l 5xd240
 192 480 l 5xd1
 288 480 l 29xd080
 288 576 l 29
 192 576 l 29
 192 672 l 29xd9
EndSplineSet
EndChar

StartChar: AE
Encoding: 198 198 132
Width: 576
VWidth: 0
Flags: W
HStem: 0 96<401 600> 192 96<100 300> 288 96<401 500> 480 96<100 300 401 600>
VStem: 0 96<0 201 300 500> 288 96<100 201 401 500>
LayerCount: 2
Back
Fore
SplineSet
0 480 m 25xdc
 96 480 l 25
 96 576 l 25
 288 576 l 25
 288 480 l 25
 96 480 l 25
 96 288 l 25
 288 288 l 25xdc
 288 480 l 25
 384 480 l 25
 384 576 l 25
 576 576 l 25
 576 480 l 25
 384 480 l 25
 384 384 l 25
 480 384 l 25
 480 288 l 25
 384 288 l 25xbc
 384 96 l 25
 576 96 l 25
 576 0 l 25
 288 0 l 25
 288 192 l 25
 96 192 l 25
 96 0 l 25
 0 0 l 25
 0 480 l 25xdc
EndSplineSet
EndChar

StartChar: Ccedilla
Encoding: 199 199 133
Width: 576
VWidth: 0
Flags: W
HStem: -192 96<201 300> 0 96<201 300 401 500> 480 96<201 500>
VStem: 96 96<100 500> 192 288<0 100 500 600> 192 96<-201 -100> 288 96<-100 0>
LayerCount: 2
Back
Fore
SplineSet
192 576 m 25xe8
 480 576 l 25
 480 480 l 25xe8
 192 480 l 25
 192 96 l 25xf0
 480 96 l 25
 480 0 l 25xe8
 384 0 l 25
 384 -96 l 25xe2
 288 -96 l 25
 288 -192 l 25
 192 -192 l 25
 192 -96 l 25
 288 -96 l 25xe4
 288 0 l 25xe2
 192 0 l 25xe8
 192 96 l 25
 96 96 l 25
 96 480 l 25
 192 480 l 25xf0
 192 576 l 25xe8
EndSplineSet
EndChar

StartChar: Egrave
Encoding: 200 200 134
Width: 576
VWidth: 0
Flags: W
HStem: 0 96<201 500> 288 96<201 401> 480 96<201 300 401 500> 672 96<201 300>
VStem: 96 96<100 300 401 500> 192 96<700 801> 288 96<600 700>
LayerCount: 2
Back
Fore
SplineSet
192 768 m 25xf4
 288 768 l 25
 288 672 l 25xf4
 384 672 l 25
 384 576 l 25
 480 576 l 25
 480 480 l 25
 192 480 l 25
 192 384 l 25
 384 384 l 25
 384 288 l 25
 192 288 l 25
 192 96 l 25
 480 96 l 25
 480 0 l 25
 96 0 l 25
 96 576 l 25
 288 576 l 25xfa
 288 672 l 25
 192 672 l 25
 192 768 l 25xf4
EndSplineSet
EndChar

StartChar: Eacute
Encoding: 201 201 135
Width: 576
VWidth: 0
Flags: W
HStem: 0 96<201 500> 288 96<201 401> 480 96<300 500> 672 96<300 401>
VStem: 96 96<100 300 401 500> 192 96<600 700> 288 96<700 801>
LayerCount: 2
Back
Fore
SplineSet
288 768 m 25xf2
 384 768 l 25
 384 672 l 25xf2
 288 672 l 25
 288 576 l 25xf4
 480 576 l 25
 480 480 l 25
 192 480 l 25
 192 384 l 25
 384 384 l 25
 384 288 l 25
 192 288 l 25
 192 96 l 25
 480 96 l 25
 480 0 l 25
 96 0 l 25
 96 576 l 25xfa
 192 576 l 25
 192 672 l 25
 288 672 l 25xf4
 288 768 l 25xf2
EndSplineSet
EndChar

StartChar: Ecircumflex
Encoding: 202 202 136
Width: 576
VWidth: 0
Flags: W
HStem: 0 96<201 500> 288 96<201 401> 480 96<201 401> 576 96<100 201> 672 96<201 401>
VStem: 96 96<100 300 401 500 600 700> 384 96<600 700>
LayerCount: 2
Back
Fore
SplineSet
96 672 m 25xd6
 192 672 l 25xd6
 192 768 l 25
 384 768 l 25
 384 672 l 25xce
 192 672 l 25xd6
 192 576 l 25
 384 576 l 25
 384 672 l 25
 480 672 l 25
 480 480 l 25
 192 480 l 25
 192 384 l 25
 384 384 l 25
 384 288 l 25
 192 288 l 25
 192 96 l 25
 480 96 l 25
 480 0 l 25
 96 0 l 25
 96 480 l 25
 192 480 l 25
 192 576 l 25xee
 96 576 l 25
 96 672 l 25xd6
EndSplineSet
EndChar

StartChar: Edieresis
Encoding: 203 203 137
Width: 576
VWidth: 0
Flags: W
HStem: 0 96<201 500> 288 96<201 401> 480 96<201 500> 672 96<100 201 401 500>
VStem: 96 96<100 300 401 500 700 801> 384 96<700 801>
LayerCount: 2
Back
Fore
SplineSet
96 576 m 25
 480 576 l 25
 480 480 l 25
 192 480 l 25
 192 384 l 25
 384 384 l 25
 384 288 l 25
 192 288 l 25
 192 96 l 25
 480 96 l 25
 480 0 l 25
 96 0 l 25
 96 576 l 25
384 768 m 25
 480 768 l 25
 480 672 l 25
 384 672 l 25
 384 768 l 25
96 768 m 25
 192 768 l 25
 192 672 l 25
 96 672 l 25
 96 768 l 25
EndSplineSet
EndChar

StartChar: Igrave
Encoding: 204 204 138
Width: 576
VWidth: 0
Flags: W
HStem: 0 96<201 300 401 500> 480 96<201 300 401 500> 672 96<201 300>
VStem: 192 288<0 100 500 600> 192 96<700 801> 288 96<100 500 600 700>
LayerCount: 2
Back
Fore
SplineSet
192 768 m 25xe8
 288 768 l 25
 288 672 l 25xe8
 384 672 l 25
 384 576 l 25xe4
 480 576 l 25
 480 480 l 25xf0
 384 480 l 25
 384 96 l 25xe4
 480 96 l 25
 480 0 l 25
 192 0 l 25
 192 96 l 25xf0
 288 96 l 25
 288 480 l 25xe4
 192 480 l 25
 192 576 l 25xf0
 288 576 l 25xe4
 288 672 l 25
 192 672 l 25
 192 768 l 25xe8
EndSplineSet
EndChar

StartChar: Iacute
Encoding: 205 205 139
Width: 576
VWidth: 0
Flags: W
HStem: 0 96<201 300 401 500> 480 96<201 300 401 500> 672 96<401 500>
VStem: 192 288<0 100 500 600> 288 96<100 500 600 700> 384 96<700 801>
LayerCount: 2
Back
Fore
SplineSet
384 768 m 25xe4
 480 768 l 25
 480 672 l 25xe4
 384 672 l 25
 384 576 l 25xe8
 480 576 l 25
 480 480 l 25xf0
 384 480 l 25
 384 96 l 25xe8
 480 96 l 25
 480 0 l 25
 192 0 l 25
 192 96 l 25xf0
 288 96 l 25
 288 480 l 25xe8
 192 480 l 25
 192 576 l 25xf0
 288 576 l 25
 288 672 l 25
 384 672 l 25xe8
 384 768 l 25xe4
EndSplineSet
EndChar

StartChar: Icircumflex
Encoding: 206 206 140
Width: 576
VWidth: 0
Flags: W
HStem: 0 96<201 300 401 500> 384 96<201 300 401 500> 576 96<201 300 401 500> 672 96<300 401>
VStem: 192 96<600 700> 288 96<100 401 700 801> 384 96<600 700>
LayerCount: 2
Back
Fore
SplineSet
192 480 m 25xc8
 480 480 l 25
 480 384 l 25xca
 384 384 l 25
 384 96 l 25xc4
 480 96 l 25
 480 0 l 25
 192 0 l 25
 192 96 l 25xca
 288 96 l 25
 288 384 l 25xc4
 192 384 l 25
 192 480 l 25xc8
192 672 m 25xe8
 288 672 l 25xe8
 288 768 l 25
 384 768 l 25xd4
 384 672 l 25xe4
 480 672 l 25
 480 576 l 25
 384 576 l 25xe2
 384 672 l 25xe4
 288 672 l 25
 288 576 l 25
 192 576 l 25
 192 672 l 25xe8
EndSplineSet
EndChar

StartChar: Idieresis
Encoding: 207 207 141
Width: 576
VWidth: 0
Flags: W
HStem: 0 96<201 300 401 500> 480 96<201 300 401 500> 672 96<201 300 401 500>
VStem: 192 96<700 801> 384 96<700 801>
LayerCount: 2
Back
Fore
SplineSet
192 576 m 25
 480 576 l 25
 480 480 l 25
 384 480 l 25
 384 96 l 25
 480 96 l 25
 480 0 l 25
 192 0 l 25
 192 96 l 25
 288 96 l 25
 288 480 l 25
 192 480 l 25
 192 576 l 25
384 768 m 25
 480 768 l 25
 480 672 l 25
 384 672 l 25
 384 768 l 25
192 768 m 25
 288 768 l 25
 288 672 l 25
 192 672 l 25
 192 768 l 25
EndSplineSet
EndChar

StartChar: Eth
Encoding: 208 208 142
Width: 576
VWidth: 0
Flags: W
HStem: 0 96<300 500> 288 96<100 201 300 401> 480 0G<500 600> 480 96<300 500>
VStem: 192 288<0 100 500 600> 192 96<100 300 401 500> 480 96<100 500>
LayerCount: 2
Back
Fore
SplineSet
96 384 m 25xe4
 192 384 l 25xe4
 192 576 l 25
 480 576 l 25xd8
 480 480 l 25xe8
 288 480 l 25
 288 384 l 25
 384 384 l 25
 384 288 l 25
 288 288 l 25
 288 96 l 25xd4
 480 96 l 25
 480 480 l 25xe8
 576 480 l 25
 576 96 l 25xe2
 480 96 l 25
 480 0 l 25
 192 0 l 25xe8
 192 288 l 25
 96 288 l 25
 96 384 l 25xe4
EndSplineSet
EndChar

StartChar: Ntilde
Encoding: 209 209 143
Width: 576
VWidth: 0
Flags: W
HStem: 0 0G<100 201 401 500> 192 96<300 401> 288 96<201 300> 576 0G<401 500> 576 96<300 401> 672 96<201 300 401 500>
VStem: 96 96<0 300 401 700> 192 96<700 801> 288 96<600 700> 384 96<0 201 300 600 700 801>
LayerCount: 2
Back
Fore
SplineSet
96 0 m 25xa280
 96 672 l 25
 192 672 l 25xa680
 192 768 l 25
 288 768 l 25xa5
 288 672 l 25x89
 384 672 l 25x8880
 384 768 l 25
 480 768 l 25
 480 672 l 25x8440
 384 672 l 25x8880
 384 576 l 25x9080
 288 576 l 25x8880
 288 672 l 25x89
 192 672 l 25
 192 384 l 25
 288 384 l 25xa680
 288 288 l 25xc280
 384 288 l 25xc040
 384 576 l 25xd080
 480 576 l 25
 480 0 l 25
 384 0 l 25
 384 192 l 25xd040
 288 192 l 25
 288 288 l 25xd080
 192 288 l 25
 192 0 l 25
 96 0 l 25xa280
EndSplineSet
EndChar

StartChar: Ograve
Encoding: 210 210 144
Width: 576
VWidth: 0
Flags: W
HStem: 0 96<201 401> 480 0G<401 500> 480 96<201 300> 672 96<201 300>
VStem: 96 96<100 500> 192 96<700 801> 288 96<600 700> 384 96<100 500>
LayerCount: 2
Back
Fore
SplineSet
192 768 m 25xb4
 288 768 l 25
 288 672 l 25xb4
 384 672 l 25xb2
 384 480 l 25xd1
 192 480 l 25
 192 96 l 25xb9
 384 96 l 25
 384 480 l 25
 480 480 l 25
 480 96 l 25
 384 96 l 25
 384 0 l 25
 192 0 l 25xd5
 192 96 l 25
 96 96 l 25
 96 480 l 25
 192 480 l 25xb8
 192 576 l 25xb4
 288 576 l 25xb2
 288 672 l 25
 192 672 l 25
 192 768 l 25xb4
EndSplineSet
EndChar

StartChar: Oacute
Encoding: 211 211 145
Width: 576
VWidth: 0
Flags: W
HStem: 0 96<201 401> 480 0G<401 500> 480 96<300 401> 672 96<300 401>
VStem: 96 96<100 500> 192 96<600 700> 288 96<700 801> 384 96<100 500>
LayerCount: 2
Back
Fore
SplineSet
288 768 m 25xb2
 384 768 l 25
 384 672 l 25xb2
 288 672 l 25
 288 576 l 25
 384 576 l 25xb5
 384 480 l 25xd5
 192 480 l 25
 192 96 l 25xb9
 384 96 l 25
 384 480 l 25
 480 480 l 25
 480 96 l 25
 384 96 l 25
 384 0 l 25
 192 0 l 25xd5
 192 96 l 25
 96 96 l 25
 96 480 l 25
 192 480 l 25xb8
 192 672 l 25
 288 672 l 25xb4
 288 768 l 25xb2
EndSplineSet
EndChar

StartChar: Ocircumflex
Encoding: 212 212 146
Width: 576
VWidth: 0
Flags: W
HStem: 0 96<201 401> 480 0G<401 500> 480 96<201 401> 576 96<100 201 401 500> 672 96<201 401>
VStem: 96 96<100 500 600 700> 192 192<0 100 500 600 700 801> 384 96<100 500 600 700>
LayerCount: 2
Back
Fore
SplineSet
192 768 m 25x8a
 384 768 l 25x8a
 384 672 l 25x92
 192 672 l 25x94
 192 576 l 25xa4
 384 576 l 25xa2
 384 672 l 25x92
 480 672 l 25
 480 576 l 25x91
 384 576 l 25xa2
 384 480 l 25xc2
 192 480 l 25
 192 96 l 25xa4
 384 96 l 25
 384 480 l 25xc2
 480 480 l 25
 480 96 l 25xc1
 384 96 l 25
 384 0 l 25
 192 0 l 25xc2
 192 96 l 25
 96 96 l 25
 96 480 l 25
 192 480 l 25
 192 576 l 25xa4
 96 576 l 25
 96 672 l 25
 192 672 l 25x94
 192 768 l 25x8a
EndSplineSet
EndChar

StartChar: Otilde
Encoding: 213 213 147
Width: 576
VWidth: 0
Flags: W
HStem: 0 96<201 401> 480 0G<401 500> 480 96<201 300> 576 96<100 201> 672 96<201 300 401 500>
VStem: 96 96<100 500 600 700> 192 96<700 801> 288 96<600 700> 384 96<100 500 700 801>
LayerCount: 2
Back
Fore
SplineSet
96 672 m 25x94
 192 672 l 25x94
 192 576 l 25
 288 576 l 25xa5
 288 672 l 25xaa
 192 672 l 25x94
 192 768 l 25
 288 768 l 25
 288 672 l 25x8a
 384 672 l 25x89
 384 768 l 25
 480 768 l 25
 480 672 l 25x8880
 384 672 l 25x89
 384 480 l 25xc880
 192 480 l 25
 192 96 l 25xa480
 384 96 l 25
 384 480 l 25
 480 480 l 25
 480 96 l 25
 384 96 l 25
 384 0 l 25
 192 0 l 25xc280
 192 96 l 25
 96 96 l 25
 96 480 l 25
 192 480 l 25
 192 576 l 25xa4
 96 576 l 25
 96 672 l 25x94
EndSplineSet
EndChar

StartChar: Odieresis
Encoding: 214 214 148
Width: 576
VWidth: 0
Flags: W
HStem: 0 96<201 401> 480 0G<401 500> 480 96<201 401> 672 96<100 201 401 500>
VStem: 96 96<100 500 700 801> 192 192<0 100 500 600> 384 96<100 500 700 801>
LayerCount: 2
Back
Fore
SplineSet
192 576 m 25xb4
 384 576 l 25xb4
 384 480 l 25xd4
 192 480 l 25
 192 96 l 25xb8
 384 96 l 25
 384 480 l 25xd4
 480 480 l 25
 480 96 l 25xd2
 384 96 l 25
 384 0 l 25
 192 0 l 25xd4
 192 96 l 25
 96 96 l 25
 96 480 l 25
 192 480 l 25xb8
 192 576 l 25xb4
384 768 m 25x92
 480 768 l 25
 480 672 l 25
 384 672 l 25
 384 768 l 25x92
96 768 m 25x98
 192 768 l 25
 192 672 l 25
 96 672 l 25
 96 768 l 25x98
EndSplineSet
EndChar

StartChar: multiply
Encoding: 215 215 149
Width: 576
VWidth: 0
Flags: W
HStem: 192 96<201 300 401 500> 384 96<201 300 401 500>
VStem: 192 96<201 300 401 500> 384 96<201 300 401 500>
LayerCount: 2
Back
Fore
SplineSet
192 480 m 25
 288 480 l 25
 288 384 l 25
 384 384 l 25
 384 480 l 25
 480 480 l 25
 480 384 l 25
 384 384 l 25
 384 288 l 25
 480 288 l 25
 480 192 l 25
 384 192 l 25
 384 288 l 25
 288 288 l 25
 288 192 l 25
 192 192 l 25
 192 288 l 25
 288 288 l 25
 288 384 l 25
 192 384 l 25
 192 480 l 25
EndSplineSet
EndChar

StartChar: Oslash
Encoding: 216 216 150
Width: 576
VWidth: 0
Flags: W
HStem: 0 96<0 100 201 401> 288 96<300 401> 480 96<201 401 500 600>
VStem: 0 96<0 100> 96 96<100 201 300 500> 192 192<0 100 500 600> 384 96<100 300 401 500> 480 96<500 600>
LayerCount: 2
Back
Fore
SplineSet
192 576 m 25xe4
 384 576 l 25
 384 480 l 25xe4
 192 480 l 25
 192 288 l 25
 288 288 l 25
 288 192 l 25
 192 192 l 25
 192 96 l 25xe8
 384 96 l 25xe4
 384 288 l 25
 288 288 l 25
 288 384 l 25
 384 384 l 25xe2
 384 480 l 25xe4
 480 480 l 25xe2
 480 576 l 25
 576 576 l 25
 576 480 l 25xe1
 480 480 l 25
 480 96 l 25xe2
 384 96 l 25
 384 0 l 25
 192 0 l 25xe4
 192 96 l 25xe8
 96 96 l 25
 96 0 l 25
 0 0 l 25
 0 96 l 25
 96 96 l 25xf0
 96 480 l 25
 192 480 l 25xe8
 192 576 l 25xe4
EndSplineSet
EndChar

StartChar: Ugrave
Encoding: 217 217 151
Width: 576
VWidth: 0
Flags: W
HStem: 0 96<201 401> 576 0G<100 201> 576 96<300 401> 672 96<201 300>
VStem: 96 96<100 600> 192 96<700 801> 288 96<600 700> 384 96<100 600>
LayerCount: 2
Back
Fore
SplineSet
192 768 m 25x94
 288 768 l 25x94
 288 672 l 25xa4
 384 672 l 25
 384 576 l 25xa2
 480 576 l 25
 480 0 l 25
 192 0 l 25xa5
 192 96 l 25
 96 96 l 25
 96 576 l 25
 192 576 l 25
 192 96 l 25
 384 96 l 25xc9
 384 576 l 25
 288 576 l 25xa2
 288 672 l 25xa4
 192 672 l 25
 192 768 l 25x94
EndSplineSet
EndChar

StartChar: Uacute
Encoding: 218 218 152
Width: 576
VWidth: 0
Flags: W
HStem: 0 96<201 401> 576 0G<401 500> 576 96<201 300> 672 96<300 401>
VStem: 96 96<100 600> 192 96<600 700> 288 96<700 801> 384 96<100 600>
LayerCount: 2
Back
Fore
SplineSet
288 768 m 25x92
 384 768 l 25
 384 672 l 25x92
 288 672 l 25
 288 576 l 25xa4
 192 576 l 25
 192 96 l 25xa8
 384 96 l 25
 384 576 l 25
 480 576 l 25
 480 0 l 25
 192 0 l 25xc5
 192 96 l 25
 96 96 l 25
 96 576 l 25
 192 576 l 25xa8
 192 672 l 25
 288 672 l 25xa4
 288 768 l 25x92
EndSplineSet
EndChar

StartChar: Ucircumflex
Encoding: 219 219 153
Width: 576
VWidth: 0
Flags: W
HStem: 0 96<201 401> 480 0G<100 201 401 500> 576 96<100 201 401 500> 672 96<201 401>
VStem: 96 96<100 500 600 700> 384 96<100 500 600 700>
LayerCount: 2
Back
Fore
SplineSet
96 480 m 25xcc
 192 480 l 25
 192 96 l 25
 384 96 l 25
 384 480 l 25
 480 480 l 25
 480 0 l 25
 192 0 l 25
 192 96 l 25
 96 96 l 25
 96 480 l 25xcc
96 672 m 25xec
 192 672 l 25xec
 192 768 l 25
 384 768 l 25xdc
 384 672 l 25
 480 672 l 25
 480 576 l 25
 384 576 l 25
 384 672 l 25
 192 672 l 25
 192 576 l 25
 96 576 l 25
 96 672 l 25xec
EndSplineSet
EndChar

StartChar: Udieresis
Encoding: 220 220 154
Width: 576
VWidth: 0
Flags: W
HStem: 0 96<201 401> 576 0G<100 201 401 500> 672 96<100 201 401 500>
VStem: 96 96<100 600 700 801> 384 96<100 600 700 801>
LayerCount: 2
Back
Fore
SplineSet
96 576 m 25
 192 576 l 25
 192 96 l 25
 384 96 l 25
 384 576 l 25
 480 576 l 25
 480 0 l 25
 192 0 l 25
 192 96 l 25
 96 96 l 25
 96 576 l 25
384 768 m 25
 480 768 l 25
 480 672 l 25
 384 672 l 25
 384 768 l 25
96 768 m 25
 192 768 l 25
 192 672 l 25
 96 672 l 25
 96 768 l 25
EndSplineSet
EndChar

StartChar: Yacute
Encoding: 221 221 155
Width: 576
VWidth: 0
Flags: W
HStem: 0 0G<300 401> 288 96<201 300 401 500> 384 192<100 201 500 600> 576 96<300 401> 672 96<401 500>
VStem: 96 96<401 600> 192 96<300 401> 288 96<0 300 600 700> 384 96<300 401 700 801> 480 96<401 600>
LayerCount: 2
Back
Fore
SplineSet
96 576 m 25xa4
 192 576 l 25xa4
 192 384 l 25xc4
 288 384 l 25
 288 288 l 25xc2
 384 288 l 25xc1
 384 384 l 25
 480 384 l 25xc080
 480 576 l 25
 576 576 l 25
 576 384 l 25xa040
 480 384 l 25
 480 288 l 25xc080
 384 288 l 25
 384 0 l 25
 288 0 l 25xc1
 288 288 l 25
 192 288 l 25xc2
 192 384 l 25xc4
 96 384 l 25
 96 576 l 25xa4
384 768 m 25x8880
 480 768 l 25
 480 672 l 25x8880
 384 672 l 25
 384 576 l 25
 288 576 l 25
 288 672 l 25
 384 672 l 25x91
 384 768 l 25x8880
EndSplineSet
EndChar

StartChar: Thorn
Encoding: 222 222 156
Width: 576
VWidth: 0
Flags: W
HStem: -96 0G<100 201> 96 96<201 401> 384 96<201 401> 672 0G<100 201>
VStem: 96 288<100 201 401 500> 96 96<-100 100 201 401 500 700> 384 96<201 401>
LayerCount: 2
Back
Fore
SplineSet
96 672 m 25xf4
 192 672 l 25
 192 480 l 25xf4
 384 480 l 25
 384 384 l 25xf8
 192 384 l 25
 192 192 l 25xf4
 384 192 l 25
 384 384 l 25xf8
 480 384 l 25
 480 192 l 25xf2
 384 192 l 25
 384 96 l 25xf8
 192 96 l 25
 192 -96 l 25
 96 -96 l 25
 96 672 l 25xf4
EndSplineSet
EndChar

StartChar: germandbls
Encoding: 223 223 157
Width: 576
VWidth: 0
Flags: W
HStem: -96 0G<100 201> 0 96<300 401> 576 96<201 300>
VStem: 96 96<-100 600> 288 96<0 100 401 600> 384 96<100 401>
LayerCount: 2
Back
Fore
SplineSet
96 576 m 25xf8
 192 576 l 25
 192 672 l 25
 384 672 l 25xf4
 384 384 l 25xf8
 480 384 l 25
 480 96 l 25xf4
 384 96 l 25
 384 0 l 25
 288 0 l 25
 288 96 l 25
 384 96 l 25
 384 384 l 25
 288 384 l 25
 288 576 l 25
 192 576 l 25
 192 -96 l 25
 96 -96 l 25
 96 576 l 25xf8
EndSplineSet
EndChar

StartChar: agrave
Encoding: 224 224 158
Width: 576
VWidth: 0
Flags: W
HStem: 0 96<201 401 500 600> 384 96<201 401> 576 96<300 401> 672 96<201 300>
VStem: 96 96<100 401> 192 96<700 801> 288 96<600 700> 384 96<100 401> 480 96<0 100>
LayerCount: 2
Back
Fore
SplineSet
96 384 m 25xc8
 192 384 l 25xc8
 192 480 l 25
 480 480 l 25xc480
 480 96 l 25xc1
 576 96 l 25
 576 0 l 25
 480 0 l 25xc080
 480 96 l 25
 384 96 l 25
 384 384 l 25
 192 384 l 25
 192 96 l 25xc9
 384 96 l 25
 384 0 l 25
 192 0 l 25xc5
 192 96 l 25
 96 96 l 25
 96 384 l 25xc8
192 768 m 25xd4
 288 768 l 25xd4
 288 672 l 25xe4
 384 672 l 25
 384 576 l 25
 288 576 l 25xe2
 288 672 l 25xe4
 192 672 l 25
 192 768 l 25xd4
EndSplineSet
EndChar

StartChar: aacute
Encoding: 225 225 159
Width: 576
VWidth: 0
Flags: W
HStem: 0 96<201 401 500 600> 384 96<201 401> 576 96<300 401> 672 96<401 500>
VStem: 96 96<100 401> 288 96<600 700> 384 96<100 401 700 801> 480 96<0 100>
LayerCount: 2
Back
Fore
SplineSet
192 480 m 25xca
 480 480 l 25xc9
 480 96 l 25xca
 576 96 l 25
 576 0 l 25
 480 0 l 25xc9
 480 96 l 25
 384 96 l 25
 384 384 l 25
 192 384 l 25
 192 96 l 25
 384 96 l 25
 384 0 l 25
 192 0 l 25
 192 96 l 25
 96 96 l 25
 96 384 l 25
 192 384 l 25
 192 480 l 25xca
288 672 m 25xec
 384 672 l 25xec
 384 768 l 25
 480 768 l 25
 480 672 l 25xda
 384 672 l 25
 384 576 l 25
 288 576 l 25
 288 672 l 25xec
EndSplineSet
EndChar

StartChar: acircumflex
Encoding: 226 226 160
Width: 576
VWidth: 0
Flags: W
HStem: 0 96<201 401 500 600> 384 96<201 401> 576 96<201 300 401 500> 672 96<300 401>
VStem: 96 96<100 401> 192 96<600 700> 288 96<700 801> 384 96<100 401 600 700> 480 96<0 100>
LayerCount: 2
Back
Fore
SplineSet
96 384 m 25xc8
 192 384 l 25xc8
 192 480 l 25
 480 480 l 25xc480
 480 96 l 25xc1
 576 96 l 25
 576 0 l 25
 480 0 l 25xc080
 480 96 l 25
 384 96 l 25
 384 384 l 25
 192 384 l 25
 192 96 l 25xc9
 384 96 l 25
 384 0 l 25
 192 0 l 25xc5
 192 96 l 25
 96 96 l 25
 96 384 l 25xc8
192 672 m 25xe4
 288 672 l 25xe4
 288 768 l 25
 384 768 l 25xd2
 384 672 l 25xe2
 480 672 l 25
 480 576 l 25
 384 576 l 25xe1
 384 672 l 25xe2
 288 672 l 25
 288 576 l 25
 192 576 l 25
 192 672 l 25xe4
EndSplineSet
EndChar

StartChar: atilde
Encoding: 227 227 161
Width: 576
VWidth: 0
Flags: W
HStem: 0 96<201 401 500 600> 384 96<201 401> 576 96<100 201 300 401> 672 96<201 300 401 500>
VStem: 96 96<100 401 600 700> 192 96<700 801> 288 96<600 700> 384 96<100 401 700 801> 480 96<0 100>
LayerCount: 2
Back
Fore
SplineSet
96 384 m 25xc8
 192 384 l 25xc8
 192 480 l 25
 480 480 l 25xc480
 480 96 l 25xc1
 576 96 l 25
 576 0 l 25
 480 0 l 25xc080
 480 96 l 25
 384 96 l 25
 384 384 l 25
 192 384 l 25
 192 96 l 25xc9
 384 96 l 25
 384 0 l 25
 192 0 l 25xc5
 192 96 l 25
 96 96 l 25
 96 384 l 25xc8
96 672 m 25xe8
 192 672 l 25xe8
 192 768 l 25
 288 768 l 25xd4
 288 672 l 25xe4
 384 672 l 25xe2
 384 768 l 25
 480 768 l 25
 480 672 l 25xd1
 384 672 l 25
 384 576 l 25
 288 576 l 25xe2
 288 672 l 25xe4
 192 672 l 25
 192 576 l 25
 96 576 l 25
 96 672 l 25xe8
EndSplineSet
EndChar

StartChar: adieresis
Encoding: 228 228 162
Width: 576
VWidth: 0
Flags: W
HStem: 0 96<201 401 500 600> 384 96<201 401> 576 96<201 300 401 500>
VStem: 96 96<100 401> 192 96<600 700> 384 96<100 401 600 700> 480 96<0 100>
LayerCount: 2
Back
Fore
SplineSet
96 384 m 25xf0
 192 384 l 25xf0
 192 480 l 25
 480 480 l 25xea
 480 96 l 25xe4
 576 96 l 25
 576 0 l 25
 480 0 l 25xe2
 480 96 l 25
 384 96 l 25
 384 384 l 25
 192 384 l 25
 192 96 l 25xf4
 384 96 l 25
 384 0 l 25
 192 0 l 25xec
 192 96 l 25
 96 96 l 25
 96 384 l 25xf0
384 672 m 25xe4
 480 672 l 25
 480 576 l 25
 384 576 l 25
 384 672 l 25xe4
192 672 m 25xe8
 288 672 l 25
 288 576 l 25
 192 576 l 25
 192 672 l 25xe8
EndSplineSet
EndChar

StartChar: aring
Encoding: 229 229 163
Width: 576
VWidth: 0
Flags: W
HStem: 0 96<201 401 500 600> 384 96<201 300> 576 96<201 300 401 500> 672 96<300 401>
VStem: 96 96<100 401> 192 96<600 700> 288 96<500 600 700 801> 384 96<100 401 600 700> 480 96<0 100>
LayerCount: 2
Back
Fore
SplineSet
192 672 m 25xe4
 288 672 l 25xe4
 288 768 l 25
 384 768 l 25xd2
 384 672 l 25xe2
 288 672 l 25
 288 576 l 25xe4
 384 576 l 25
 384 672 l 25xe2
 480 672 l 25
 480 576 l 25xe1
 384 576 l 25
 384 480 l 25
 480 480 l 25xe280
 480 96 l 25xe1
 576 96 l 25
 576 0 l 25
 480 0 l 25xe080
 480 96 l 25
 384 96 l 25
 384 384 l 25
 192 384 l 25
 192 96 l 25xe9
 384 96 l 25
 384 0 l 25
 192 0 l 25xe5
 192 96 l 25
 96 96 l 25
 96 384 l 25
 192 384 l 25xe8
 192 480 l 25xe4
 288 480 l 25xe2
 288 576 l 25
 192 576 l 25
 192 672 l 25xe4
EndSplineSet
EndChar

StartChar: ae
Encoding: 230 230 164
Width: 576
VWidth: 0
Flags: W
HStem: 0 96<100 300 401 600> 96 96<0 100> 192 96<100 300 401 500> 384 96<100 300 401 500>
VStem: 0 96<100 201> 288 96<100 201 300 401> 480 96<300 401>
LayerCount: 2
Back
Fore
SplineSet
96 480 m 25x3e
 480 480 l 25
 480 384 l 25
 384 384 l 25
 384 288 l 25
 480 288 l 25
 480 384 l 25
 576 384 l 25
 576 192 l 25
 384 192 l 25
 384 96 l 25
 576 96 l 25
 576 0 l 25
 384 0 l 25
 384 96 l 25
 288 96 l 25
 288 0 l 25
 96 0 l 25
 96 96 l 25
 288 96 l 25
 288 192 l 25xbe
 96 192 l 25x5e
 96 96 l 25x9e
 0 96 l 25
 0 192 l 25
 96 192 l 25x5e
 96 288 l 25
 288 288 l 25
 288 384 l 25
 96 384 l 25
 96 480 l 25x3e
EndSplineSet
EndChar

StartChar: ccedilla
Encoding: 231 231 165
Width: 576
VWidth: 0
Flags: W
HStem: -192 96<201 300> 0 96<201 300 401 500> 384 96<201 500>
VStem: 96 96<100 401> 192 288<0 100 401 500> 192 96<-201 -100> 288 96<-100 0>
LayerCount: 2
Back
Fore
SplineSet
192 480 m 25xe8
 480 480 l 25
 480 384 l 25xe8
 192 384 l 25
 192 96 l 25xf0
 480 96 l 25
 480 0 l 25xe8
 384 0 l 25
 384 -96 l 25xe2
 288 -96 l 25
 288 -192 l 25
 192 -192 l 25
 192 -96 l 25
 288 -96 l 25xe4
 288 0 l 25xe2
 192 0 l 25xe8
 192 96 l 25
 96 96 l 25
 96 384 l 25
 192 384 l 25xf0
 192 480 l 25xe8
EndSplineSet
EndChar

StartChar: egrave
Encoding: 232 232 166
Width: 576
VWidth: 0
Flags: W
HStem: 0 96<201 500> 192 96<201 401> 384 96<201 401> 576 96<300 401> 672 96<201 300>
VStem: 96 96<100 201 300 401> 192 96<700 801> 288 96<600 700> 384 96<300 401>
LayerCount: 2
Back
Fore
SplineSet
192 480 m 25xe2
 384 480 l 25
 384 384 l 25
 192 384 l 25
 192 288 l 25
 384 288 l 25
 384 384 l 25
 480 384 l 25
 480 192 l 25
 192 192 l 25
 192 96 l 25xe480
 480 96 l 25
 480 0 l 25
 192 0 l 25xe280
 192 96 l 25
 96 96 l 25
 96 384 l 25
 192 384 l 25xe4
 192 480 l 25xe2
192 768 m 25xea
 288 768 l 25xea
 288 672 l 25xf2
 384 672 l 25
 384 576 l 25
 288 576 l 25xf1
 288 672 l 25xf2
 192 672 l 25
 192 768 l 25xea
EndSplineSet
EndChar

StartChar: eacute
Encoding: 233 233 167
Width: 576
VWidth: 0
Flags: W
HStem: 0 96<201 500> 192 96<201 401> 384 96<201 401> 576 96<201 300> 672 96<300 401>
VStem: 96 96<100 201 300 401> 192 96<600 700> 288 96<700 801> 384 96<300 401>
LayerCount: 2
Back
Fore
SplineSet
192 480 m 25xe2
 384 480 l 25
 384 384 l 25
 192 384 l 25
 192 288 l 25
 384 288 l 25
 384 384 l 25
 480 384 l 25
 480 192 l 25
 192 192 l 25
 192 96 l 25xe480
 480 96 l 25
 480 0 l 25
 192 0 l 25xe280
 192 96 l 25
 96 96 l 25
 96 384 l 25
 192 384 l 25xe4
 192 480 l 25xe2
192 672 m 25xf2
 288 672 l 25xf2
 288 768 l 25
 384 768 l 25
 384 672 l 25xe9
 288 672 l 25
 288 576 l 25
 192 576 l 25
 192 672 l 25xf2
EndSplineSet
EndChar

StartChar: ecircumflex
Encoding: 234 234 168
Width: 576
VWidth: 0
Flags: W
HStem: 0 96<201 500> 192 96<201 401> 384 96<201 401> 576 96<100 201 401 500> 672 96<201 401>
VStem: 96 96<100 201 300 401 600 700> 192 192<401 500 700 801> 384 96<300 401 600 700>
LayerCount: 2
Back
Fore
SplineSet
192 480 m 25xe2
 384 480 l 25
 384 384 l 25xe2
 192 384 l 25
 192 288 l 25
 384 288 l 25xe5
 384 384 l 25xe2
 480 384 l 25
 480 192 l 25
 192 192 l 25
 192 96 l 25
 480 96 l 25
 480 0 l 25xe5
 192 0 l 25xe2
 192 96 l 25
 96 96 l 25
 96 384 l 25
 192 384 l 25xe4
 192 480 l 25xe2
96 672 m 25xf4
 192 672 l 25xf4
 192 768 l 25
 384 768 l 25xea
 384 672 l 25xf2
 480 672 l 25
 480 576 l 25
 384 576 l 25xf1
 384 672 l 25xf2
 192 672 l 25
 192 576 l 25
 96 576 l 25
 96 672 l 25xf4
EndSplineSet
EndChar

StartChar: edieresis
Encoding: 235 235 169
Width: 576
VWidth: 0
Flags: W
HStem: 0 96<201 500> 192 96<201 401> 384 96<201 401> 576 96<100 201 401 500>
VStem: 96 96<100 201 300 401 600 700> 384 96<300 401 600 700>
LayerCount: 2
Back
Fore
SplineSet
192 480 m 25
 384 480 l 25
 384 384 l 25
 192 384 l 25
 192 288 l 25
 384 288 l 25
 384 384 l 25
 480 384 l 25
 480 192 l 25
 192 192 l 25
 192 96 l 25
 480 96 l 25
 480 0 l 25
 192 0 l 25
 192 96 l 25
 96 96 l 25
 96 384 l 25
 192 384 l 25
 192 480 l 25
384 672 m 25
 480 672 l 25
 480 576 l 25
 384 576 l 25
 384 672 l 25
96 672 m 25
 192 672 l 25
 192 576 l 25
 96 576 l 25
 96 672 l 25
EndSplineSet
EndChar

StartChar: igrave
Encoding: 236 236 170
Width: 576
VWidth: 0
Flags: W
HStem: 0 0G<300 401> 480 0G<300 401> 576 96<300 401> 672 96<201 300>
VStem: 192 96<700 801> 288 96<0 500 600 700>
LayerCount: 2
Back
Fore
SplineSet
288 480 m 25xc4
 384 480 l 25
 384 0 l 25
 288 0 l 25
 288 480 l 25xc4
192 768 m 25xd8
 288 768 l 25xd8
 288 672 l 25xe8
 384 672 l 25
 384 576 l 25
 288 576 l 25xe4
 288 672 l 25xe8
 192 672 l 25
 192 768 l 25xd8
EndSplineSet
EndChar

StartChar: iacute
Encoding: 237 237 171
Width: 576
VWidth: 0
Flags: W
HStem: 0 0G<300 401> 480 0G<300 401> 576 96<300 401> 672 96<401 500>
VStem: 288 96<0 500 600 700> 384 96<700 801>
LayerCount: 2
Back
Fore
SplineSet
288 480 m 25xc8
 384 480 l 25
 384 0 l 25
 288 0 l 25
 288 480 l 25xc8
384 768 m 25xd4
 480 768 l 25
 480 672 l 25xd4
 384 672 l 25
 384 576 l 25
 288 576 l 25
 288 672 l 25
 384 672 l 25xe8
 384 768 l 25xd4
EndSplineSet
EndChar

StartChar: icircumflex
Encoding: 238 238 172
Width: 576
VWidth: 0
Flags: W
HStem: 0 0G<300 401> 480 0G<300 401> 576 96<201 300 401 500> 672 96<300 401>
VStem: 192 96<600 700> 288 96<0 500 700 801> 384 96<600 700>
LayerCount: 2
Back
Fore
SplineSet
288 480 m 25xc4
 384 480 l 25
 384 0 l 25
 288 0 l 25
 288 480 l 25xc4
192 672 m 25xe8
 288 672 l 25xe8
 288 768 l 25
 384 768 l 25xd4
 384 672 l 25xe4
 480 672 l 25
 480 576 l 25
 384 576 l 25xe2
 384 672 l 25xe4
 288 672 l 25
 288 576 l 25
 192 576 l 25
 192 672 l 25xe8
EndSplineSet
EndChar

StartChar: idieresis
Encoding: 239 239 173
Width: 576
VWidth: 0
Flags: W
HStem: 0 0G<300 401> 480 0G<300 401> 576 96<201 300 401 500>
VStem: 192 96<600 700> 288 96<0 500> 384 96<600 700>
LayerCount: 2
Back
Fore
SplineSet
288 480 m 25xe8
 384 480 l 25
 384 0 l 25
 288 0 l 25
 288 480 l 25xe8
384 672 m 25xe4
 480 672 l 25
 480 576 l 25
 384 576 l 25
 384 672 l 25xe4
192 672 m 25xf0
 288 672 l 25
 288 576 l 25
 192 576 l 25
 192 672 l 25xf0
EndSplineSet
EndChar

StartChar: eth
Encoding: 240 240 174
Width: 576
VWidth: 0
Flags: W
HStem: 0 96<201 401> 96 96<100 201> 192 96<201 401> 384 96<300 401> 480 96<500 600> 576 96<300 401>
VStem: 96 96<100 201> 288 96<600 700> 384 96<100 201 300 401>
LayerCount: 2
Back
Fore
SplineSet
288 672 m 25x37
 384 672 l 25
 384 576 l 25x37
 576 576 l 25
 576 480 l 25
 480 480 l 25
 480 96 l 25x4a80
 384 96 l 25
 384 192 l 25xa280
 192 192 l 25x4280
 192 96 l 25
 384 96 l 25
 384 0 l 25
 192 0 l 25
 192 96 l 25x8280
 96 96 l 25
 96 192 l 25
 192 192 l 25x4280
 192 288 l 25
 384 288 l 25
 384 384 l 25x3280
 288 384 l 25
 288 480 l 25x33
 384 480 l 25x3280
 384 576 l 25
 288 576 l 25
 288 672 l 25x37
EndSplineSet
EndChar

StartChar: ntilde
Encoding: 241 241 175
Width: 576
VWidth: 0
Flags: W
HStem: 0 0G<100 201 401 500> 384 96<201 401> 576 96<100 201 300 401> 672 96<201 300 401 500>
VStem: 96 96<0 401 600 700> 288 96<600 700> 384 96<0 401 700 801>
LayerCount: 2
Back
Fore
SplineSet
96 480 m 25xca
 384 480 l 25
 384 384 l 25
 480 384 l 25
 480 0 l 25
 384 0 l 25
 384 384 l 25
 192 384 l 25
 192 0 l 25
 96 0 l 25
 96 480 l 25xca
96 672 m 25xec
 192 672 l 25xec
 192 768 l 25
 288 768 l 25xdc
 288 672 l 25
 384 672 l 25xec
 384 768 l 25
 480 768 l 25
 480 672 l 25xda
 384 672 l 25
 384 576 l 25
 288 576 l 25
 288 672 l 25
 192 672 l 25
 192 576 l 25
 96 576 l 25
 96 672 l 25xec
EndSplineSet
EndChar

StartChar: ograve
Encoding: 242 242 176
Width: 576
VWidth: 0
Flags: W
HStem: 0 96<201 401> 96 288<100 201 401 500> 384 96<201 300> 576 96<201 300>
VStem: 96 96<100 401> 192 96<600 700> 288 96<500 600> 384 96<100 401>
LayerCount: 2
Back
Fore
SplineSet
192 672 m 25x34
 288 672 l 25
 288 576 l 25x34
 384 576 l 25x32
 384 384 l 25
 192 384 l 25x59
 192 96 l 25
 384 96 l 25x99
 384 384 l 25
 480 384 l 25
 480 96 l 25x59
 384 96 l 25
 384 0 l 25
 192 0 l 25x95
 192 96 l 25x98
 96 96 l 25
 96 384 l 25
 192 384 l 25x58
 192 480 l 25x34
 288 480 l 25x32
 288 576 l 25
 192 576 l 25
 192 672 l 25x34
EndSplineSet
EndChar

StartChar: oacute
Encoding: 243 243 177
Width: 576
VWidth: 0
Flags: W
HStem: 0 96<201 401> 96 288<100 201 401 500> 384 96<300 401> 576 96<300 401>
VStem: 96 96<100 401> 192 96<500 600> 288 96<600 700> 384 96<100 401>
LayerCount: 2
Back
Fore
SplineSet
384 672 m 25x52
 384 576 l 25x52
 288 576 l 25
 288 480 l 25
 384 480 l 25x35
 384 384 l 25
 192 384 l 25x59
 192 96 l 25
 384 96 l 25x99
 384 384 l 25
 480 384 l 25
 480 96 l 25x59
 384 96 l 25
 384 0 l 25
 192 0 l 25x95
 192 96 l 25x98
 96 96 l 25
 96 384 l 25
 192 384 l 25x58
 192 576 l 25
 288 576 l 25x54
 288 672 l 25
 384 672 l 25x52
EndSplineSet
EndChar

StartChar: ocircumflex
Encoding: 244 244 178
Width: 576
VWidth: 0
Flags: W
HStem: 0 96<201 401> 96 288<100 201 401 500> 384 96<201 401> 576 96<100 201 401 500> 672 96<201 401>
VStem: 96 96<100 401 600 700> 192 192<0 100 401 500 700 801> 384 96<100 401 600 700>
LayerCount: 2
Back
Fore
SplineSet
192 480 m 25x22
 384 480 l 25x22
 384 384 l 25x42
 192 384 l 25x44
 192 96 l 25x84
 384 96 l 25x82
 384 384 l 25x42
 480 384 l 25
 480 96 l 25x41
 384 96 l 25
 384 0 l 25
 192 0 l 25x82
 192 96 l 25x84
 96 96 l 25
 96 384 l 25
 192 384 l 25x44
 192 480 l 25x22
96 672 m 25x14
 192 672 l 25x14
 192 768 l 25
 384 768 l 25x0a
 384 672 l 25x12
 480 672 l 25
 480 576 l 25
 384 576 l 25x11
 384 672 l 25x12
 192 672 l 25
 192 576 l 25
 96 576 l 25
 96 672 l 25x14
EndSplineSet
EndChar

StartChar: otilde
Encoding: 245 245 179
Width: 576
VWidth: 0
Flags: W
HStem: 0 96<201 401> 96 288<100 201 401 500> 384 96<201 401> 576 96<100 201 300 401> 672 96<201 300 401 500>
VStem: 96 96<100 401 600 700> 192 96<700 801> 288 96<600 700> 384 96<100 401 700 801>
LayerCount: 2
Back
Fore
SplineSet
192 480 m 25x22
 384 480 l 25x2280
 384 384 l 25
 192 384 l 25x4480
 192 96 l 25
 384 96 l 25x8480
 384 384 l 25
 480 384 l 25
 480 96 l 25x4480
 384 96 l 25
 384 0 l 25
 192 0 l 25x8280
 192 96 l 25x84
 96 96 l 25
 96 384 l 25
 192 384 l 25x44
 192 480 l 25x22
96 672 m 25x14
 192 672 l 25x14
 192 768 l 25
 288 768 l 25x0a
 288 672 l 25x12
 384 672 l 25x11
 384 768 l 25
 480 768 l 25
 480 672 l 25x0880
 384 672 l 25
 384 576 l 25
 288 576 l 25x11
 288 672 l 25x12
 192 672 l 25
 192 576 l 25
 96 576 l 25
 96 672 l 25x14
EndSplineSet
EndChar

StartChar: odieresis
Encoding: 246 246 180
Width: 576
VWidth: 0
Flags: W
HStem: 0 96<201 401> 96 288<100 201 401 500> 384 96<201 401> 576 96<100 201 401 500>
VStem: 96 96<100 401 600 700> 192 192<0 100 401 500> 384 96<100 401 600 700>
LayerCount: 2
Back
Fore
SplineSet
192 480 m 25x34
 384 480 l 25x34
 384 384 l 25x54
 192 384 l 25x58
 192 96 l 25x98
 384 96 l 25x94
 384 384 l 25x54
 480 384 l 25
 480 96 l 25x52
 384 96 l 25
 384 0 l 25
 192 0 l 25x94
 192 96 l 25x98
 96 96 l 25
 96 384 l 25
 192 384 l 25x58
 192 480 l 25x34
384 672 m 25x12
 480 672 l 25
 480 576 l 25
 384 576 l 25
 384 672 l 25x12
96 672 m 25x18
 192 672 l 25
 192 576 l 25
 96 576 l 25
 96 672 l 25x18
EndSplineSet
EndChar

StartChar: divide
Encoding: 247 247 181
Width: 576
VWidth: 0
Flags: W
HStem: 96 96<300 401> 288 96<100 600> 480 96<300 401>
VStem: 288 96<100 201 500 600>
LayerCount: 2
Back
Fore
SplineSet
288 192 m 25
 384 192 l 25
 384 96 l 25
 288 96 l 25
 288 192 l 25
96 384 m 25
 576 384 l 25
 576 288 l 25
 96 288 l 25
 96 384 l 25
288 576 m 25
 384 576 l 25
 384 480 l 25
 288 480 l 25
 288 576 l 25
EndSplineSet
EndChar

StartChar: oslash
Encoding: 248 248 182
Width: 576
VWidth: 0
Flags: W
HStem: -96 96<0 100> 0 96<201 401> 192 96<201 401> 384 96<201 401> 480 96<500 600>
VStem: 0 96<-100 0> 96 96<100 201 300 401> 384 96<100 201 300 401> 480 96<500 600>
LayerCount: 2
Back
Fore
SplineSet
192 480 m 25xb3
 480 480 l 25
 480 576 l 25
 576 576 l 25
 576 480 l 25
 480 480 l 25x2a80
 480 96 l 25
 384 96 l 25
 384 192 l 25
 192 192 l 25
 192 96 l 25
 384 96 l 25
 384 0 l 25x6b
 96 0 l 25
 96 -96 l 25
 0 -96 l 25
 0 0 l 25
 96 0 l 25xa5
 96 384 l 25
 192 384 l 25
 192 288 l 25
 384 288 l 25
 384 384 l 25
 192 384 l 25
 192 480 l 25xb3
EndSplineSet
EndChar

StartChar: ugrave
Encoding: 249 249 183
Width: 576
VWidth: 0
Flags: W
HStem: 0 96<201 401> 480 0G<100 201 401 500> 576 96<300 401> 672 96<201 300>
VStem: 96 96<100 500> 192 96<700 801> 288 96<600 700> 384 96<100 500>
LayerCount: 2
Back
Fore
SplineSet
384 480 m 25xc9
 480 480 l 25
 480 0 l 25
 192 0 l 25xc5
 192 96 l 25
 96 96 l 25
 96 480 l 25
 192 480 l 25
 192 96 l 25
 384 96 l 25
 384 480 l 25xc9
192 768 m 25xd4
 288 768 l 25xd4
 288 672 l 25xe4
 384 672 l 25
 384 576 l 25
 288 576 l 25xe2
 288 672 l 25xe4
 192 672 l 25
 192 768 l 25xd4
EndSplineSet
EndChar

StartChar: uacute
Encoding: 250 250 184
Width: 576
VWidth: 0
Flags: W
HStem: 0 96<201 401> 480 0G<100 201 401 500> 576 96<201 300> 672 96<300 401>
VStem: 96 96<100 500> 192 96<600 700> 288 96<700 801> 384 96<100 500>
LayerCount: 2
Back
Fore
SplineSet
384 480 m 25xc9
 480 480 l 25
 480 0 l 25
 192 0 l 25xc5
 192 96 l 25
 96 96 l 25
 96 480 l 25
 192 480 l 25
 192 96 l 25
 384 96 l 25
 384 480 l 25xc9
192 672 m 25xe4
 288 672 l 25xe4
 288 768 l 25
 384 768 l 25
 384 672 l 25xd2
 288 672 l 25
 288 576 l 25
 192 576 l 25
 192 672 l 25xe4
EndSplineSet
EndChar

StartChar: ucircumflex
Encoding: 251 251 185
Width: 576
VWidth: 0
Flags: W
HStem: 0 96<201 401> 480 0G<100 201 401 500> 576 96<100 201 401 500> 672 96<201 401>
VStem: 96 96<100 500 600 700> 384 96<100 500 600 700>
LayerCount: 2
Back
Fore
SplineSet
384 480 m 25xcc
 480 480 l 25
 480 0 l 25
 192 0 l 25
 192 96 l 25
 96 96 l 25
 96 480 l 25
 192 480 l 25
 192 96 l 25
 384 96 l 25
 384 480 l 25xcc
96 672 m 25xec
 192 672 l 25xec
 192 768 l 25
 384 768 l 25xdc
 384 672 l 25
 480 672 l 25
 480 576 l 25
 384 576 l 25
 384 672 l 25
 192 672 l 25
 192 576 l 25
 96 576 l 25
 96 672 l 25xec
EndSplineSet
EndChar

StartChar: udieresis
Encoding: 252 252 186
Width: 576
VWidth: 0
Flags: W
HStem: 0 96<201 401> 480 0G<100 201 401 500> 576 96<100 201 401 500>
VStem: 96 96<100 500 600 700> 384 96<100 500 600 700>
LayerCount: 2
Back
Fore
SplineSet
384 480 m 25
 480 480 l 25
 480 0 l 25
 192 0 l 25
 192 96 l 25
 96 96 l 25
 96 480 l 25
 192 480 l 25
 192 96 l 25
 384 96 l 25
 384 480 l 25
384 672 m 25
 480 672 l 25
 480 576 l 25
 384 576 l 25
 384 672 l 25
96 672 m 25
 192 672 l 25
 192 576 l 25
 96 576 l 25
 96 672 l 25
EndSplineSet
EndChar

StartChar: yacute
Encoding: 253 253 187
Width: 576
VWidth: 0
Flags: W
HStem: -96 96<201 401> 96 96<201 401> 480 0G<401 500> 480 96<201 300> 576 96<300 401>
VStem: 96 96<201 500> 192 96<500 600> 288 96<600 700> 384 96<0 100 201 500>
LayerCount: 2
Back
Fore
SplineSet
288 672 m 25xc9
 384 672 l 25
 384 576 l 25xc9
 288 576 l 25
 288 480 l 25xd2
 192 480 l 25
 192 192 l 25xd4
 384 192 l 25
 384 480 l 25
 480 480 l 25
 480 0 l 25
 384 0 l 25
 384 -96 l 25
 192 -96 l 25
 192 0 l 25
 384 0 l 25
 384 96 l 25
 192 96 l 25xe280
 192 192 l 25
 96 192 l 25
 96 480 l 25
 192 480 l 25xd4
 192 576 l 25
 288 576 l 25xd2
 288 672 l 25xc9
EndSplineSet
EndChar

StartChar: thorn
Encoding: 254 254 188
Width: 576
VWidth: 0
Flags: W
HStem: -96 0G<100 201> 96 96<201 401> 192 96<401 500> 576 0G<100 201>
VStem: 96 288<100 201 300 401> 96 96<-100 100 201 300 401 600> 384 96<201 300>
LayerCount: 2
Back
Fore
SplineSet
96 576 m 25xd4
 192 576 l 25
 192 384 l 25xd4
 384 384 l 25
 384 288 l 25xb8
 192 288 l 25xb4
 192 192 l 25xd4
 384 192 l 25xd8
 384 288 l 25xb8
 480 288 l 25
 480 192 l 25xb2
 384 192 l 25
 384 96 l 25xd8
 192 96 l 25
 192 -96 l 25
 96 -96 l 25
 96 576 l 25xd4
EndSplineSet
EndChar

StartChar: ydieresis
Encoding: 255 255 189
Width: 576
VWidth: 0
Flags: W
HStem: -96 96<201 401> 96 96<201 401> 480 0G<100 201 401 500> 576 96<100 201 401 500>
VStem: 96 96<201 500 600 700> 384 96<0 100 201 500 600 700>
LayerCount: 2
Back
Fore
SplineSet
96 480 m 25
 192 480 l 25
 192 192 l 25
 384 192 l 25
 384 480 l 25
 480 480 l 25
 480 0 l 25
 384 0 l 25
 384 -96 l 25
 192 -96 l 25
 192 0 l 25
 384 0 l 25
 384 96 l 25
 192 96 l 25
 192 192 l 25
 96 192 l 25
 96 480 l 25
384 672 m 25
 480 672 l 25
 480 576 l 25
 384 576 l 25
 384 672 l 25
96 672 m 25
 192 672 l 25
 192 576 l 25
 96 576 l 25
 96 672 l 25
EndSplineSet
EndChar

StartChar: uni0185
Encoding: 270 389 262
Width: 576
VWidth: 0
Flags: W
LayerCount: 2
Back
SplineSet
0 8.10546875 m 29
 6.15234375 8.10546875 l 25
 6.15234375 -2.05078125 l 25
 0 -2.05078125 l 25
 0 8.10546875 l 29
EndSplineSet
EndChar

StartChar: pi
Encoding: 402 960 401
Width: 576
VWidth: 0
Flags: W
HStem: 0 96<401 500> 384 96<0 100 201 300 401 500>
VStem: 96 96<0 401> 288 96<100 401> 384 96<0 100>
LayerCount: 2
Back
Fore
SplineSet
0 480 m 25xf0
 480 480 l 25
 480 384 l 25xe8
 384 384 l 25
 384 96 l 25xf0
 480 96 l 25
 480 0 l 25
 384 0 l 25xe8
 384 96 l 25
 288 96 l 25
 288 384 l 25
 192 384 l 25
 192 0 l 25
 96 0 l 25
 96 384 l 25
 0 384 l 25
 0 480 l 25xf0
EndSplineSet
EndChar

StartChar: arrowup
Encoding: 403 8593 402
Width: 576
VWidth: 0
Flags: W
HStem: 0 0G<300 401> 384 96<100 201 500 600> 480 96<201 300 401 500> 672 0G<300 401>
VStem: 96 96<401 500> 288 96<0 500 600 700> 480 96<401 500>
CounterMasks: 1 0e
LayerCount: 2
Back
Fore
SplineSet
96 480 m 25xde
 192 480 l 25xde
 192 576 l 25
 288 576 l 25
 288 672 l 25
 384 672 l 25
 384 576 l 25
 480 576 l 25xbe
 480 480 l 25
 576 480 l 25
 576 384 l 25
 480 384 l 25
 480 480 l 25xde
 384 480 l 25
 384 0 l 25
 288 0 l 25
 288 480 l 25xbe
 192 480 l 25
 192 384 l 25
 96 384 l 25
 96 480 l 25xde
EndSplineSet
EndChar

StartChar: arrowdown
Encoding: 404 8595 403
Width: 576
VWidth: 0
Flags: W
HStem: 0 0G<300 401> 96 96<201 300 401 500> 192 96<100 201 500 600> 672 0G<300 401>
VStem: 96 96<201 300> 288 96<0 100 201 700> 480 96<201 300>
CounterMasks: 1 0e
LayerCount: 2
Back
Fore
SplineSet
288 672 m 25xde
 384 672 l 25
 384 192 l 25
 480 192 l 25xde
 480 288 l 25
 576 288 l 25
 576 192 l 25xbe
 480 192 l 25
 480 96 l 25
 384 96 l 25
 384 0 l 25
 288 0 l 25
 288 96 l 25
 192 96 l 25
 192 192 l 25xde
 96 192 l 25
 96 288 l 25
 192 288 l 25xbe
 192 192 l 25
 288 192 l 25
 288 672 l 25xde
EndSplineSet
EndChar

StartChar: lessequal
Encoding: 405 8804 404
Width: 576
VWidth: 0
Flags: W
HStem: -192 96<201 300> -96 96<100 201> 0 96<0 100 300 401> 96 96<201 300> 192 96<100 201> 384 96<100 201> 480 96<201 300> 576 96<300 401>
VStem: 0 96<0 100 300 401> 96 96<-100 0 201 300 401 500> 192 96<-201 -100 100 201 500 600> 288 96<0 100 600 700>
LayerCount: 2
Back
Fore
SplineSet
0 96 m 25x2080
 96 96 l 25x2080
 96 0 l 25x4080
 192 0 l 25x4040
 192 -96 l 25x8040
 288 -96 l 25
 288 -192 l 25
 192 -192 l 25x8020
 192 -96 l 25x8040
 96 -96 l 25x4040
 96 0 l 25x4080
 0 0 l 25
 0 96 l 25x2080
288 672 m 25x0110
 384 672 l 25
 384 576 l 25x0110
 288 576 l 25
 288 480 l 25x0220
 192 480 l 25
 192 384 l 25x0440
 96 384 l 25
 96 288 l 25x0c80
 192 288 l 25x0c40
 192 192 l 25x1040
 288 192 l 25x1020
 288 96 l 25x2020
 384 96 l 25
 384 0 l 25
 288 0 l 25x2010
 288 96 l 25x2020
 192 96 l 25x1020
 192 192 l 25x1040
 96 192 l 25x0840
 96 288 l 25
 0 288 l 25
 0 384 l 25
 96 384 l 25x0c80
 96 480 l 25
 192 480 l 25x0c40
 192 576 l 25
 288 576 l 25x0220
 288 672 l 25x0110
EndSplineSet
EndChar

StartChar: greaterequal
Encoding: 406 8805 405
Width: 576
VWidth: 0
Flags: W
HStem: -192 96<201 300> -96 96<300 401> 0 96<100 201 401 500> 96 96<201 300> 192 96<300 401> 384 96<300 401> 480 96<201 300> 576 96<100 201>
VStem: 96 96<0 100 600 700> 192 96<-201 -100 100 201 500 600> 288 96<-100 0 201 300 401 500> 384 96<0 100 300 401>
LayerCount: 2
Back
Fore
SplineSet
384 96 m 25x2010
 480 96 l 25
 480 0 l 25x2010
 384 0 l 25
 384 -96 l 25x4020
 288 -96 l 25
 288 -192 l 25
 192 -192 l 25
 192 -96 l 25
 288 -96 l 25x8040
 288 0 l 25
 384 0 l 25x4020
 384 96 l 25x2010
96 672 m 25x0180
 192 672 l 25x0180
 192 576 l 25x0280
 288 576 l 25x0240
 288 480 l 25x0440
 384 480 l 25
 384 384 l 25x0420
 480 384 l 25
 480 288 l 25x0c10
 384 288 l 25
 384 192 l 25x0c20
 288 192 l 25
 288 96 l 25x1040
 192 96 l 25
 192 0 l 25
 96 0 l 25
 96 96 l 25
 192 96 l 25x2080
 192 192 l 25
 288 192 l 25x1040
 288 288 l 25
 384 288 l 25
 384 384 l 25
 288 384 l 25x0c20
 288 480 l 25x0c40
 192 480 l 25x0240
 192 576 l 25x0280
 96 576 l 25
 96 672 l 25x0180
EndSplineSet
EndChar

StartChar: SF100000
Encoding: 407 9472 406
Width: 576
VWidth: 0
Flags: W
HStem: 288 96<0 600>
LayerCount: 2
Back
Fore
SplineSet
0 384 m 25
 576 384 l 25
 576 288 l 25
 0 288 l 25
 0 384 l 25
EndSplineSet
EndChar

StartChar: uni2501
Encoding: 408 9473 407
Width: 576
VWidth: 0
Flags: W
HStem: 192 192<0 600>
LayerCount: 2
Back
Fore
SplineSet
0 384 m 25
 576 384 l 25
 576 192 l 25
 0 192 l 25
 0 384 l 25
EndSplineSet
EndChar

StartChar: SF110000
Encoding: 409 9474 408
Width: 576
VWidth: 0
Flags: W
VStem: 192 96<-201 801>
LayerCount: 2
Back
Fore
SplineSet
192 768 m 1
 288 768 l 5
 288 -192 l 1
 192 -192 l 1
 192 768 l 1
EndSplineSet
EndChar

StartChar: uni2503
Encoding: 410 9475 409
Width: 576
VWidth: 0
Flags: W
VStem: 192 192<-201 801>
LayerCount: 2
Back
Fore
SplineSet
192 768 m 1
 384 768 l 5
 384 -192 l 1
 192 -192 l 1
 192 768 l 1
EndSplineSet
EndChar

StartChar: uni2504
Encoding: 411 9476 410
Width: 576
VWidth: 0
Flags: W
HStem: 288 96<0 100 201 300 401 500>
VStem: 0 96<300 401> 192 96<300 401> 384 96<300 401>
CounterMasks: 1 70
LayerCount: 2
Back
Fore
SplineSet
480 288 m 25
 384 288 l 25
 384 384 l 25
 480 384 l 25
 480 288 l 25
288 384 m 25
 288 288 l 25
 192 288 l 25
 192 384 l 25
 288 384 l 25
0 384 m 25
 96 384 l 25
 96 288 l 25
 0 288 l 25
 0 384 l 25
EndSplineSet
EndChar

StartChar: uni2505
Encoding: 412 9477 411
Width: 576
VWidth: 0
Flags: W
HStem: 192 192<0 100 201 300 401 500>
VStem: 0 96<201 401> 192 96<201 401> 384 96<201 401>
CounterMasks: 1 70
LayerCount: 2
Back
Fore
SplineSet
384 384 m 25
 480 384 l 25
 480 192 l 25
 384 192 l 25
 384 384 l 25
192 384 m 25
 288 384 l 25
 288 192 l 25
 192 192 l 25
 192 384 l 25
0 384 m 25
 96 384 l 25
 96 192 l 25
 0 192 l 25
 0 384 l 25
EndSplineSet
EndChar

StartChar: uni2506
Encoding: 413 9478 412
Width: 576
VWidth: 0
Flags: W
HStem: 0 0G<201 300> 480 0G<201 300> 576 0G<201 300>
VStem: 192 96<-201 0 100 500 600 801>
LayerCount: 2
Back
Fore
SplineSet
192 0 m 25
 288 0 l 25
 288 -192 l 25
 192 -192 l 25
 192 0 l 25
192 480 m 25
 288 480 l 25
 288 96 l 25
 192 96 l 25
 192 480 l 25
192 768 m 1
 288 768 l 5
 288 576 l 1
 192 576 l 1
 192 768 l 1
EndSplineSet
EndChar

StartChar: uni2507
Encoding: 414 9479 413
Width: 576
VWidth: 0
Flags: W
HStem: -192 192<201 401> 480 0G<201 401> 576 192<201 401>
VStem: 192 192<-201 0 100 500 600 801>
LayerCount: 2
Back
Fore
SplineSet
192 0 m 25
 384 0 l 25
 384 -192 l 25
 192 -192 l 25
 192 0 l 25
192 480 m 25
 384 480 l 25
 384 96 l 25
 192 96 l 25
 192 480 l 25
192 768 m 1
 384 768 l 5
 384 576 l 1
 192 576 l 1
 192 768 l 1
EndSplineSet
EndChar

StartChar: uni2508
Encoding: 415 9480 414
Width: 576
VWidth: 0
Flags: W
HStem: 288 96<0 100 201 300 401 500>
VStem: 0 96<300 401> 192 96<300 401> 384 96<300 401>
CounterMasks: 1 70
LayerCount: 2
Back
Fore
SplineSet
384 384 m 25
 480 384 l 25
 480 288 l 25
 384 288 l 25
 384 384 l 25
192 384 m 25
 288 384 l 25
 288 288 l 25
 192 288 l 25
 192 384 l 25
0 384 m 25
 96 384 l 25
 96 288 l 25
 0 288 l 25
 0 384 l 25
EndSplineSet
EndChar

StartChar: uni2509
Encoding: 416 9481 415
Width: 576
VWidth: 0
Flags: W
HStem: 192 192<0 100 201 300 401 500>
VStem: 0 96<201 401> 192 96<201 401> 384 96<201 401>
CounterMasks: 1 70
LayerCount: 2
Back
Fore
SplineSet
384 384 m 25
 480 384 l 25
 480 192 l 25
 384 192 l 25
 384 384 l 25
192 384 m 25
 288 384 l 25
 288 192 l 25
 192 192 l 25
 192 384 l 25
0 384 m 25
 96 384 l 25
 96 192 l 25
 0 192 l 25
 0 384 l 25
EndSplineSet
EndChar

StartChar: uni250A
Encoding: 417 9482 416
Width: 576
VWidth: 0
Flags: W
HStem: -192 96<201 300> 0 0G<201 300> 480 0G<201 300> 576 0G<201 300>
VStem: 192 96<-201 -100 0 201 300 500 600 801>
LayerCount: 2
Back
Fore
SplineSet
192 -96 m 25
 288 -96 l 25
 288 -192 l 25
 192 -192 l 25
 192 -96 l 25
192 192 m 25
 288 192 l 25
 288 0 l 25
 192 0 l 25
 192 192 l 25
192 480 m 25
 288 480 l 25
 288 288 l 25
 192 288 l 25
 192 480 l 25
192 768 m 1
 288 768 l 5
 288 576 l 1
 192 576 l 1
 192 768 l 1
EndSplineSet
EndChar

StartChar: uni250B
Encoding: 418 9483 417
Width: 576
VWidth: 0
Flags: W
HStem: -192 96<201 401> 0 192<201 401> 288 192<201 401> 576 192<201 401>
VStem: 192 192<-201 -100 0 201 300 500 600 801>
LayerCount: 2
Back
Fore
SplineSet
192 -96 m 25
 384 -96 l 25
 384 -192 l 25
 192 -192 l 25
 192 -96 l 25
192 192 m 25
 384 192 l 25
 384 0 l 25
 192 0 l 25
 192 192 l 25
192 480 m 25
 384 480 l 25
 384 288 l 25
 192 288 l 25
 192 480 l 25
192 768 m 1
 384 768 l 5
 384 576 l 1
 192 576 l 1
 192 768 l 1
EndSplineSet
EndChar

StartChar: SF010000
Encoding: 419 9484 418
Width: 576
VWidth: 0
Flags: W
HStem: 288 96<300 600>
VStem: 192 96<-201 300>
LayerCount: 2
Back
Fore
SplineSet
192 384 m 25
 576 384 l 25
 576 288 l 25
 288 288 l 25
 288 -192 l 25
 192 -192 l 25
 192 384 l 25
EndSplineSet
EndChar

StartChar: uni250D
Encoding: 420 9485 419
Width: 576
VWidth: 0
Flags: W
HStem: 192 192<300 600>
VStem: 192 96<-201 201>
LayerCount: 2
Back
Fore
SplineSet
192 384 m 25
 576 384 l 25
 576 192 l 25
 288 192 l 25
 288 -192 l 25
 192 -192 l 25
 192 384 l 25
EndSplineSet
EndChar

StartChar: uni250E
Encoding: 421 9486 420
Width: 576
VWidth: 0
Flags: W
HStem: 288 96<401 600>
VStem: 192 192<-201 300>
LayerCount: 2
Back
Fore
SplineSet
192 384 m 25
 576 384 l 25
 576 288 l 25
 384 288 l 25
 384 -192 l 25
 192 -192 l 25
 192 384 l 25
EndSplineSet
EndChar

StartChar: uni250F
Encoding: 422 9487 421
Width: 576
VWidth: 0
Flags: W
HStem: 192 192<401 600>
VStem: 192 192<-201 201>
LayerCount: 2
Back
Fore
SplineSet
192 384 m 25
 576 384 l 25
 576 192 l 25
 384 192 l 25
 384 -192 l 25
 192 -192 l 25
 192 384 l 25
EndSplineSet
EndChar

StartChar: SF030000
Encoding: 423 9488 422
Width: 576
VWidth: 0
Flags: W
HStem: 288 96<0 201>
VStem: 192 96<-201 300>
LayerCount: 2
Back
Fore
SplineSet
0 384 m 25
 288 384 l 25
 288 -192 l 25
 192 -192 l 25
 192 288 l 25
 0 288 l 25
 0 384 l 25
EndSplineSet
EndChar

StartChar: uni2511
Encoding: 424 9489 423
Width: 576
VWidth: 0
Flags: W
HStem: 192 192<0 201>
VStem: 0 288<201 401> 192 96<-201 201>
LayerCount: 2
Back
Fore
SplineSet
0 384 m 25xc0
 288 384 l 25xc0
 288 -192 l 25
 192 -192 l 25
 192 192 l 25xa0
 0 192 l 25
 0 384 l 25xc0
EndSplineSet
EndChar

StartChar: uni2512
Encoding: 425 9490 424
Width: 576
VWidth: 0
Flags: W
HStem: 288 96<0 201>
VStem: 192 192<-201 300>
LayerCount: 2
Back
Fore
SplineSet
0 384 m 25
 384 384 l 25
 384 -192 l 25
 192 -192 l 25
 192 288 l 25
 0 288 l 25
 0 384 l 25
EndSplineSet
EndChar

StartChar: uni2513
Encoding: 426 9491 425
Width: 576
VWidth: 0
Flags: W
HStem: 192 192<0 201>
VStem: 192 192<-201 201>
LayerCount: 2
Back
Fore
SplineSet
0 384 m 25
 384 384 l 25
 384 -192 l 25
 192 -192 l 25
 192 192 l 25
 0 192 l 25
 0 384 l 25
EndSplineSet
EndChar

StartChar: SF020000
Encoding: 427 9492 426
Width: 576
VWidth: 0
Flags: W
HStem: 288 96<300 600>
VStem: 192 96<401 801>
LayerCount: 2
Back
Fore
SplineSet
192 768 m 5
 288 768 l 1
 288 384 l 1
 576 384 l 25
 576 288 l 25
 192 288 l 1
 192 768 l 5
EndSplineSet
EndChar

StartChar: uni2515
Encoding: 428 9493 427
Width: 576
VWidth: 0
Flags: W
HStem: 192 192<300 600>
VStem: 192 96<401 801>
LayerCount: 2
Back
Fore
SplineSet
192 768 m 1
 288 768 l 5
 288 384 l 1
 576 384 l 25
 576 192 l 25
 192 192 l 1
 192 768 l 1
EndSplineSet
EndChar

StartChar: uni2516
Encoding: 429 9494 428
Width: 576
VWidth: 0
Flags: W
HStem: 288 96<401 600>
VStem: 192 192<401 801>
LayerCount: 2
Back
Fore
SplineSet
192 768 m 1
 384 768 l 5
 384 384 l 1
 576 384 l 25
 576 288 l 25
 192 288 l 1
 192 768 l 1
EndSplineSet
EndChar

StartChar: uni2517
Encoding: 430 9495 429
Width: 576
VWidth: 0
Flags: W
HStem: 192 192<401 600>
VStem: 192 192<401 801>
LayerCount: 2
Back
Fore
SplineSet
192 768 m 1
 384 768 l 5
 384 384 l 1
 576 384 l 25
 576 192 l 25
 192 192 l 1
 192 768 l 1
EndSplineSet
EndChar

StartChar: SF040000
Encoding: 431 9496 430
Width: 576
VWidth: 0
Flags: W
HStem: 288 96<0 201>
VStem: 192 96<401 801>
LayerCount: 2
Back
Fore
SplineSet
192 768 m 1
 288 768 l 5
 288 288 l 1
 0 288 l 25
 0 384 l 25
 192 384 l 1
 192 768 l 1
EndSplineSet
EndChar

StartChar: uni2519
Encoding: 432 9497 431
Width: 576
VWidth: 0
Flags: W
HStem: 192 192<0 201>
VStem: 0 288<201 401> 192 96<401 801>
LayerCount: 2
Back
Fore
SplineSet
192 768 m 1xa0
 288 768 l 5xa0
 288 192 l 1
 0 192 l 25
 0 384 l 25xc0
 192 384 l 1
 192 768 l 1xa0
EndSplineSet
EndChar

StartChar: uni251A
Encoding: 433 9498 432
Width: 576
VWidth: 0
Flags: W
HStem: 288 96<0 201>
VStem: 192 192<401 801>
LayerCount: 2
Back
Fore
SplineSet
192 768 m 1
 384 768 l 5
 384 288 l 1
 0 288 l 25
 0 384 l 25
 192 384 l 1
 192 768 l 1
EndSplineSet
EndChar

StartChar: uni251B
Encoding: 434 9499 433
Width: 576
VWidth: 0
Flags: W
HStem: 192 192<0 201>
VStem: 192 192<401 801>
LayerCount: 2
Back
Fore
SplineSet
192 768 m 5
 384 768 l 1
 384 192 l 1
 0 192 l 25
 0 384 l 25
 192 384 l 1
 192 768 l 5
EndSplineSet
EndChar

StartChar: SF080000
Encoding: 435 9500 434
Width: 576
VWidth: 0
Flags: W
HStem: 288 96<300 600>
VStem: 192 96<-201 300 401 801>
LayerCount: 2
Back
Fore
SplineSet
192 768 m 1
 288 768 l 5
 288 384 l 1
 576 384 l 25
 576 288 l 25
 288 288 l 25
 288 -192 l 25
 192 -192 l 1
 192 768 l 1
EndSplineSet
EndChar

StartChar: uni251D
Encoding: 436 9501 435
Width: 576
VWidth: 0
Flags: W
HStem: 192 192<300 600>
VStem: 192 96<-201 201 401 801>
LayerCount: 2
Back
Fore
SplineSet
192 768 m 1
 288 768 l 5
 288 384 l 1
 576 384 l 25
 576 192 l 25
 288 192 l 25
 288 -192 l 25
 192 -192 l 1
 192 768 l 1
EndSplineSet
EndChar

StartChar: uni251E
Encoding: 437 9502 436
Width: 576
VWidth: 0
Flags: W
HStem: 288 96<401 600>
VStem: 192 192<401 801> 192 96<-201 300>
LayerCount: 2
Back
Fore
SplineSet
192 768 m 1xc0
 384 768 l 5
 384 384 l 1xc0
 576 384 l 25
 576 288 l 25
 288 288 l 25
 288 -192 l 25
 192 -192 l 1xa0
 192 768 l 1xc0
EndSplineSet
EndChar

StartChar: uni251F
Encoding: 438 9503 437
Width: 576
VWidth: 0
Flags: W
HStem: 288 96<401 600>
VStem: 192 192<-201 300> 192 96<401 801>
LayerCount: 2
Back
Fore
SplineSet
192 768 m 1xa0
 288 768 l 5
 288 384 l 1xa0
 576 384 l 25
 576 288 l 25
 384 288 l 25
 384 -192 l 25
 192 -192 l 1xc0
 192 768 l 1xa0
EndSplineSet
EndChar

StartChar: uni2520
Encoding: 439 9504 438
Width: 576
VWidth: 0
Flags: W
HStem: 288 96<401 600>
VStem: 192 192<-201 300 401 801>
LayerCount: 2
Back
Fore
SplineSet
192 768 m 1
 384 768 l 5
 384 384 l 1
 576 384 l 25
 576 288 l 25
 384 288 l 25
 384 -192 l 25
 192 -192 l 1
 192 768 l 1
EndSplineSet
EndChar

StartChar: uni2521
Encoding: 440 9505 439
Width: 576
VWidth: 0
Flags: W
HStem: 192 192<401 600>
VStem: 192 192<401 801> 192 96<-201 201>
LayerCount: 2
Back
Fore
SplineSet
192 768 m 1xc0
 384 768 l 5
 384 384 l 1xc0
 576 384 l 25
 576 192 l 25
 288 192 l 25
 288 -192 l 25
 192 -192 l 1xa0
 192 768 l 1xc0
EndSplineSet
EndChar

StartChar: uni2522
Encoding: 441 9506 440
Width: 576
VWidth: 0
Flags: W
HStem: 192 192<401 600>
VStem: 192 192<-201 201> 192 96<401 801>
LayerCount: 2
Back
Fore
SplineSet
192 768 m 1xa0
 288 768 l 5
 288 384 l 1xa0
 576 384 l 25
 576 192 l 25
 384 192 l 25
 384 -192 l 25
 192 -192 l 1xc0
 192 768 l 1xa0
EndSplineSet
EndChar

StartChar: uni2523
Encoding: 442 9507 441
Width: 576
VWidth: 0
Flags: W
HStem: 192 192<401 600>
VStem: 192 192<-201 201 401 801>
LayerCount: 2
Back
Fore
SplineSet
192 768 m 29
 384 768 l 29
 384 384 l 1
 576 384 l 25
 576 192 l 25
 384 192 l 25
 384 -192 l 25
 192 -192 l 1
 192 768 l 29
EndSplineSet
EndChar

StartChar: SF090000
Encoding: 443 9508 442
Width: 576
VWidth: 0
Flags: W
HStem: 288 96<0 201>
VStem: 192 96<-201 300 401 801>
LayerCount: 2
Back
Fore
SplineSet
192 768 m 1
 288 768 l 5
 288 -192 l 1
 192 -192 l 25
 192 288 l 25
 0 288 l 25
 0 384 l 25
 192 384 l 1
 192 768 l 1
EndSplineSet
EndChar

StartChar: uni2525
Encoding: 444 9509 443
Width: 576
VWidth: 0
Flags: W
HStem: 192 192<0 201>
VStem: 0 288<201 401> 192 96<-201 201 401 801>
LayerCount: 2
Back
Fore
SplineSet
192 768 m 1xa0
 288 768 l 5
 288 -192 l 1
 192 -192 l 25
 192 192 l 25xa0
 0 192 l 25
 0 384 l 25xc0
 192 384 l 1
 192 768 l 1xa0
EndSplineSet
EndChar

StartChar: uni2526
Encoding: 445 9510 444
Width: 576
VWidth: 0
Flags: W
HStem: 288 96<0 201>
VStem: 192 192<401 801> 192 96<-201 300>
LayerCount: 2
Back
Fore
SplineSet
192 768 m 1xc0
 384 768 l 5
 384 384 l 1xc0
 288 384 l 25
 288 -192 l 25
 192 -192 l 25
 192 288 l 25xa0
 0 288 l 25
 0 384 l 25
 192 384 l 1
 192 768 l 1xc0
EndSplineSet
EndChar

StartChar: uni2527
Encoding: 446 9511 445
Width: 576
VWidth: 0
Flags: W
HStem: 288 96<0 201>
VStem: 192 192<-201 300> 192 96<401 801>
LayerCount: 2
Back
Fore
SplineSet
192 768 m 1xa0
 288 768 l 5
 288 288 l 1xa0
 384 288 l 25
 384 -192 l 25
 192 -192 l 25
 192 288 l 25xc0
 0 288 l 25
 0 384 l 25
 192 384 l 1
 192 768 l 1xa0
EndSplineSet
EndChar

StartChar: uni2528
Encoding: 447 9512 446
Width: 576
VWidth: 0
Flags: W
HStem: 288 96<0 201>
VStem: 192 192<-201 300 401 801>
LayerCount: 2
Back
Fore
SplineSet
192 768 m 1
 384 768 l 5
 384 -192 l 1
 192 -192 l 25
 192 288 l 25
 0 288 l 25
 0 384 l 25
 192 384 l 1
 192 768 l 1
EndSplineSet
EndChar

StartChar: uni2529
Encoding: 448 9513 447
Width: 576
VWidth: 0
Flags: W
HStem: 192 192<0 201>
VStem: 192 192<401 801> 192 96<-201 201>
LayerCount: 2
Back
Fore
SplineSet
192 768 m 1xc0
 384 768 l 5
 384 192 l 1xc0
 288 192 l 25
 288 -192 l 25
 192 -192 l 25
 192 192 l 25xa0
 0 192 l 25
 0 384 l 25
 192 384 l 1
 192 768 l 1xc0
EndSplineSet
EndChar

StartChar: uni252A
Encoding: 449 9514 448
Width: 576
VWidth: 0
Flags: W
HStem: 192 192<0 201>
VStem: 192 192<-201 201> 192 96<401 801>
LayerCount: 2
Back
Fore
SplineSet
192 768 m 29xa0
 288 768 l 29
 288 384 l 1xa0
 384 384 l 25
 384 -192 l 25
 192 -192 l 25
 192 192 l 25xc0
 0 192 l 25
 0 384 l 25
 192 384 l 1
 192 768 l 29xa0
EndSplineSet
EndChar

StartChar: uni252B
Encoding: 450 9515 449
Width: 576
VWidth: 0
Flags: W
HStem: 192 192<0 201>
VStem: 192 192<-201 201 401 801>
LayerCount: 2
Back
Fore
SplineSet
192 768 m 29
 384 768 l 29
 384 -192 l 1
 192 -192 l 25
 192 192 l 25
 0 192 l 25
 0 384 l 25
 192 384 l 1
 192 768 l 29
EndSplineSet
EndChar

StartChar: SF060000
Encoding: 451 9516 450
Width: 576
VWidth: 0
Flags: W
HStem: 288 96<0 201 300 600>
VStem: 192 96<-201 300>
LayerCount: 2
Back
Fore
SplineSet
0 384 m 25
 576 384 l 25
 576 288 l 25
 288 288 l 25
 288 -192 l 25
 192 -192 l 25
 192 288 l 25
 0 288 l 25
 0 384 l 25
EndSplineSet
EndChar

StartChar: uni252D
Encoding: 452 9517 451
Width: 576
VWidth: 0
Flags: W
HStem: 192 192<0 201> 288 96<300 600>
VStem: 192 96<-201 201>
LayerCount: 2
Back
Fore
SplineSet
0 384 m 25xa0
 576 384 l 25
 576 288 l 25
 288 288 l 25x60
 288 -192 l 25
 192 -192 l 25
 192 192 l 25
 0 192 l 25
 0 384 l 25xa0
EndSplineSet
EndChar

StartChar: uni252E
Encoding: 453 9518 452
Width: 576
VWidth: 0
Flags: W
HStem: 192 192<300 600> 288 96<0 201>
VStem: 192 96<-201 201>
LayerCount: 2
Back
Fore
SplineSet
0 384 m 25x60
 576 384 l 25
 576 192 l 25
 288 192 l 25xa0
 288 -192 l 25
 192 -192 l 25
 192 288 l 25
 0 288 l 25
 0 384 l 25x60
EndSplineSet
EndChar

StartChar: uni252F
Encoding: 454 9519 453
Width: 576
VWidth: 0
Flags: W
HStem: 192 192<0 201 300 600>
VStem: 192 96<-201 201>
LayerCount: 2
Back
Fore
SplineSet
0 384 m 25
 576 384 l 25
 576 192 l 25
 288 192 l 25
 288 -192 l 25
 192 -192 l 25
 192 192 l 25
 0 192 l 25
 0 384 l 25
EndSplineSet
EndChar

StartChar: uni2530
Encoding: 455 9520 454
Width: 576
VWidth: 0
Flags: W
HStem: 288 96<0 201 401 600>
VStem: 192 192<-201 300>
LayerCount: 2
Back
Fore
SplineSet
0 384 m 25
 576 384 l 25
 576 288 l 25
 384 288 l 25
 384 -192 l 25
 192 -192 l 25
 192 288 l 25
 0 288 l 25
 0 384 l 25
EndSplineSet
EndChar

StartChar: uni2531
Encoding: 456 9521 455
Width: 576
VWidth: 0
Flags: W
HStem: 192 192<0 201> 288 96<401 600>
VStem: 192 192<-201 201>
LayerCount: 2
Back
Fore
SplineSet
0 384 m 25xa0
 576 384 l 25
 576 288 l 25
 384 288 l 25x60
 384 -192 l 25
 192 -192 l 25
 192 192 l 25
 0 192 l 25
 0 384 l 25xa0
EndSplineSet
EndChar

StartChar: uni2532
Encoding: 457 9522 456
Width: 576
VWidth: 0
Flags: W
HStem: 192 192<401 600> 288 96<0 201>
VStem: 192 192<-201 201>
LayerCount: 2
Back
Fore
SplineSet
0 384 m 1x60
 576 384 l 1
 576 192 l 1
 384 192 l 1xa0
 384 -192 l 1
 192 -192 l 1
 192 288 l 1
 0 288 l 1
 0 384 l 1x60
EndSplineSet
EndChar

StartChar: uni2533
Encoding: 458 9523 457
Width: 576
VWidth: 0
Flags: W
HStem: 192 192<0 201 401 600>
VStem: 192 192<-201 201>
LayerCount: 2
Back
Fore
SplineSet
0 384 m 25
 576 384 l 25
 576 192 l 25
 384 192 l 25
 384 -192 l 25
 192 -192 l 25
 192 192 l 25
 0 192 l 25
 0 384 l 25
EndSplineSet
EndChar

StartChar: SF070000
Encoding: 459 9524 458
Width: 576
VWidth: 0
Flags: W
HStem: 288 96<0 201 300 600>
VStem: 192 96<401 801>
LayerCount: 2
Back
Fore
SplineSet
0 384 m 25
 192 384 l 1
 192 768 l 29
 288 768 l 29
 288 384 l 1
 576 384 l 25
 576 288 l 25
 0 288 l 25
 0 384 l 25
EndSplineSet
EndChar

StartChar: uni2535
Encoding: 460 9525 459
Width: 576
VWidth: 0
Flags: W
HStem: 192 192<0 201> 288 96<300 600>
VStem: 192 96<401 801>
LayerCount: 2
Back
Fore
SplineSet
192 768 m 29xa0
 288 768 l 29
 288 384 l 1
 576 384 l 25
 576 288 l 25
 192 288 l 25x60
 192 192 l 25
 0 192 l 25
 0 384 l 25
 192 384 l 1
 192 768 l 29xa0
EndSplineSet
EndChar

StartChar: uni2536
Encoding: 461 9526 460
Width: 576
VWidth: 0
Flags: W
HStem: 192 192<300 600> 288 96<0 201>
VStem: 192 96<401 801>
LayerCount: 2
Back
Fore
SplineSet
192 768 m 1x60
 288 768 l 5
 288 384 l 1
 576 384 l 25
 576 192 l 25
 288 192 l 25xa0
 288 288 l 25
 0 288 l 25
 0 384 l 25
 192 384 l 1
 192 768 l 1x60
EndSplineSet
EndChar

StartChar: uni2537
Encoding: 462 9527 461
Width: 576
VWidth: 0
Flags: W
HStem: 192 192<0 201 300 600>
VStem: 192 96<401 801>
LayerCount: 2
Back
Fore
SplineSet
192 768 m 29
 288 768 l 29
 288 384 l 1
 576 384 l 25
 576 192 l 25
 0 192 l 25
 0 384 l 25
 192 384 l 1
 192 768 l 29
EndSplineSet
EndChar

StartChar: uni2538
Encoding: 463 9528 462
Width: 576
VWidth: 0
Flags: W
HStem: 288 96<0 201 401 600>
VStem: 192 192<401 801>
LayerCount: 2
Back
Fore
SplineSet
192 768 m 29
 384 768 l 29
 384 384 l 1
 576 384 l 25
 576 288 l 25
 0 288 l 25
 0 384 l 25
 192 384 l 1
 192 768 l 29
EndSplineSet
EndChar

StartChar: uni2539
Encoding: 464 9529 463
Width: 576
VWidth: 0
Flags: W
HStem: 192 192<0 201> 288 96<401 600>
VStem: 192 192<401 801>
LayerCount: 2
Back
Fore
SplineSet
192 768 m 29xa0
 384 768 l 29
 384 384 l 1
 576 384 l 25
 576 288 l 25
 288 288 l 25x60
 288 192 l 25
 0 192 l 25
 0 384 l 25
 192 384 l 1
 192 768 l 29xa0
EndSplineSet
EndChar

StartChar: uni253A
Encoding: 465 9530 464
Width: 576
VWidth: 0
Flags: W
HStem: 192 192<401 600> 288 96<0 201>
VStem: 192 192<401 801>
LayerCount: 2
Back
Fore
SplineSet
192 768 m 1x60
 384 768 l 5
 384 384 l 1
 576 384 l 25
 576 192 l 25
 288 192 l 25xa0
 288 288 l 25
 0 288 l 25
 0 384 l 25
 192 384 l 1
 192 768 l 1x60
EndSplineSet
EndChar

StartChar: uni253B
Encoding: 466 9531 465
Width: 576
VWidth: 0
Flags: W
HStem: 192 192<0 201 401 600>
VStem: 192 192<401 801>
LayerCount: 2
Back
Fore
SplineSet
192 768 m 1
 384 768 l 5
 384 384 l 1
 576 384 l 25
 576 192 l 25
 0 192 l 25
 0 384 l 25
 192 384 l 1
 192 768 l 1
EndSplineSet
EndChar

StartChar: SF050000
Encoding: 467 9532 466
Width: 576
VWidth: 0
Flags: W
HStem: 288 96<0 201 300 600>
VStem: 192 96<-201 300 401 801>
LayerCount: 2
Back
Fore
SplineSet
192 768 m 1
 288 768 l 5
 288 384 l 1
 576 384 l 25
 576 288 l 25
 288 288 l 25
 288 -192 l 25
 192 -192 l 25
 192 288 l 25
 0 288 l 25
 0 384 l 25
 192 384 l 1
 192 768 l 1
EndSplineSet
EndChar

StartChar: uni253D
Encoding: 468 9533 467
Width: 576
VWidth: 0
Flags: W
HStem: 192 192<0 201> 288 96<300 600>
VStem: 192 96<-201 201 401 801>
LayerCount: 2
Back
Fore
SplineSet
192 768 m 1xa0
 288 768 l 5
 288 384 l 1
 576 384 l 25
 576 288 l 25
 288 288 l 25x60
 288 -192 l 25
 192 -192 l 25
 192 192 l 25
 0 192 l 25
 0 384 l 25
 192 384 l 1
 192 768 l 1xa0
EndSplineSet
EndChar

StartChar: uni253E
Encoding: 469 9534 468
Width: 576
VWidth: 0
Flags: W
HStem: 192 192<300 600> 288 96<0 201>
VStem: 192 96<-201 201 401 801>
LayerCount: 2
Back
Fore
SplineSet
192 768 m 1x60
 288 768 l 5
 288 384 l 1
 576 384 l 25
 576 192 l 25
 288 192 l 25xa0
 288 -192 l 25
 192 -192 l 25
 192 288 l 25
 0 288 l 25
 0 384 l 25
 192 384 l 1
 192 768 l 1x60
EndSplineSet
EndChar

StartChar: uni253F
Encoding: 470 9535 469
Width: 576
VWidth: 0
Flags: W
HStem: 192 192<0 201 300 600>
VStem: 192 96<-201 201 401 801>
LayerCount: 2
Back
Fore
SplineSet
192 768 m 1
 288 768 l 5
 288 384 l 1
 576 384 l 25
 576 192 l 25
 288 192 l 25
 288 -192 l 25
 192 -192 l 25
 192 192 l 25
 0 192 l 25
 0 384 l 25
 192 384 l 1
 192 768 l 1
EndSplineSet
EndChar

StartChar: uni2540
Encoding: 471 9536 470
Width: 576
VWidth: 0
Flags: W
HStem: 288 96<0 201 401 600>
VStem: 192 192<401 801> 192 96<-201 300>
LayerCount: 2
Back
Fore
SplineSet
192 768 m 1xc0
 384 768 l 5
 384 384 l 1xc0
 576 384 l 25
 576 288 l 25
 288 288 l 25
 288 -192 l 25
 192 -192 l 25
 192 288 l 25xa0
 0 288 l 25
 0 384 l 25
 192 384 l 1
 192 768 l 1xc0
EndSplineSet
EndChar

StartChar: uni2541
Encoding: 472 9537 471
Width: 576
VWidth: 0
Flags: W
HStem: 288 96<0 201 401 600>
VStem: 192 192<-201 300> 192 96<401 801>
LayerCount: 2
Back
Fore
SplineSet
192 768 m 1xa0
 288 768 l 5
 288 384 l 1xa0
 576 384 l 25
 576 288 l 25
 384 288 l 25
 384 -192 l 25
 192 -192 l 25
 192 288 l 25xc0
 0 288 l 25
 0 384 l 25
 192 384 l 1
 192 768 l 1xa0
EndSplineSet
EndChar

StartChar: uni2542
Encoding: 473 9538 472
Width: 576
VWidth: 0
Flags: W
HStem: 288 96<0 201 401 600>
VStem: 192 192<-201 300 401 801>
LayerCount: 2
Back
Fore
SplineSet
192 768 m 1
 384 768 l 5
 384 384 l 1
 576 384 l 25
 576 288 l 25
 384 288 l 25
 384 -192 l 25
 192 -192 l 25
 192 288 l 25
 0 288 l 25
 0 384 l 25
 192 384 l 1
 192 768 l 1
EndSplineSet
EndChar

StartChar: uni2543
Encoding: 474 9539 473
Width: 576
VWidth: 0
Flags: W
HStem: 192 192<0 201> 288 96<401 600>
VStem: 192 192<401 801> 192 96<-201 201>
LayerCount: 2
Back
Fore
SplineSet
192 768 m 1xa0
 384 768 l 5
 384 384 l 1x60
 576 384 l 25
 576 288 l 25
 288 288 l 25x50
 288 -192 l 25
 192 -192 l 25
 192 192 l 25x90
 0 192 l 25
 0 384 l 25
 192 384 l 1
 192 768 l 1xa0
EndSplineSet
EndChar

StartChar: uni2544
Encoding: 475 9540 474
Width: 576
VWidth: 0
Flags: W
HStem: 192 192<401 600> 288 96<0 201>
VStem: 192 192<401 801> 192 96<-201 201>
LayerCount: 2
Back
Fore
SplineSet
192 768 m 1x60
 384 768 l 5
 384 384 l 1xa0
 576 384 l 25
 576 192 l 25
 288 192 l 25x90
 288 -192 l 25
 192 -192 l 25
 192 288 l 25x50
 0 288 l 25
 0 384 l 25
 192 384 l 1
 192 768 l 1x60
EndSplineSet
EndChar

StartChar: uni2545
Encoding: 476 9541 475
Width: 576
VWidth: 0
Flags: W
HStem: 192 192<0 201> 288 96<401 600>
VStem: 192 192<-201 201> 192 96<401 801>
LayerCount: 2
Back
Fore
SplineSet
192 768 m 1x90
 288 768 l 5
 288 384 l 1x50
 576 384 l 25
 576 288 l 25
 384 288 l 25x60
 384 -192 l 25
 192 -192 l 25
 192 192 l 25xa0
 0 192 l 25
 0 384 l 25
 192 384 l 1
 192 768 l 1x90
EndSplineSet
EndChar

StartChar: uni2546
Encoding: 477 9542 476
Width: 576
VWidth: 0
Flags: W
HStem: 192 192<401 600> 288 96<0 201>
VStem: 192 192<-201 201> 192 96<401 801>
LayerCount: 2
Back
Fore
SplineSet
192 768 m 1x50
 288 768 l 5
 288 384 l 1x50
 576 384 l 25
 576 192 l 25
 384 192 l 25
 384 -192 l 25
 192 -192 l 25xa0
 192 288 l 25
 0 288 l 25
 0 384 l 25
 192 384 l 1
 192 768 l 1x50
EndSplineSet
EndChar

StartChar: uni2547
Encoding: 478 9543 477
Width: 576
VWidth: 0
Flags: W
HStem: 192 192<0 201 401 600>
VStem: 192 192<401 801> 192 96<-201 201>
LayerCount: 2
Back
Fore
SplineSet
192 768 m 1xc0
 384 768 l 5
 384 384 l 1xc0
 576 384 l 25
 576 192 l 25
 288 192 l 25
 288 -192 l 25
 192 -192 l 25
 192 192 l 25xa0
 0 192 l 25
 0 384 l 25
 192 384 l 1
 192 768 l 1xc0
EndSplineSet
EndChar

StartChar: uni2548
Encoding: 479 9544 478
Width: 576
VWidth: 0
Flags: W
HStem: 192 192<0 201 401 600>
VStem: 192 192<-201 201> 192 96<401 801>
LayerCount: 2
Back
Fore
SplineSet
192 768 m 1xa0
 288 768 l 5
 288 384 l 1xa0
 576 384 l 25
 576 192 l 25
 384 192 l 25
 384 -192 l 25
 192 -192 l 25
 192 192 l 25xc0
 0 192 l 25
 0 384 l 25
 192 384 l 1
 192 768 l 1xa0
EndSplineSet
EndChar

StartChar: uni2549
Encoding: 480 9545 479
Width: 576
VWidth: 0
Flags: W
HStem: 192 192<0 201> 288 96<401 600>
VStem: 192 192<-201 201 401 801>
LayerCount: 2
Back
Fore
SplineSet
192 768 m 1xa0
 384 768 l 5
 384 384 l 1
 576 384 l 25
 576 288 l 25
 384 288 l 25x60
 384 -192 l 25
 192 -192 l 25
 192 192 l 25
 0 192 l 25
 0 384 l 25
 192 384 l 1
 192 768 l 1xa0
EndSplineSet
EndChar

StartChar: uni254A
Encoding: 481 9546 480
Width: 576
VWidth: 0
Flags: W
HStem: 192 192<401 600> 288 96<0 201>
VStem: 192 192<-201 201 401 801>
LayerCount: 2
Back
Fore
SplineSet
192 768 m 1x60
 384 768 l 5
 384 384 l 1
 576 384 l 25
 576 192 l 25
 384 192 l 25xa0
 384 -192 l 25
 192 -192 l 25
 192 288 l 25
 0 288 l 25
 0 384 l 25
 192 384 l 1
 192 768 l 1x60
EndSplineSet
EndChar

StartChar: uni254B
Encoding: 482 9547 481
Width: 576
VWidth: 0
Flags: W
HStem: 192 192<0 201 401 600>
VStem: 192 192<-201 201 401 801>
LayerCount: 2
Back
Fore
SplineSet
192 768 m 1
 384 768 l 5
 384 384 l 1
 576 384 l 25
 576 192 l 25
 384 192 l 25
 384 -192 l 25
 192 -192 l 25
 192 192 l 25
 0 192 l 25
 0 384 l 25
 192 384 l 1
 192 768 l 1
EndSplineSet
EndChar

StartChar: uni254C
Encoding: 483 9548 482
Width: 576
VWidth: 0
Flags: W
HStem: 288 96<0 201 401 600>
LayerCount: 2
Back
Fore
SplineSet
384 384 m 25
 576 384 l 25
 576 288 l 25
 384 288 l 25
 384 384 l 25
0 384 m 25
 192 384 l 25
 192 288 l 25
 0 288 l 25
 0 384 l 25
EndSplineSet
EndChar

StartChar: uni254D
Encoding: 484 9549 483
Width: 576
VWidth: 0
Flags: W
HStem: 192 192<0 201 401 600>
VStem: 0 192<201 401> 384 192<201 401>
LayerCount: 2
Back
Fore
SplineSet
384 384 m 25
 576 384 l 25
 576 192 l 25
 384 192 l 25
 384 384 l 25
0 384 m 25
 192 384 l 25
 192 192 l 25
 0 192 l 25
 0 384 l 25
EndSplineSet
EndChar

StartChar: uni254E
Encoding: 485 9550 484
Width: 576
VWidth: 0
Flags: W
VStem: 192 96<-201 201 401 801>
LayerCount: 2
Back
Fore
SplineSet
192 192 m 25
 288 192 l 25
 288 -192 l 25
 192 -192 l 25
 192 192 l 25
192 768 m 1
 288 768 l 5
 288 384 l 1
 192 384 l 1
 192 768 l 1
EndSplineSet
EndChar

StartChar: uni254F
Encoding: 486 9551 485
Width: 576
VWidth: 0
Flags: W
VStem: 192 192<-201 201 401 801>
LayerCount: 2
Back
Fore
SplineSet
192 192 m 25
 384 192 l 25
 384 -192 l 25
 192 -192 l 25
 192 192 l 25
192 768 m 1
 384 768 l 5
 384 384 l 1
 192 384 l 1
 192 768 l 1
EndSplineSet
EndChar

StartChar: SF430000
Encoding: 487 9552 486
Width: 576
VWidth: 0
Flags: W
HStem: 192 96<0 600> 384 96<0 600>
LayerCount: 2
Back
Fore
SplineSet
0 288 m 25
 576 288 l 25
 576 192 l 25
 0 192 l 25
 0 288 l 25
0 480 m 25
 576 480 l 25
 576 384 l 25
 0 384 l 25
 0 480 l 25
EndSplineSet
EndChar

StartChar: SF240000
Encoding: 488 9553 487
Width: 576
VWidth: 0
Flags: W
VStem: 96 96<-201 801> 288 96<-201 801>
LayerCount: 2
Back
Fore
SplineSet
288 768 m 29
 384 768 l 29
 384 -192 l 1
 288 -192 l 1
 288 768 l 29
96 768 m 29
 192 768 l 29
 192 -192 l 1
 96 -192 l 1
 96 768 l 29
EndSplineSet
EndChar

StartChar: SF510000
Encoding: 489 9554 488
Width: 576
VWidth: 0
Flags: W
HStem: 192 96<300 600> 384 96<300 600>
VStem: 192 96<-201 201 300 401>
LayerCount: 2
Back
Fore
SplineSet
192 480 m 25
 576 480 l 25
 576 384 l 25
 288 384 l 25
 288 288 l 25
 576 288 l 25
 576 192 l 25
 288 192 l 25
 288 -192 l 25
 192 -192 l 25
 192 480 l 25
EndSplineSet
EndChar

StartChar: SF520000
Encoding: 490 9555 489
Width: 576
VWidth: 0
Flags: W
HStem: 288 96<201 300 401 600>
VStem: 96 96<-201 300> 288 96<-201 300>
LayerCount: 2
Back
Fore
SplineSet
96 384 m 25
 576 384 l 25
 576 288 l 25
 384 288 l 25
 384 -192 l 25
 288 -192 l 25
 288 288 l 25
 192 288 l 25
 192 -192 l 25
 96 -192 l 25
 96 384 l 25
EndSplineSet
EndChar

StartChar: SF390000
Encoding: 491 9556 490
Width: 576
VWidth: 0
Flags: W
HStem: 192 96<401 600> 384 96<201 600>
VStem: 96 96<-201 401> 288 96<-201 201>
LayerCount: 2
Back
Fore
SplineSet
288 288 m 25
 576 288 l 25
 576 192 l 25
 384 192 l 25
 384 -192 l 25
 288 -192 l 25
 288 288 l 25
96 480 m 25
 576 480 l 25
 576 384 l 25
 192 384 l 25
 192 -192 l 25
 96 -192 l 25
 96 480 l 25
EndSplineSet
EndChar

StartChar: SF220000
Encoding: 492 9557 491
Width: 576
VWidth: 0
Flags: W
HStem: 192 96<0 201> 384 96<0 201>
VStem: 0 288<201 300 401 500> 192 96<-201 201 300 401>
LayerCount: 2
Back
Fore
SplineSet
0 480 m 25xe0
 288 480 l 25xe0
 288 -192 l 25
 192 -192 l 25
 192 192 l 25xd0
 0 192 l 25
 0 288 l 25xe0
 192 288 l 25
 192 384 l 25xd0
 0 384 l 25
 0 480 l 25xe0
EndSplineSet
EndChar

StartChar: SF210000
Encoding: 493 9558 492
Width: 576
VWidth: 0
Flags: W
HStem: 288 96<0 100 201 300>
VStem: 96 96<-201 300> 288 96<-201 300>
LayerCount: 2
Back
Fore
SplineSet
0 384 m 25
 384 384 l 25
 384 -192 l 25
 288 -192 l 25
 288 288 l 25
 192 288 l 25
 192 -192 l 25
 96 -192 l 25
 96 288 l 25
 0 288 l 25
 0 384 l 25
EndSplineSet
EndChar

StartChar: SF250000
Encoding: 494 9559 493
Width: 576
VWidth: 0
Flags: W
HStem: 192 96<0 100> 384 96<0 300>
VStem: 96 96<-201 201> 288 96<-201 401>
LayerCount: 2
Back
Fore
SplineSet
0 288 m 25
 192 288 l 25
 192 -192 l 25
 96 -192 l 25
 96 192 l 25
 0 192 l 25
 0 288 l 25
0 480 m 25
 384 480 l 25
 384 -192 l 25
 288 -192 l 25
 288 384 l 25
 0 384 l 25
 0 480 l 25
EndSplineSet
EndChar

StartChar: SF500000
Encoding: 495 9560 494
Width: 576
VWidth: 0
Flags: W
HStem: 192 96<300 600> 384 96<300 600>
VStem: 192 96<300 401 500 801>
LayerCount: 2
Back
Fore
SplineSet
192 768 m 1
 288 768 l 5
 288 480 l 1
 576 480 l 25
 576 384 l 25
 288 384 l 25
 288 288 l 25
 576 288 l 25
 576 192 l 25
 192 192 l 1
 192 768 l 1
EndSplineSet
EndChar

StartChar: SF490000
Encoding: 496 9561 495
Width: 576
VWidth: 0
Flags: W
HStem: 288 96<201 300 401 600>
VStem: 96 96<401 801> 288 96<401 801>
LayerCount: 2
Back
Fore
SplineSet
96 768 m 1
 192 768 l 1
 192 384 l 1
 288 384 l 1
 288 768 l 1
 384 768 l 5
 384 384 l 1
 576 384 l 25
 576 288 l 25
 96 288 l 1
 96 768 l 1
EndSplineSet
EndChar

StartChar: SF380000
Encoding: 497 9562 496
Width: 576
VWidth: 0
Flags: W
HStem: 192 96<201 600> 384 96<401 600>
VStem: 96 96<300 801> 288 96<500 801>
LayerCount: 2
Back
Fore
SplineSet
288 768 m 29
 384 768 l 29
 384 480 l 1
 576 480 l 25
 576 384 l 25
 288 384 l 1
 288 768 l 29
96 768 m 29
 192 768 l 29
 192 288 l 1
 576 288 l 25
 576 192 l 25
 96 192 l 1
 96 768 l 29
EndSplineSet
EndChar

StartChar: SF280000
Encoding: 498 9563 497
Width: 576
VWidth: 0
Flags: W
HStem: 192 96<0 201> 384 96<0 201>
VStem: 0 288<201 300 401 500> 192 96<300 401 500 801>
LayerCount: 2
Back
Fore
SplineSet
192 768 m 29xd0
 288 768 l 29xd0
 288 192 l 1
 0 192 l 25
 0 288 l 25xe0
 192 288 l 25
 192 384 l 25xd0
 0 384 l 25
 0 480 l 25xe0
 192 480 l 1
 192 768 l 29xd0
EndSplineSet
EndChar

StartChar: SF270000
Encoding: 499 9564 498
Width: 576
VWidth: 0
Flags: W
HStem: 288 96<576 675 777 876>
VStem: 672 96<401 801> 864 96<401 801>
LayerCount: 2
Back
Fore
SplineSet
96 768 m 29
 192 768 l 29
 192 384 l 1
 288 384 l 1
 288 768 l 29
 384 768 l 29
 384 288 l 1
 0 288 l 25
 0 384 l 25
 96 384 l 1
 96 768 l 29
EndSplineSet
EndChar

StartChar: SF260000
Encoding: 500 9565 499
Width: 576
VWidth: 0
Flags: W
HStem: 192 96<0 300> 384 96<0 100>
VStem: 96 96<500 801> 288 96<300 801>
LayerCount: 2
Back
Fore
SplineSet
288 768 m 1
 384 768 l 5
 384 192 l 1
 0 192 l 25
 0 288 l 25
 288 288 l 1
 288 768 l 1
96 768 m 1
 192 768 l 1
 192 384 l 1
 0 384 l 25
 0 480 l 25
 96 480 l 1
 96 768 l 1
EndSplineSet
EndChar

StartChar: SF360000
Encoding: 501 9566 500
Width: 576
VWidth: 0
Flags: W
HStem: 192 96<300 600> 384 96<300 600>
VStem: 192 96<-201 201 300 401 500 801>
LayerCount: 2
Back
Fore
SplineSet
192 768 m 1
 288 768 l 5
 288 480 l 1
 576 480 l 25
 576 384 l 25
 288 384 l 25
 288 288 l 25
 576 288 l 25
 576 192 l 25
 288 192 l 25
 288 -192 l 25
 192 -192 l 1
 192 768 l 1
EndSplineSet
EndChar

StartChar: SF370000
Encoding: 502 9567 501
Width: 576
VWidth: 0
Flags: W
HStem: 288 96<401 600>
VStem: 96 96<-201 801> 288 96<-201 300 401 801>
LayerCount: 2
Back
Fore
SplineSet
288 768 m 1
 384 768 l 5
 384 384 l 1
 576 384 l 25
 576 288 l 25
 384 288 l 25
 384 -192 l 25
 288 -192 l 1
 288 768 l 1
96 768 m 1
 192 768 l 1
 192 -192 l 1
 96 -192 l 1
 96 768 l 1
EndSplineSet
EndChar

StartChar: SF420000
Encoding: 503 9568 502
Width: 576
VWidth: 0
Flags: W
HStem: 192 96<401 600> 384 96<401 600>
VStem: 96 96<-201 801> 288 288<201 300 401 500> 288 96<-201 201 500 801>
LayerCount: 2
Back
Fore
SplineSet
288 288 m 25xf0
 576 288 l 25
 576 192 l 25xf0
 384 192 l 25
 384 -192 l 25
 288 -192 l 25xe8
 288 288 l 25xf0
288 768 m 29xe8
 384 768 l 29
 384 480 l 1xe8
 576 480 l 25
 576 384 l 25
 288 384 l 1xf0
 288 768 l 29xe8
96 768 m 29
 192 768 l 29
 192 -192 l 1
 96 -192 l 1
 96 768 l 29
EndSplineSet
EndChar

StartChar: SF190000
Encoding: 504 9569 503
Width: 576
VWidth: 0
Flags: W
HStem: 192 96<0 201> 384 96<0 201>
VStem: 0 288<201 300 401 500> 192 96<-201 201 300 401 500 801>
LayerCount: 2
Back
Fore
SplineSet
0 480 m 25xe0
 192 480 l 1
 192 768 l 29
 288 768 l 29
 288 -192 l 1
 192 -192 l 25
 192 192 l 25xd0
 0 192 l 25
 0 288 l 25xe0
 192 288 l 25
 192 384 l 25xd0
 0 384 l 25
 0 480 l 25xe0
EndSplineSet
EndChar

StartChar: SF200000
Encoding: 505 9570 504
Width: 576
VWidth: 0
Flags: W
HStem: 288 96<0 100>
VStem: 96 96<-201 300 401 801> 288 96<-201 801>
LayerCount: 2
Back
Fore
SplineSet
288 768 m 29
 384 768 l 29
 384 -192 l 1
 288 -192 l 1
 288 768 l 29
96 768 m 29
 192 768 l 29
 192 -192 l 1
 96 -192 l 25
 96 288 l 25
 0 288 l 25
 0 384 l 25
 96 384 l 1
 96 768 l 29
EndSplineSet
EndChar

StartChar: SF230000
Encoding: 506 9571 505
Width: 576
VWidth: 0
Flags: W
HStem: 192 96<0 100> 384 96<0 100>
VStem: 0 192<201 300 401 500> 96 96<-201 201 500 801> 288 96<-201 801>
LayerCount: 2
Back
Fore
SplineSet
288 768 m 29xc8
 384 768 l 29
 384 -192 l 1
 288 -192 l 1
 288 768 l 29xc8
0 288 m 25xe8
 192 288 l 25xe8
 192 -192 l 25
 96 -192 l 25
 96 192 l 25xd8
 0 192 l 25
 0 288 l 25xe8
96 768 m 29xd8
 192 768 l 29xd8
 192 384 l 1
 0 384 l 25
 0 480 l 25xe8
 96 480 l 1
 96 768 l 29xd8
EndSplineSet
EndChar

StartChar: SF470000
Encoding: 507 9572 506
Width: 576
VWidth: 0
Flags: W
HStem: 192 96<0 201 300 600> 384 96<0 600>
VStem: 192 96<-201 201>
LayerCount: 2
Back
Fore
SplineSet
0 288 m 25
 576 288 l 25
 576 192 l 25
 288 192 l 25
 288 -192 l 25
 192 -192 l 25
 192 192 l 25
 0 192 l 25
 0 288 l 25
0 480 m 25
 576 480 l 25
 576 384 l 25
 0 384 l 25
 0 480 l 25
EndSplineSet
EndChar

StartChar: SF480000
Encoding: 508 9573 507
Width: 576
VWidth: 0
Flags: W
HStem: 288 96<0 100 201 300 401 600>
VStem: 96 96<-201 300> 288 96<-201 300>
LayerCount: 2
Back
Fore
SplineSet
0 384 m 25
 576 384 l 25
 576 288 l 25
 384 288 l 25
 384 -192 l 25
 288 -192 l 25
 288 288 l 25
 192 288 l 25
 192 -192 l 25
 96 -192 l 25
 96 288 l 25
 0 288 l 25
 0 384 l 25
EndSplineSet
EndChar

StartChar: SF410000
Encoding: 509 9574 508
Width: 576
VWidth: 0
Flags: W
HStem: 192 96<0 100 401 600> 384 96<0 600>
VStem: 96 96<-201 201> 288 96<-201 201>
LayerCount: 2
Back
Fore
SplineSet
288 288 m 25
 576 288 l 25
 576 192 l 25
 384 192 l 25
 384 -192 l 25
 288 -192 l 25
 288 288 l 25
0 288 m 25
 192 288 l 25
 192 -192 l 25
 96 -192 l 25
 96 192 l 25
 0 192 l 25
 0 288 l 25
0 480 m 25
 576 480 l 25
 576 384 l 25
 0 384 l 25
 0 480 l 25
EndSplineSet
EndChar

StartChar: SF450000
Encoding: 510 9575 509
Width: 576
VWidth: 0
Flags: W
HStem: 192 96<0 600> 384 96<0 201 300 600>
VStem: 192 96<500 801>
LayerCount: 2
Back
Fore
SplineSet
0 288 m 25
 576 288 l 25
 576 192 l 25
 0 192 l 25
 0 288 l 25
0 480 m 25
 192 480 l 1
 192 768 l 29
 288 768 l 29
 288 480 l 1
 576 480 l 25
 576 384 l 25
 0 384 l 25
 0 480 l 25
EndSplineSet
EndChar

StartChar: SF460000
Encoding: 511 9576 510
Width: 576
VWidth: 0
Flags: W
HStem: 288 96<0 100 201 300 401 600>
VStem: 96 96<401 801> 288 96<401 801>
LayerCount: 2
Back
Fore
SplineSet
0 384 m 25
 96 384 l 1
 96 768 l 29
 192 768 l 29
 192 384 l 1
 288 384 l 1
 288 768 l 29
 384 768 l 29
 384 384 l 1
 576 384 l 25
 576 288 l 25
 0 288 l 25
 0 384 l 25
EndSplineSet
EndChar

StartChar: SF400000
Encoding: 512 9577 511
Width: 576
VWidth: 0
Flags: W
HStem: 192 96<0 600> 384 96<0 100 401 600>
VStem: 96 96<500 801> 288 96<500 801>
LayerCount: 2
Back
Fore
SplineSet
0 288 m 25
 576 288 l 25
 576 192 l 25
 0 192 l 25
 0 288 l 25
288 768 m 29
 384 768 l 29
 384 480 l 1
 576 480 l 25
 576 384 l 25
 288 384 l 1
 288 768 l 29
0 480 m 25
 96 480 l 1
 96 768 l 29
 192 768 l 29
 192 384 l 1
 0 384 l 25
 0 480 l 25
EndSplineSet
EndChar

StartChar: SF540000
Encoding: 513 9578 512
Width: 576
VWidth: 0
Flags: W
HStem: 192 96<0 201 300 600> 384 96<0 201 300 600>
VStem: 192 96<-201 201 300 401 500 801>
LayerCount: 2
Back
Fore
SplineSet
0 480 m 25
 192 480 l 1
 192 768 l 29
 288 768 l 29
 288 480 l 1
 576 480 l 25
 576 384 l 25
 288 384 l 25
 288 288 l 25
 576 288 l 25
 576 192 l 25
 288 192 l 25
 288 -192 l 25
 192 -192 l 25
 192 192 l 25
 0 192 l 25
 0 288 l 25
 192 288 l 25
 192 384 l 25
 0 384 l 25
 0 480 l 25
EndSplineSet
EndChar

StartChar: SF530000
Encoding: 514 9579 513
Width: 576
VWidth: 0
Flags: W
HStem: 288 96<0 100 201 300 401 600>
VStem: 96 96<-201 300 401 801> 288 96<-201 300 401 801>
LayerCount: 2
Back
Fore
SplineSet
0 384 m 25
 96 384 l 1
 96 768 l 29
 192 768 l 29
 192 384 l 1
 288 384 l 1
 288 768 l 29
 384 768 l 29
 384 384 l 1
 576 384 l 25
 576 288 l 25
 384 288 l 25
 384 -192 l 25
 288 -192 l 25
 288 288 l 25
 192 288 l 25
 192 -192 l 25
 96 -192 l 25
 96 288 l 25
 0 288 l 25
 0 384 l 25
EndSplineSet
EndChar

StartChar: SF440000
Encoding: 515 9580 514
Width: 576
VWidth: 0
Flags: W
HStem: 192 96<0 100 401 600> 384 96<0 100 401 600>
VStem: 0 192<201 300 401 500> 96 96<-201 201 500 801> 288 288<201 300 401 500> 288 96<-201 201 500 801>
LayerCount: 2
Back
Fore
SplineSet
288 288 m 25xc8
 576 288 l 25
 576 192 l 25xc8
 384 192 l 25
 384 -192 l 25
 288 -192 l 25xc4
 288 288 l 25xc8
0 288 m 25xe0
 192 288 l 25xe0
 192 -192 l 25
 96 -192 l 25
 96 192 l 25xd0
 0 192 l 25
 0 288 l 25xe0
288 768 m 29xc4
 384 768 l 29
 384 480 l 1xc4
 576 480 l 25
 576 384 l 25
 288 384 l 1xc8
 288 768 l 29xc4
0 480 m 25xe0
 96 480 l 1
 96 768 l 29
 192 768 l 29xd0
 192 384 l 1
 0 384 l 25
 0 480 l 25xe0
EndSplineSet
EndChar

StartChar: uni256D
Encoding: 516 9581 515
Width: 576
VWidth: 0
Flags: W
HStem: 192 96<300 401> 288 96<401 600>
VStem: 192 96<-201 201> 288 96<201 300>
LayerCount: 2
Back
Fore
SplineSet
192 -192 m 25xa0
 192 192 l 25
 288 192 l 25xa0
 288 288 l 25
 384 288 l 25x90
 384 384 l 25
 576 384 l 25
 576 288 l 25x50
 384 288 l 25
 384 192 l 25x90
 288 192 l 25
 288 -192 l 25
 192 -192 l 25xa0
EndSplineSet
EndChar

StartChar: uni256E
Encoding: 517 9582 516
Width: 576
VWidth: 0
Flags: W
HStem: 192 96<100 201> 288 96<0 100>
VStem: 0 96<300 401> 96 96<201 300> 192 96<-201 201>
LayerCount: 2
Back
Fore
SplineSet
0 384 m 25x60
 96 384 l 25x60
 96 288 l 25xa0
 192 288 l 25
 192 192 l 25x90
 288 192 l 25
 288 -192 l 25
 192 -192 l 25x88
 192 192 l 25
 96 192 l 25x90
 96 288 l 25xa0
 0 288 l 25
 0 384 l 25x60
EndSplineSet
EndChar

StartChar: uni256F
Encoding: 518 9583 517
Width: 576
VWidth: 0
Flags: W
HStem: 288 96<0 100> 384 96<100 201>
VStem: 0 96<300 401> 96 96<401 500> 192 96<500 801>
LayerCount: 2
Back
Fore
SplineSet
0 384 m 25xa0
 96 384 l 25xa0
 96 480 l 25
 192 480 l 1x50
 192 768 l 29
 288 768 l 29
 288 480 l 1x48
 192 480 l 25
 192 384 l 25x50
 96 384 l 25
 96 288 l 25
 0 288 l 25
 0 384 l 25xa0
EndSplineSet
EndChar

StartChar: uni2570
Encoding: 519 9584 518
Width: 576
VWidth: 0
Flags: W
HStem: 288 96<401 600> 384 96<300 401>
VStem: 192 96<500 801> 288 96<401 500>
LayerCount: 2
Back
Fore
SplineSet
192 768 m 29x60
 288 768 l 29
 288 480 l 1x60
 384 480 l 25x50
 384 384 l 25
 576 384 l 25
 576 288 l 25
 384 288 l 25
 384 384 l 25x90
 288 384 l 25x50
 288 480 l 25
 192 480 l 1
 192 768 l 29x60
EndSplineSet
EndChar

StartChar: uni2571
Encoding: 520 9585 519
Width: 576
VWidth: 0
Flags: W
HStem: 192 96<201 300> 288 96<300 401>
VStem: 0 96<-201 0> 96 96<0 201> 192 96<201 300> 288 96<300 401> 384 96<401 600> 480 96<600 801>
LayerCount: 2
Back
Fore
SplineSet
480 768 m 1x41
 576 768 l 5
 576 576 l 1x41
 480 576 l 25
 480 384 l 25x42
 384 384 l 25
 384 288 l 25x44
 288 288 l 25
 288 192 l 25x88
 192 192 l 25
 192 0 l 25x90
 96 0 l 25
 96 -192 l 25
 0 -192 l 25
 0 0 l 25
 96 0 l 25xa0
 96 192 l 25
 192 192 l 25x90
 192 288 l 25
 288 288 l 25x88
 288 384 l 25
 384 384 l 25x44
 384 576 l 25
 480 576 l 1x42
 480 768 l 1x41
EndSplineSet
EndChar

StartChar: uni2572
Encoding: 521 9586 520
Width: 576
VWidth: 0
Flags: W
HStem: 192 96<300 401> 288 96<201 300>
VStem: 0 96<600 801> 96 96<401 600> 192 96<300 401> 288 96<201 300> 384 96<0 201> 480 96<-201 0>
LayerCount: 2
Back
Fore
SplineSet
0 768 m 1x60
 96 768 l 5
 96 576 l 1x60
 192 576 l 25
 192 384 l 25x50
 288 384 l 25x48
 288 288 l 25x88
 384 288 l 25
 384 192 l 25x84
 480 192 l 25
 480 0 l 25x82
 576 0 l 25
 576 -192 l 25
 480 -192 l 25x81
 480 0 l 25
 384 0 l 25x82
 384 192 l 25
 288 192 l 25x84
 288 288 l 25x88
 192 288 l 25x48
 192 384 l 25
 96 384 l 25x50
 96 576 l 25
 0 576 l 1
 0 768 l 1x60
EndSplineSet
EndChar

StartChar: uni2573
Encoding: 522 9587 521
Width: 576
VWidth: 0
Flags: W
HStem: -192 192<0 100 500 600> 0 192<100 201 401 500> 384 192<100 201 401 500> 576 192<0 100 500 600>
VStem: 0 96<-201 0 600 801> 96 96<0 201 401 600> 384 96<0 201 401 600> 480 96<-201 0 600 801>
LayerCount: 2
Back
Fore
SplineSet
0 768 m 1x18
 96 768 l 1x18
 96 576 l 1x28
 192 576 l 25
 192 384 l 25
 384 384 l 25
 384 576 l 25
 480 576 l 1x26
 480 768 l 1
 576 768 l 5
 576 576 l 1x11
 480 576 l 25
 480 384 l 25
 384 384 l 25
 384 192 l 25
 480 192 l 25x62
 480 0 l 25x82
 576 0 l 25
 576 -192 l 25
 480 -192 l 25x81
 480 0 l 25x82
 384 0 l 25
 384 192 l 25
 192 192 l 25
 192 0 l 25x46
 96 0 l 25
 96 -192 l 25
 0 -192 l 25
 0 0 l 25
 96 0 l 25x88
 96 192 l 25
 192 192 l 25
 192 384 l 25
 96 384 l 25x64
 96 576 l 25x68
 0 576 l 1
 0 768 l 1x18
EndSplineSet
EndChar

StartChar: uni2574
Encoding: 523 9588 522
Width: 576
VWidth: 0
Flags: W
HStem: 288 96<0 300>
VStem: 0 288<300 401>
LayerCount: 2
Back
Fore
SplineSet
0 384 m 25
 288 384 l 25
 288 288 l 25
 0 288 l 25
 0 384 l 25
EndSplineSet
EndChar

StartChar: uni2575
Encoding: 524 9589 523
Width: 576
VWidth: 0
Flags: W
VStem: 192 96<300 801>
LayerCount: 2
Back
Fore
SplineSet
192 768 m 1
 288 768 l 5
 288 288 l 1
 192 288 l 1
 192 768 l 1
EndSplineSet
EndChar

StartChar: uni2576
Encoding: 525 9590 524
Width: 576
VWidth: 0
Flags: W
HStem: 288 96<201 600>
LayerCount: 2
Back
Fore
SplineSet
192 384 m 25
 576 384 l 25
 576 288 l 25
 192 288 l 25
 192 384 l 25
EndSplineSet
EndChar

StartChar: uni2577
Encoding: 526 9591 525
Width: 576
VWidth: 0
Flags: W
VStem: 192 96<-201 401>
LayerCount: 2
Back
Fore
SplineSet
192 384 m 25
 288 384 l 25
 288 -192 l 25
 192 -192 l 25
 192 384 l 25
EndSplineSet
EndChar

StartChar: uni2578
Encoding: 527 9592 526
Width: 576
VWidth: 0
Flags: W
HStem: 192 192<0 300>
VStem: 0 288<201 401>
LayerCount: 2
Back
Fore
SplineSet
0 384 m 25
 288 384 l 25
 288 192 l 25
 0 192 l 25
 0 384 l 25
EndSplineSet
EndChar

StartChar: uni2579
Encoding: 528 9593 527
Width: 576
VWidth: 0
Flags: W
VStem: 192 192<300 801>
LayerCount: 2
Back
Fore
SplineSet
192 768 m 1
 384 768 l 5
 384 288 l 1
 192 288 l 1
 192 768 l 1
EndSplineSet
EndChar

StartChar: uni257A
Encoding: 529 9594 528
Width: 576
VWidth: 0
Flags: W
HStem: 192 192<201 600>
LayerCount: 2
Back
Fore
SplineSet
192 384 m 25
 576 384 l 25
 576 192 l 25
 192 192 l 25
 192 384 l 25
EndSplineSet
EndChar

StartChar: uni257B
Encoding: 530 9595 529
Width: 576
VWidth: 0
Flags: W
VStem: 192 192<-201 401>
LayerCount: 2
Back
Fore
SplineSet
192 384 m 25
 384 384 l 25
 384 -192 l 25
 192 -192 l 25
 192 384 l 25
EndSplineSet
EndChar

StartChar: uni257C
Encoding: 531 9596 530
Width: 576
VWidth: 0
Flags: W
HStem: 192 192<201 600> 288 96<0 201>
LayerCount: 2
Back
Fore
SplineSet
0 384 m 25x40
 576 384 l 25
 576 192 l 25
 192 192 l 25x80
 192 288 l 25
 0 288 l 25
 0 384 l 25x40
EndSplineSet
EndChar

StartChar: uni257D
Encoding: 532 9597 531
Width: 576
VWidth: 0
Flags: W
VStem: 192 192<-201 401> 192 96<401 801>
LayerCount: 2
Back
Fore
SplineSet
192 768 m 1x40
 288 768 l 5
 288 384 l 1x40
 384 384 l 25
 384 -192 l 25
 192 -192 l 1x80
 192 768 l 1x40
EndSplineSet
EndChar

StartChar: uni257E
Encoding: 533 9598 532
Width: 576
VWidth: 0
Flags: W
HStem: 192 192<0 300> 288 96<300 600>
LayerCount: 2
Back
Fore
SplineSet
0 384 m 25x80
 576 384 l 25
 576 288 l 25
 288 288 l 25x40
 288 192 l 25
 0 192 l 25
 0 384 l 25x80
EndSplineSet
EndChar

StartChar: uni257F
Encoding: 534 9599 533
Width: 576
VWidth: 0
Flags: W
VStem: 192 192<300 801> 192 96<-201 300>
LayerCount: 2
Back
Fore
SplineSet
192 768 m 1x80
 384 768 l 5
 384 288 l 1x80
 288 288 l 25
 288 -192 l 25
 192 -192 l 1x40
 192 768 l 1x80
EndSplineSet
EndChar

StartChar: block
Encoding: 535 9608 534
Width: 576
VWidth: 0
Flags: W
VStem: 0 576<-201 801>
LayerCount: 2
Back
Fore
SplineSet
0 768 m 1
 576 768 l 5
 576 -192 l 1
 0 -192 l 1
 0 768 l 1
EndSplineSet
EndChar

StartChar: ltshade
Encoding: 536 9617 535
Width: 576
VWidth: 0
Flags: W
HStem: -192 96<0 100 300 401> -96 96<201 300 500 600> 0 96<100 201 401 500> 96 96<0 100 300 401> 192 96<201 300 500 600> 288 96<100 201 401 500> 384 96<0 100 300 401> 480 96<201 300 500 600> 576 96<100 201 401 500> 672 96<0 100 300 401>
VStem: 0 96<-201 -100 100 201 401 500 700 801> 96 96<0 100 300 401 600 700> 192 96<-100 0 201 300 500 600> 288 96<-201 -100 100 201 401 500 700 801> 384 96<0 100 300 401 600 700> 480 96<-100 0 201 300 500 600>
LayerCount: 2
Back
Fore
SplineSet
0 -96 m 25x8020
 96 -96 l 25
 96 -192 l 25
 0 -192 l 25
 0 -96 l 25x8020
0 192 m 25x1020
 96 192 l 25x1020
 96 96 l 25x2020
 192 96 l 25x2010
 192 0 l 25x4010
 288 0 l 25x4008
 288 -96 l 25x8008
 384 -96 l 25
 384 -192 l 25
 288 -192 l 25x8004
 288 -96 l 25x8008
 192 -96 l 25x4008
 192 0 l 25x4010
 96 0 l 25x2010
 96 96 l 25x2020
 0 96 l 25
 0 192 l 25x1020
0 480 m 25x0220
 96 480 l 25x0220
 96 384 l 25x0420
 192 384 l 25x0410
 192 288 l 25x0810
 288 288 l 25x0808
 288 192 l 25x1008
 384 192 l 25x1004
 384 96 l 25x2004
 480 96 l 25x2002
 480 0 l 25x4002
 576 0 l 25
 576 -96 l 25
 480 -96 l 25x4001
 480 0 l 25x4002
 384 0 l 25x2002
 384 96 l 25x2004
 288 96 l 25x1004
 288 192 l 25x1008
 192 192 l 25x0808
 192 288 l 25x0810
 96 288 l 25x0410
 96 384 l 25x0420
 0 384 l 25
 0 480 l 25x0220
288 768 m 25x0044
 384 768 l 25x0044
 384 672 l 25x0084
 480 672 l 25x0082
 480 576 l 25x0102
 576 576 l 25
 576 480 l 25
 480 480 l 25x0101
 480 576 l 25x0102
 384 576 l 25x0082
 384 672 l 25x0084
 288 672 l 25
 288 768 l 25x0044
0 768 m 25x0060
 96 768 l 25x0060
 96 672 l 25x00a0
 192 672 l 25x0090
 192 576 l 25x0110
 288 576 l 25x0108
 288 480 l 25x0208
 384 480 l 25x0204
 384 384 l 25x0404
 480 384 l 25x0402
 480 288 l 25x0802
 576 288 l 25
 576 192 l 25
 480 192 l 25x0801
 480 288 l 25x0802
 384 288 l 25x0402
 384 384 l 25x0404
 288 384 l 25x0204
 288 480 l 25x0208
 192 480 l 25x0108
 192 576 l 25x0110
 96 576 l 25x0090
 96 672 l 25x00a0
 0 672 l 25
 0 768 l 25x0060
EndSplineSet
EndChar

